<svg width="50" height="50" viewBox="0 0 50 50" fill="none" xmlns="http://www.w3.org/2000/svg">
<path fill-rule="evenodd" clip-rule="evenodd" d="M25 47C37.1503 47 47 37.1503 47 25C47 12.8497 37.1503 3 25 3C12.8497 3 3 12.8497 3 25C3 37.1503 12.8497 47 25 47ZM26.8145 36V24.9987H30.0687L30.5 21.2076H26.8145L26.82 19.3101C26.82 18.3213 26.9207 17.7915 28.4426 17.7915H30.477V14H27.2223C23.3129 14 21.9369 15.8391 21.9369 18.9319V21.208H19.5V24.9991H21.9369V36H26.8145Z" fill="url(#paint0_linear)"/>
<defs>
<linearGradient id="paint0_linear" x1="10.1806" y1="37.9861" x2="38.4444" y2="13.5417" gradientUnits="userSpaceOnUse">
<stop stop-color="#FF80A4"/>
<stop offset="1" stop-color="#FFA984"/>
</linearGradient>
</defs>
</svg>
