<svg width="44" height="44" viewBox="0 0 44 44" fill="none" xmlns="http://www.w3.org/2000/svg">
<path fill-rule="evenodd" clip-rule="evenodd" d="M22 44C34.1503 44 44 34.1503 44 22C44 9.84974 34.1503 0 22 0C9.84974 0 0 9.84974 0 22C0 34.1503 9.84974 44 22 44ZM23.8145 33V21.9987H27.0687L27.5 18.2076H23.8145L23.82 16.3101C23.82 15.3213 23.9207 14.7915 25.4426 14.7915H27.477V11H24.2223C20.3129 11 18.9369 12.8391 18.9369 15.9319V18.208H16.5V21.9991H18.9369V33H23.8145Z" fill="url(#paint0_linear)"/>
<defs>
<linearGradient id="paint0_linear" x1="7.18056" y1="34.9861" x2="35.4444" y2="10.5417" gradientUnits="userSpaceOnUse">
<stop stop-color="#FF80A4"/>
<stop offset="1" stop-color="#FFA984"/>
</linearGradient>
</defs>
</svg>
