<svg width="264" height="264" viewBox="0 0 264 264" fill="none" xmlns="http://www.w3.org/2000/svg">
<g filter="url(#filter0_d)">
<circle cx="117" cy="117" r="72" fill="white"/>
</g>
<path d="M117 147C100.458 147 87 133.542 87 117C87 109.708 89.646 102.68 94.454 97.21C94.82 96.796 95.452 96.758 95.866 97.12C96.28 97.484 96.32 98.118 95.958 98.532C91.47 103.634 89 110.194 89 117C89 132.44 101.56 145 117 145C132.44 145 145 132.44 145 117C145 101.56 132.44 89 117 89C111.992 89 107.08 90.336 102.794 92.866C102.324 93.14 101.708 92.988 101.426 92.512C101.144 92.038 101.302 91.424 101.78 91.142C106.372 88.432 111.634 87 117 87C133.542 87 147 100.458 147 117C147 133.542 133.542 147 117 147Z" fill="url(#paint0_linear)"/>
<path d="M117 142C103.214 142 92 130.786 92 117C92 103.214 103.214 92 117 92C130.786 92 142 103.214 142 117C142 130.786 130.786 142 117 142ZM117 94C104.318 94 94 104.318 94 117C94 129.682 104.318 140 117 140C129.682 140 140 129.682 140 117C140 104.318 129.682 94 117 94Z" fill="url(#paint1_linear)"/>
<path d="M126.5 101.54C126.24 101.54 125.98 101.44 125.798 101.26C125.598 101.06 125.5 100.8 125.5 100.54C125.5 100.28 125.6 100.02 125.798 99.8399C126.178 99.4599 126.84 99.4599 127.198 99.8399C127.4 100.02 127.498 100.28 127.498 100.54C127.498 100.8 127.4 101.06 127.2 101.24C127.02 101.44 126.76 101.54 126.5 101.54Z" fill="url(#paint2_linear)"/>
<path d="M107.5 134.458C107.24 134.458 106.98 134.338 106.798 134.16C106.598 133.958 106.5 133.7 106.5 133.458C106.5 133.198 106.6 132.938 106.78 132.74C107.16 132.378 107.84 132.378 108.2 132.74C108.402 132.94 108.5 133.198 108.5 133.458C108.5 133.698 108.4 133.958 108.218 134.16C108.02 134.34 107.76 134.458 107.5 134.458Z" fill="url(#paint3_linear)"/>
<path d="M133.457 108.5C133.197 108.5 132.937 108.4 132.757 108.218C132.557 108.018 132.457 107.76 132.457 107.5C132.457 107.24 132.559 106.98 132.739 106.798C133.137 106.4 133.797 106.42 134.159 106.798C134.339 106.98 134.457 107.24 134.457 107.5C134.457 107.76 134.357 108.02 134.159 108.2C133.979 108.4 133.717 108.5 133.457 108.5Z" fill="url(#paint4_linear)"/>
<path d="M100.539 127.5C100.279 127.5 100.039 127.4 99.8391 127.218C99.6371 127 99.5391 126.74 99.5391 126.5C99.5391 126.24 99.6391 126 99.8211 125.798C100.261 125.4 100.879 125.42 101.261 125.798C101.441 125.98 101.541 126.24 101.541 126.5C101.541 126.76 101.441 127.02 101.261 127.2C101.059 127.4 100.819 127.5 100.539 127.5Z" fill="url(#paint5_linear)"/>
<path d="M136 118C135.74 118 135.48 117.9 135.298 117.7C135.1 117.52 135 117.26 135 117C135 116.74 135.1 116.48 135.298 116.298C135.66 115.92 136.32 115.92 136.698 116.278C136.9 116.48 137 116.74 137 117C137 117.26 136.9 117.52 136.718 117.7C136.52 117.9 136.26 118 136 118Z" fill="url(#paint6_linear)"/>
<path d="M98 118C97.74 118 97.48 117.9 97.298 117.7C97.1 117.52 97 117.26 97 117C97 116.74 97.1 116.48 97.298 116.298C97.66 115.92 98.32 115.92 98.698 116.278C98.9 116.48 99 116.74 99 117C99 117.26 98.9 117.52 98.718 117.7C98.52 117.9 98.26 118 98 118Z" fill="url(#paint7_linear)"/>
<path d="M133.457 127.5C133.197 127.5 132.937 127.4 132.739 127.218C132.559 127.018 132.457 126.76 132.457 126.5C132.457 126.24 132.559 125.98 132.739 125.798C133.137 125.4 133.797 125.42 134.159 125.798C134.339 125.98 134.457 126.24 134.457 126.5C134.457 126.76 134.357 127.02 134.159 127.2C133.979 127.4 133.717 127.5 133.457 127.5Z" fill="url(#paint8_linear)"/>
<path d="M100.539 108.5C100.279 108.5 100.039 108.4 99.8391 108.218C99.6371 108 99.5391 107.74 99.5391 107.5C99.5391 107.24 99.6391 107 99.8211 106.798C100.261 106.4 100.879 106.42 101.261 106.798C101.441 106.98 101.541 107.24 101.541 107.5C101.541 107.76 101.441 108.02 101.261 108.2C101.059 108.4 100.797 108.5 100.539 108.5Z" fill="url(#paint9_linear)"/>
<path d="M126.5 134.458C126.24 134.458 125.98 134.358 125.798 134.178C125.598 133.958 125.5 133.718 125.5 133.458C125.5 133.198 125.6 132.938 125.78 132.74C126.18 132.36 126.822 132.378 127.2 132.74C127.402 132.94 127.5 133.198 127.5 133.458C127.5 133.698 127.4 133.958 127.218 134.16C127.02 134.36 126.76 134.458 126.5 134.458Z" fill="url(#paint10_linear)"/>
<path d="M107.5 101.54C107.24 101.54 106.98 101.44 106.798 101.242C106.6 101.06 106.5 100.798 106.5 100.54C106.5 100.282 106.6 100.02 106.798 99.8398C107.16 99.4598 107.82 99.4598 108.198 99.8198C108.4 100.02 108.498 100.278 108.498 100.538C108.498 100.798 108.4 101.06 108.2 101.24C108 101.44 107.76 101.54 107.5 101.54Z" fill="url(#paint11_linear)"/>
<path d="M117 137C116.74 137 116.5 136.9 116.298 136.718C116.1 136.5 116 136.26 116 136C116 135.74 116.1 135.48 116.28 135.298C116.7 134.9 117.34 134.92 117.7 135.298C117.9 135.48 118 135.74 118 136C118 136.26 117.9 136.52 117.7 136.7C117.52 136.9 117.26 137 117 137Z" fill="url(#paint12_linear)"/>
<path d="M117 98.9999C116.74 98.9999 116.5 98.8999 116.298 98.7179C116.1 98.5199 116 98.2599 116 97.9999C116 97.7179 116.1 97.4799 116.28 97.2979C116.7 96.8999 117.34 96.9199 117.7 97.2979C117.9 97.4799 118 97.7399 118 97.9999C118 98.2599 117.9 98.5199 117.718 98.6999C117.52 98.8999 117.26 98.9999 117 98.9999Z" fill="url(#paint13_linear)"/>
<path d="M129.728 104.272C129.338 103.882 128.704 103.882 128.314 104.272L117.488 115.098C118.19 115.28 118.72 115.81 118.902 116.512L129.728 105.686C130.12 105.294 130.12 104.662 129.728 104.272Z" fill="url(#paint14_linear)"/>
<path d="M116.513 115.098L104.273 102.858C103.883 102.468 103.249 102.468 102.859 102.858C102.469 103.248 102.469 103.882 102.859 104.272L115.099 116.512C115.281 115.81 115.811 115.28 116.513 115.098Z" fill="url(#paint15_linear)"/>
<path d="M117 120C115.346 120 114 118.654 114 117C114 115.346 115.346 114 117 114C118.654 114 120 115.346 120 117C120 118.654 118.654 120 117 120ZM117 116C116.45 116 116 116.45 116 117C116 117.55 116.45 118 117 118C117.55 118 118 117.55 118 117C118 116.45 117.55 116 117 116Z" fill="url(#paint16_linear)"/>
<path d="M100 94C100 94.55 99.55 95 99 95C98.45 95 98 94.55 98 94C98 93.45 98.45 93 99 93C99.55 93 100 93.45 100 94Z" fill="url(#paint17_linear)"/>
<defs>
<filter id="filter0_d" x="0" y="0" width="264" height="264" filterUnits="userSpaceOnUse" color-interpolation-filters="sRGB">
<feFlood flood-opacity="0" result="BackgroundImageFix"/>
<feColorMatrix in="SourceAlpha" type="matrix" values="0 0 0 0 0 0 0 0 0 0 0 0 0 0 0 0 0 0 127 0"/>
<feOffset dx="15" dy="15"/>
<feGaussianBlur stdDeviation="30"/>
<feColorMatrix type="matrix" values="0 0 0 0 0 0 0 0 0 0 0 0 0 0 0 0 0 0 0.05 0"/>
<feBlend mode="normal" in2="BackgroundImageFix" result="effect1_dropShadow"/>
<feBlend mode="normal" in="SourceGraphic" in2="effect1_dropShadow" result="shape"/>
</filter>
<linearGradient id="paint0_linear" x1="96.7917" y1="134.708" x2="135.333" y2="101.375" gradientUnits="userSpaceOnUse">
<stop stop-color="#FF80A4"/>
<stop offset="1" stop-color="#FFA984"/>
</linearGradient>
<linearGradient id="paint1_linear" x1="100.16" y1="131.757" x2="132.278" y2="103.979" gradientUnits="userSpaceOnUse">
<stop stop-color="#FF80A4"/>
<stop offset="1" stop-color="#FFA984"/>
</linearGradient>
<linearGradient id="paint2_linear" x1="125.826" y1="101.133" x2="127.102" y2="100.022" gradientUnits="userSpaceOnUse">
<stop stop-color="#FF80A4"/>
<stop offset="1" stop-color="#FFA984"/>
</linearGradient>
<linearGradient id="paint3_linear" x1="106.826" y1="134.05" x2="108.105" y2="132.938" gradientUnits="userSpaceOnUse">
<stop stop-color="#FF80A4"/>
<stop offset="1" stop-color="#FFA984"/>
</linearGradient>
<linearGradient id="paint4_linear" x1="132.783" y1="108.092" x2="134.064" y2="106.98" gradientUnits="userSpaceOnUse">
<stop stop-color="#FF80A4"/>
<stop offset="1" stop-color="#FFA984"/>
</linearGradient>
<linearGradient id="paint5_linear" x1="99.8658" y1="127.092" x2="101.147" y2="125.979" gradientUnits="userSpaceOnUse">
<stop stop-color="#FF80A4"/>
<stop offset="1" stop-color="#FFA984"/>
</linearGradient>
<linearGradient id="paint6_linear" x1="135.326" y1="117.592" x2="136.605" y2="116.48" gradientUnits="userSpaceOnUse">
<stop stop-color="#FF80A4"/>
<stop offset="1" stop-color="#FFA984"/>
</linearGradient>
<linearGradient id="paint7_linear" x1="97.3264" y1="117.592" x2="98.6045" y2="116.48" gradientUnits="userSpaceOnUse">
<stop stop-color="#FF80A4"/>
<stop offset="1" stop-color="#FFA984"/>
</linearGradient>
<linearGradient id="paint8_linear" x1="132.783" y1="127.092" x2="134.064" y2="125.98" gradientUnits="userSpaceOnUse">
<stop stop-color="#FF80A4"/>
<stop offset="1" stop-color="#FFA984"/>
</linearGradient>
<linearGradient id="paint9_linear" x1="99.8658" y1="108.092" x2="101.147" y2="106.979" gradientUnits="userSpaceOnUse">
<stop stop-color="#FF80A4"/>
<stop offset="1" stop-color="#FFA984"/>
</linearGradient>
<linearGradient id="paint10_linear" x1="125.826" y1="134.049" x2="127.109" y2="132.937" gradientUnits="userSpaceOnUse">
<stop stop-color="#FF80A4"/>
<stop offset="1" stop-color="#FFA984"/>
</linearGradient>
<linearGradient id="paint11_linear" x1="106.826" y1="101.133" x2="108.104" y2="100.022" gradientUnits="userSpaceOnUse">
<stop stop-color="#FF80A4"/>
<stop offset="1" stop-color="#FFA984"/>
</linearGradient>
<linearGradient id="paint12_linear" x1="116.326" y1="136.592" x2="117.607" y2="135.48" gradientUnits="userSpaceOnUse">
<stop stop-color="#FF80A4"/>
<stop offset="1" stop-color="#FFA984"/>
</linearGradient>
<linearGradient id="paint13_linear" x1="116.326" y1="98.5916" x2="117.607" y2="97.4799" gradientUnits="userSpaceOnUse">
<stop stop-color="#FF80A4"/>
<stop offset="1" stop-color="#FFA984"/>
</linearGradient>
<linearGradient id="paint14_linear" x1="119.534" y1="113.945" x2="127.584" y2="106.981" gradientUnits="userSpaceOnUse">
<stop stop-color="#FF80A4"/>
<stop offset="1" stop-color="#FFA984"/>
</linearGradient>
<linearGradient id="paint15_linear" x1="104.842" y1="113.655" x2="113.801" y2="105.907" gradientUnits="userSpaceOnUse">
<stop stop-color="#FF80A4"/>
<stop offset="1" stop-color="#FFA984"/>
</linearGradient>
<linearGradient id="paint16_linear" x1="114.979" y1="118.771" x2="118.833" y2="115.437" gradientUnits="userSpaceOnUse">
<stop stop-color="#FF80A4"/>
<stop offset="1" stop-color="#FFA984"/>
</linearGradient>
<linearGradient id="paint17_linear" x1="98.3264" y1="94.5903" x2="99.6111" y2="93.4792" gradientUnits="userSpaceOnUse">
<stop stop-color="#FF80A4"/>
<stop offset="1" stop-color="#FFA984"/>
</linearGradient>
</defs>
</svg>
