<svg width="264" height="264" viewBox="0 0 264 264" fill="none" xmlns="http://www.w3.org/2000/svg">
<g filter="url(#filter0_d)">
<circle cx="117" cy="117" r="72" fill="white"/>
</g>
<path d="M85.875 94.4163C86.0056 94.3356 88.3051 92.8906 89.6825 90.3369C90.2333 91.3578 91.0364 92.447 92.1922 93.2891C91.4856 94.0755 90.5473 95.2872 89.8112 96.8345C89.7214 96.66 89.6245 96.483 89.52 96.3041C89.2248 95.7991 88.5767 95.6286 88.072 95.9239C87.5673 96.2189 87.3972 96.8672 87.692 97.372C88.5717 98.8777 88.8014 100.251 88.8031 100.261C88.8823 100.772 89.3191 101.151 89.8359 101.157C89.8403 101.157 89.8448 101.157 89.8492 101.157C90.3603 101.157 90.7995 100.791 90.8908 100.287C91.5781 96.4855 94.5592 93.9041 94.5877 93.8799C94.8639 93.6459 95.0017 93.2872 94.9527 92.9286C94.9037 92.5698 94.6747 92.2613 94.3458 92.11C91.36 90.7384 90.6616 86.9374 90.6553 86.9017C90.5664 86.3791 90.107 86.0055 89.5739 86.0211C89.0436 86.04 88.6094 86.4488 88.5581 86.9767C88.2244 90.4183 84.7959 92.5945 84.7614 92.6161C84.2656 92.9238 84.112 93.5747 84.4186 94.0714C84.725 94.5688 85.3772 94.7231 85.875 94.4163Z" fill="url(#paint0_linear)"/>
<path d="M114.965 114.235C114.38 114.235 113.906 114.709 113.906 115.293V119.166C113.906 119.75 114.38 120.224 114.965 120.224C115.549 120.224 116.023 119.75 116.023 119.166V115.293C116.023 114.709 115.55 114.235 114.965 114.235Z" fill="url(#paint1_linear)"/>
<path d="M148.806 115.396L137.902 109.777C137.873 109.758 137.844 109.738 137.812 109.721L128.648 104.839C128.132 104.564 127.491 104.759 127.217 105.275C126.942 105.791 127.137 106.432 127.653 106.707L135.114 110.682L115.016 122.157L94.9464 110.688L102.418 106.707C102.934 106.432 103.129 105.791 102.854 105.275C102.58 104.759 101.938 104.564 101.422 104.839L92.4119 109.639C92.1566 109.713 91.9281 109.881 91.786 110.13C91.4961 110.638 91.6727 111.284 92.1803 111.574L112.888 123.397L104.054 128.119L83.8819 116.393L88.8488 113.833C89.3685 113.565 89.5725 112.927 89.3047 112.407C89.0369 111.888 88.3991 111.685 87.8788 111.951L81.1947 115.396C80.8511 115.573 80.6314 115.923 80.6214 116.31C80.6117 116.697 80.8135 117.058 81.1477 117.252L103.5 130.246C103.665 130.342 103.848 130.39 104.032 130.39C104.204 130.39 104.375 130.348 104.531 130.265L113.907 125.253V149.017L93.8146 137.534V128.548C93.8146 127.964 93.3406 127.489 92.7561 127.489C92.1716 127.489 91.6977 127.964 91.6977 128.548V138.149C91.6977 138.529 91.9011 138.879 92.231 139.068L114.151 151.595C114.23 151.69 114.324 151.773 114.434 151.836C114.598 151.932 114.782 151.979 114.965 151.979C114.989 151.979 115.012 151.976 115.035 151.975C115.059 151.977 115.082 151.979 115.105 151.979C115.289 151.979 115.473 151.932 115.637 151.836C115.747 151.773 115.841 151.69 115.919 151.595L137.84 139.068C138.169 138.879 138.373 138.529 138.373 138.149V128.688C138.373 128.103 137.899 127.629 137.315 127.629C136.73 127.629 136.256 128.103 136.256 128.688V137.534L116.164 149.017V123.961L137.332 111.865L146.118 116.393L125.946 128.119L120.875 125.408C120.36 125.134 119.719 125.327 119.443 125.843C119.167 126.358 119.362 126.999 119.877 127.275L125.469 130.265C125.625 130.348 125.796 130.39 125.968 130.39C126.152 130.39 126.336 130.342 126.5 130.246L148.853 117.252C149.187 117.058 149.389 116.697 149.379 116.31C149.369 115.924 149.149 115.573 148.806 115.396Z" fill="url(#paint2_linear)"/>
<path d="M97.2661 95.5141C97.2717 95.5477 97.2806 95.5804 97.2895 95.6135C97.2981 95.6457 97.3064 95.6776 97.318 95.7085C97.33 95.7407 97.3453 95.7715 97.3605 95.8026C97.3753 95.8329 97.3898 95.863 97.4075 95.8918C97.4244 95.9193 97.4442 95.9452 97.4639 95.9713C97.4864 96.0015 97.5092 96.031 97.5348 96.0587C97.5428 96.0673 97.5483 96.0771 97.5565 96.0854L114.214 112.851C114.214 112.851 114.215 112.851 114.215 112.851C114.221 112.858 114.228 112.863 114.234 112.869C114.277 112.909 114.322 112.947 114.37 112.98C114.373 112.982 114.376 112.985 114.38 112.987C114.431 113.021 114.486 113.049 114.542 113.074C114.549 113.077 114.556 113.081 114.563 113.084C114.565 113.084 114.566 113.086 114.568 113.086C114.578 113.09 114.589 113.092 114.599 113.096C114.641 113.111 114.683 113.124 114.726 113.134C114.738 113.136 114.749 113.141 114.76 113.143C114.768 113.145 114.776 113.145 114.784 113.146C114.843 113.157 114.902 113.163 114.963 113.164C114.964 113.164 114.964 113.164 114.965 113.164C114.965 113.164 114.965 113.164 114.965 113.164H114.965C114.966 113.164 114.967 113.164 114.968 113.164C115.028 113.163 115.087 113.157 115.146 113.146C115.154 113.145 115.162 113.145 115.17 113.143C115.182 113.141 115.193 113.136 115.204 113.133C115.247 113.123 115.289 113.111 115.33 113.096C115.341 113.092 115.352 113.09 115.363 113.086C115.365 113.085 115.366 113.084 115.367 113.083C115.375 113.08 115.381 113.076 115.388 113.073C115.445 113.049 115.499 113.021 115.55 112.987C115.552 112.986 115.553 112.985 115.555 112.984C115.556 112.983 115.556 112.982 115.558 112.981C115.559 112.98 115.56 112.979 115.562 112.978C115.61 112.945 115.654 112.908 115.696 112.868C115.702 112.862 115.71 112.857 115.716 112.851C115.716 112.851 115.716 112.851 115.716 112.851L132.374 96.0851C132.382 96.0768 132.387 96.067 132.395 96.0585C132.421 96.0309 132.444 96.0012 132.466 95.971C132.486 95.9449 132.506 95.919 132.523 95.8916C132.54 95.8627 132.555 95.8324 132.57 95.802C132.585 95.7709 132.6 95.7402 132.612 95.7082C132.624 95.677 132.632 95.6449 132.641 95.6126C132.65 95.5798 132.659 95.5473 132.664 95.5138C132.67 95.4807 132.672 95.4471 132.674 95.4132C132.677 95.3787 132.679 95.3446 132.678 95.3099C132.677 95.278 132.673 95.2463 132.669 95.2143C132.665 95.176 132.659 95.1385 132.65 95.1009C132.647 95.0879 132.647 95.0749 132.644 95.062C132.64 95.0449 132.631 95.0301 132.625 95.0134C132.614 94.9762 132.6 94.9398 132.584 94.904C132.57 94.8741 132.555 94.8455 132.539 94.8174C132.522 94.7871 132.504 94.7576 132.483 94.7287C132.462 94.699 132.44 94.671 132.416 94.644C132.404 94.6302 132.395 94.6149 132.382 94.6016L125.351 87.3545C125.152 87.1493 124.878 87.0332 124.592 87.0332H105.338C105.052 87.0332 104.778 87.1493 104.579 87.3545L97.548 94.6016C97.5355 94.6145 97.5272 94.6293 97.5155 94.6426C97.4909 94.6704 97.468 94.6991 97.4464 94.7298C97.4266 94.7579 97.4084 94.7865 97.3915 94.8159C97.3751 94.8448 97.3598 94.8741 97.3459 94.9049C97.3301 94.9402 97.3167 94.9757 97.305 95.0121C97.2995 95.0291 97.2908 95.0441 97.2861 95.0616C97.2825 95.0748 97.2826 95.0879 97.2795 95.1012C97.2709 95.1385 97.2653 95.176 97.2608 95.2138C97.2569 95.2462 97.2531 95.278 97.2522 95.3101C97.2512 95.3446 97.2534 95.3788 97.2559 95.4134C97.2584 95.4477 97.2606 95.4812 97.2661 95.5141ZM114.965 109.286L111.125 99.8065H114.965H118.805L114.965 109.286ZM105.786 89.1509H124.144L129.613 94.788L124.229 96.249L121.314 90.6955C121.042 90.1779 120.402 89.9791 119.884 90.2504C119.367 90.5221 119.167 91.1618 119.439 91.6795L122.749 97.9848C122.936 98.3395 123.301 98.5512 123.687 98.5512C123.779 98.5512 123.872 98.5393 123.964 98.5143L128.088 97.3952L117.921 107.629L121.358 99.1454C121.49 98.819 121.451 98.4484 121.254 98.1563C121.057 97.8645 120.729 97.6895 120.377 97.6895H114.965H109.554C109.202 97.6895 108.873 97.8646 108.677 98.1563C108.48 98.4484 108.441 98.819 108.573 99.1454L112.01 107.629L101.842 97.3952L105.967 98.5143C106.059 98.5393 106.152 98.5512 106.244 98.5512C106.63 98.5512 106.995 98.3395 107.181 97.9848L110.492 91.6795C110.763 91.1618 110.564 90.522 110.046 90.2504C109.529 89.979 108.889 90.1777 108.617 90.6955L105.702 96.249L100.318 94.788L105.786 89.1509Z" fill="url(#paint3_linear)"/>
<path d="M135.516 101.68C135.647 101.599 137.946 100.154 139.323 97.6003C139.874 98.6213 140.677 99.7105 141.833 100.553C141.127 101.339 140.188 102.55 139.452 104.098C139.362 103.923 139.265 103.746 139.161 103.567C138.866 103.062 138.218 102.892 137.713 103.187C137.208 103.482 137.038 104.13 137.333 104.635C138.213 106.141 138.442 107.514 138.444 107.525C138.523 108.035 138.96 108.414 139.477 108.421C139.481 108.421 139.485 108.421 139.49 108.421C140.001 108.421 140.44 108.055 140.531 107.551C141.219 103.749 144.2 101.167 144.228 101.143C144.505 100.909 144.642 100.55 144.593 100.192C144.544 99.8331 144.315 99.5244 143.986 99.3731C141.001 98.0017 140.302 94.2005 140.296 94.165C140.207 93.6419 139.749 93.2713 139.215 93.2844C138.684 93.3033 138.25 93.7121 138.199 94.24C137.865 97.6814 134.437 99.8578 134.402 99.8794C133.906 100.187 133.753 100.838 134.059 101.335C134.366 101.832 135.018 101.986 135.516 101.68Z" fill="url(#paint4_linear)"/>
<defs>
<filter id="filter0_d" x="0" y="0" width="264" height="264" filterUnits="userSpaceOnUse" color-interpolation-filters="sRGB">
<feFlood flood-opacity="0" result="BackgroundImageFix"/>
<feColorMatrix in="SourceAlpha" type="matrix" values="0 0 0 0 0 0 0 0 0 0 0 0 0 0 0 0 0 0 127 0"/>
<feOffset dx="15" dy="15"/>
<feGaussianBlur stdDeviation="30"/>
<feColorMatrix type="matrix" values="0 0 0 0 0 0 0 0 0 0 0 0 0 0 0 0 0 0 0.05 0"/>
<feBlend mode="normal" in2="BackgroundImageFix" result="effect1_dropShadow"/>
<feBlend mode="normal" in="SourceGraphic" in2="effect1_dropShadow" result="shape"/>
</filter>
<linearGradient id="paint0_linear" x1="86.0072" y1="98.0564" x2="94.7534" y2="92.7085" gradientUnits="userSpaceOnUse">
<stop stop-color="#FF80A4"/>
<stop offset="1" stop-color="#FFA984"/>
</linearGradient>
<linearGradient id="paint1_linear" x1="114.252" y1="118.997" x2="116.426" y2="118.333" gradientUnits="userSpaceOnUse">
<stop stop-color="#FF80A4"/>
<stop offset="1" stop-color="#FFA984"/>
</linearGradient>
<linearGradient id="paint2_linear" x1="91.842" y1="142.297" x2="121.732" y2="104.69" gradientUnits="userSpaceOnUse">
<stop stop-color="#FF80A4"/>
<stop offset="1" stop-color="#FFA984"/>
</linearGradient>
<linearGradient id="paint3_linear" x1="103.033" y1="107.811" x2="119.783" y2="88.1708" gradientUnits="userSpaceOnUse">
<stop stop-color="#FF80A4"/>
<stop offset="1" stop-color="#FFA984"/>
</linearGradient>
<linearGradient id="paint4_linear" x1="135.648" y1="105.32" x2="144.394" y2="99.9718" gradientUnits="userSpaceOnUse">
<stop stop-color="#FF80A4"/>
<stop offset="1" stop-color="#FFA984"/>
</linearGradient>
</defs>
</svg>
