<svg width="44" height="44" viewBox="0 0 44 44" fill="none" xmlns="http://www.w3.org/2000/svg">
<circle cx="22" cy="22" r="22" fill="url(#paint0_linear)"/>
<path d="M21.4282 16.9521C18.0949 16.9521 15.333 19.6664 15.333 23.0474C15.333 26.4283 18.0473 29.1426 21.4282 29.1426C24.8092 29.1426 27.5235 26.3807 27.5235 23.0474C27.5235 19.7141 24.7616 16.9521 21.4282 16.9521ZM21.4282 26.9521C19.2854 26.9521 17.5235 25.1902 17.5235 23.0474C17.5235 20.9045 19.2854 19.1426 21.4282 19.1426C23.5711 19.1426 25.333 20.9045 25.333 23.0474C25.333 25.1902 23.5711 26.9521 21.4282 26.9521Z" fill="white"/>
<path d="M27.7618 18.1906C28.5245 18.1906 29.1428 17.5723 29.1428 16.8097C29.1428 16.047 28.5245 15.4287 27.7618 15.4287C26.9991 15.4287 26.3809 16.047 26.3809 16.8097C26.3809 17.5723 26.9991 18.1906 27.7618 18.1906Z" fill="white"/>
<path d="M31.3334 13.238C30.0953 11.9523 28.3334 11.2856 26.3334 11.2856H16.5239C12.381 11.2856 9.61914 14.0475 9.61914 18.1904V27.9523C9.61914 29.9999 10.2858 31.7618 11.6191 33.0476C12.9049 34.2856 14.6191 34.9047 16.5715 34.9047H26.2858C28.3334 34.9047 30.0477 34.238 31.2858 33.0476C32.5715 31.8095 33.2382 30.0476 33.2382 27.9999V18.1904C33.2382 16.1904 32.5715 14.4761 31.3334 13.238ZM31.1429 27.9999C31.1429 29.4761 30.6191 30.6666 29.762 31.4761C28.9049 32.2856 27.7144 32.7142 26.2858 32.7142H16.5715C15.143 32.7142 13.9525 32.2856 13.0953 31.4761C12.2382 30.619 11.8096 29.4285 11.8096 27.9523V18.1904C11.8096 16.7618 12.2382 15.5714 13.0953 14.7142C13.9049 13.9047 15.143 13.4761 16.5715 13.4761H26.381C27.8096 13.4761 29.0001 13.9047 29.8572 14.7618C30.6668 15.619 31.1429 16.8095 31.1429 18.1904V27.9999Z" fill="white"/>
<defs>
<linearGradient id="paint0_linear" x1="7.18056" y1="34.9861" x2="35.4444" y2="10.5417" gradientUnits="userSpaceOnUse">
<stop stop-color="#FF80A4"/>
<stop offset="1" stop-color="#FFA984"/>
</linearGradient>
</defs>
</svg>
