<svg width="30" height="30" viewBox="0 0 30 30" fill="none" xmlns="http://www.w3.org/2000/svg">
<filter id="login-filter">
       <!-- make-filter -->
    </filter>
<rect x="-0.5" y="0.5" width="29" height="29" rx="14.5" transform="matrix(-1 0 0 1 29 0)" stroke="#535353"/>
<path d="M14.5 7.41675C12.5471 7.41675 10.9583 9.00554 10.9583 10.9584C10.9583 12.9113 12.5471 14.5001 14.5 14.5001C16.4529 14.5001 18.0417 12.9113 18.0417 10.9584C18.0417 9.00554 16.4529 7.41675 14.5 7.41675ZM14.5 13.0834C13.3284 13.0834 12.375 12.13 12.375 10.9584C12.375 9.78683 13.3284 8.83341 14.5 8.83341C15.6716 8.83341 16.625 9.78683 16.625 10.9584C16.625 12.13 15.6716 13.0834 14.5 13.0834ZM20.875 20.8751V20.1667C20.875 17.4333 18.6501 15.2084 15.9167 15.2084H13.0833C10.3492 15.2084 8.125 17.4333 8.125 20.1667V20.8751H9.54167V20.1667C9.54167 18.2139 11.1305 16.6251 13.0833 16.6251H15.9167C17.8695 16.6251 19.4583 18.2139 19.4583 20.1667V20.8751H20.875Z" fill="#535353"/>
</svg>
