<svg width="24" height="24" viewBox="0 0 24 24" fill="none" xmlns="http://www.w3.org/2000/svg">
<path d="M17.7073 12.2928C17.3163 11.9018 16.6843 11.9018 16.2933 12.2928L14.6993 13.8868C13.9603 13.6668 12.5813 13.1668 11.7073 12.2928C10.8333 11.4188 10.3333 10.0398 10.1133 9.30076L11.7073 7.70676C12.0983 7.31576 12.0983 6.68376 11.7073 6.29276L7.70733 2.29276C7.31633 1.90176 6.68433 1.90176 6.29333 2.29276L3.58133 5.00476C3.20133 5.38476 2.98733 5.90676 2.99533 6.43976C3.01833 7.86376 3.39533 12.8098 7.29333 16.7078C11.1913 20.6058 16.1373 20.9818 17.5623 21.0058C17.5673 21.0058 17.5853 21.0058 17.5903 21.0058C18.1183 21.0058 18.6173 20.7978 18.9953 20.4198L21.7073 17.7078C22.0983 17.3168 22.0983 16.6848 21.7073 16.2938L17.7073 12.2928ZM17.5803 19.0048C16.3323 18.9838 12.0623 18.6488 8.70733 15.2928C5.34133 11.9268 5.01533 7.64176 4.99533 6.41876L7.00033 4.41376L9.58633 6.99976L8.29333 8.29276C8.05433 8.53076 7.95233 8.87476 8.02133 9.20476C8.04533 9.31976 8.63233 12.0468 10.2923 13.7068C11.9523 15.3668 14.6793 15.9538 14.7943 15.9778C15.1273 16.0488 15.4683 15.9458 15.7063 15.7068L17.0003 14.4138L19.5863 16.9998L17.5803 19.0048Z" fill="url(#paint0_linear)"/>
<defs>
<linearGradient id="paint0_linear" x1="6.0967" y1="17.1121" x2="18.3055" y2="6.55359" gradientUnits="userSpaceOnUse">
<stop stop-color="#FF80A4"/>
<stop offset="1" stop-color="#FFA984"/>
</linearGradient>
</defs>
</svg>
