<svg width="44" height="44" viewBox="0 0 44 44" fill="none" xmlns="http://www.w3.org/2000/svg">
<circle cx="22" cy="22" r="22" fill="url(#paint0_linear)"/>
<path d="M32.9341 15.75H28.821C28.6531 15.75 28.4883 15.7955 28.3443 15.8817C28.2002 15.9679 28.0822 16.0915 28.0028 16.2394C28.0028 16.2394 26.3624 19.2606 25.8354 20.2782C24.4178 23.0156 23.4999 22.1562 23.4999 20.8858V16.5052C23.4999 16.1391 23.3544 15.7881 23.0956 15.5292C22.8368 15.2704 22.4857 15.125 22.1197 15.125H19.0272C18.606 15.0937 18.1838 15.1705 17.8008 15.3483C17.4177 15.5261 17.0864 15.7988 16.8384 16.1406C16.8384 16.1406 18.4087 15.8867 18.4087 18.0026C18.4087 18.5273 18.4358 20.0366 18.4604 21.3026C18.465 21.4891 18.4123 21.6726 18.3094 21.8283C18.2064 21.9839 18.0582 22.1042 17.8847 22.173C17.7112 22.2417 17.5208 22.2555 17.3392 22.2126C17.1576 22.1697 16.9935 22.0721 16.8691 21.933C15.6033 20.1725 14.5548 18.2655 13.7464 16.2535C13.6769 16.103 13.5658 15.9755 13.4261 15.8863C13.2865 15.7971 13.1241 15.7497 12.9584 15.75C12.0664 15.75 10.2814 15.75 9.22135 15.75C9.11856 15.7493 9.01713 15.7736 8.92579 15.8207C8.83444 15.8678 8.75591 15.9365 8.69693 16.0207C8.63796 16.1048 8.6003 16.2021 8.58721 16.3041C8.57411 16.406 8.58596 16.5096 8.62174 16.606C9.75648 19.7186 14.6446 29.5 20.2238 29.5H22.5721C22.8182 29.5 23.0542 29.4022 23.2281 29.2282C23.4021 29.0543 23.4999 28.8183 23.4999 28.5722V27.1543C23.4999 26.9764 23.5519 26.8024 23.6496 26.6537C23.7473 26.505 23.8863 26.3882 24.0496 26.3176C24.2128 26.2469 24.3932 26.2256 24.5684 26.2562C24.7436 26.2869 24.9061 26.3681 25.0357 26.4899L27.8465 29.1308C28.0989 29.3679 28.4322 29.5 28.7786 29.5H32.4696C34.2498 29.5 34.2498 28.2647 33.2792 27.3088C32.5962 26.6361 30.1313 24.038 30.1313 24.038C29.9202 23.8193 29.7944 23.5324 29.7764 23.229C29.7584 22.9256 29.8496 22.6258 30.0334 22.3837C30.8301 21.3353 32.1332 19.619 32.6859 18.8838C33.4413 17.8789 34.8085 15.75 32.9341 15.75Z" fill="white"/>
<defs>
<linearGradient id="paint0_linear" x1="7.18056" y1="34.9861" x2="35.4444" y2="10.5417" gradientUnits="userSpaceOnUse">
<stop stop-color="#FF80A4"/>
<stop offset="1" stop-color="#FFA984"/>
</linearGradient>
</defs>
</svg>
