<svg width="40" height="86" viewBox="0 0 40 86" fill="none" xmlns="http://www.w3.org/2000/svg">
<path d="M38.0839 0.999994H39.0839V-5.72205e-06H38.0839V0.999994ZM38.0839 85V86H39.0839V85H38.0839ZM18.6439 85H17.6439V86H18.6439V85ZM18.6439 16.6H19.6439V15.6H18.6439V16.6ZM1.84391 16.6H0.843906V17.6H1.84391V16.6ZM1.84391 0.999994V-5.72205e-06H0.843906V0.999994H1.84391ZM37.0839 0.999994V85H39.0839V0.999994H37.0839ZM38.0839 84H18.6439V86H38.0839V84ZM19.6439 85V16.6H17.6439V85H19.6439ZM18.6439 15.6H1.84391V17.6H18.6439V15.6ZM2.84391 16.6V0.999994H0.843906V16.6H2.84391ZM1.84391 1.99999H38.0839V-5.72205e-06H1.84391V1.99999Z" fill="#535353"/>
</svg>
