<svg width="144" height="98" viewBox="0 0 144 98" fill="none" xmlns="http://www.w3.org/2000/svg">
<path d="M24.72 22V78H11.76V32.4H0.56V22H24.72ZM58.4481 78.96C53.8081 78.96 49.6748 77.8133 46.0481 75.52C42.4215 73.2267 39.5681 69.92 37.4881 65.6C35.4615 61.2267 34.4481 56.0267 34.4481 50C34.4481 43.9733 35.4615 38.8 37.4881 34.48C39.5681 30.1067 42.4215 26.7733 46.0481 24.48C49.6748 22.1867 53.8081 21.04 58.4481 21.04C63.0881 21.04 67.2215 22.1867 70.8481 24.48C74.4748 26.7733 77.3015 30.1067 79.3281 34.48C81.4081 38.8 82.4481 43.9733 82.4481 50C82.4481 56.0267 81.4081 61.2267 79.3281 65.6C77.3015 69.92 74.4748 73.2267 70.8481 75.52C67.2215 77.8133 63.0881 78.96 58.4481 78.96ZM58.4481 68C61.8615 68 64.5281 66.5333 66.4481 63.6C68.4215 60.6667 69.4081 56.1333 69.4081 50C69.4081 43.8667 68.4215 39.3333 66.4481 36.4C64.5281 33.4667 61.8615 32 58.4481 32C55.0881 32 52.4215 33.4667 50.4481 36.4C48.5281 39.3333 47.5681 43.8667 47.5681 50C47.5681 56.1333 48.5281 60.6667 50.4481 63.6C52.4215 66.5333 55.0881 68 58.4481 68ZM112.745 78.96C108.105 78.96 103.972 77.8133 100.345 75.52C96.7183 73.2267 93.865 69.92 91.785 65.6C89.7583 61.2267 88.745 56.0267 88.745 50C88.745 43.9733 89.7583 38.8 91.785 34.48C93.865 30.1067 96.7183 26.7733 100.345 24.48C103.972 22.1867 108.105 21.04 112.745 21.04C117.385 21.04 121.518 22.1867 125.145 24.48C128.772 26.7733 131.598 30.1067 133.625 34.48C135.705 38.8 136.745 43.9733 136.745 50C136.745 56.0267 135.705 61.2267 133.625 65.6C131.598 69.92 128.772 73.2267 125.145 75.52C121.518 77.8133 117.385 78.96 112.745 78.96ZM112.745 68C116.158 68 118.825 66.5333 120.745 63.6C122.718 60.6667 123.705 56.1333 123.705 50C123.705 43.8667 122.718 39.3333 120.745 36.4C118.825 33.4667 116.158 32 112.745 32C109.385 32 106.718 33.4667 104.745 36.4C102.825 39.3333 101.865 43.8667 101.865 50C101.865 56.1333 102.825 60.6667 104.745 63.6C106.718 66.5333 109.385 68 112.745 68Z" fill="url(#paint0_linear)"/>
<path d="M28.72 22H29.72V21H28.72V22ZM28.72 78V79H29.72V78H28.72ZM15.76 78H14.76V79H15.76V78ZM15.76 32.4H16.76V31.4H15.76V32.4ZM4.56 32.4H3.56V33.4H4.56V32.4ZM4.56 22V21H3.56V22H4.56ZM27.72 22V78H29.72V22H27.72ZM28.72 77H15.76V79H28.72V77ZM16.76 78V32.4H14.76V78H16.76ZM15.76 31.4H4.56V33.4H15.76V31.4ZM5.56 32.4V22H3.56V32.4H5.56ZM4.56 23H28.72V21H4.56V23ZM50.0481 75.52L50.5826 74.6748L50.0481 75.52ZM41.4881 65.6L40.5808 66.0205L40.5839 66.0272L40.5871 66.0338L41.4881 65.6ZM41.4881 34.48L40.585 34.0505L40.5828 34.0553L41.4881 34.48ZM50.0481 24.48L50.5826 25.3252L50.0481 24.48ZM74.8481 24.48L74.3137 25.3252L74.8481 24.48ZM83.3281 34.48L82.4208 34.9005L82.4239 34.9072L82.4271 34.9138L83.3281 34.48ZM83.3281 65.6L82.425 65.1705L82.4228 65.1753L83.3281 65.6ZM74.8481 75.52L74.3137 74.6748L74.8481 75.52ZM70.4481 63.6L69.6183 63.0418L69.6114 63.0523L70.4481 63.6ZM70.4481 36.4L69.6114 36.9477L69.6184 36.9582L70.4481 36.4ZM54.4481 36.4L53.6183 35.8418L53.6114 35.8523L54.4481 36.4ZM54.4481 63.6L53.6114 64.1477L53.6184 64.1582L54.4481 63.6ZM62.4481 77.96C57.9813 77.96 54.0363 76.8588 50.5826 74.6748L49.5137 76.3652C53.3133 78.7679 57.6349 79.96 62.4481 79.96V77.96ZM50.5826 74.6748C47.1323 72.493 44.3977 69.3378 42.3891 65.1662L40.5871 66.0338C42.7385 70.5022 45.7106 73.9603 49.5137 76.3652L50.5826 74.6748ZM42.3954 65.1795C40.4431 60.9666 39.4481 55.9168 39.4481 50H37.4481C37.4481 56.1366 38.4798 61.4867 40.5808 66.0205L42.3954 65.1795ZM39.4481 50C39.4481 44.0827 40.4433 39.0616 42.3935 34.9047L40.5828 34.0553C38.4796 38.5383 37.4481 43.864 37.4481 50H39.4481ZM42.3912 34.9095C44.4008 30.6842 47.1355 27.505 50.5826 25.3252L49.5137 23.6348C45.7075 26.0417 42.7355 29.5291 40.5851 34.0505L42.3912 34.9095ZM50.5826 25.3252C54.0363 23.1412 57.9813 22.04 62.4481 22.04V20.04C57.6349 20.04 53.3133 21.2321 49.5137 23.6348L50.5826 25.3252ZM62.4481 22.04C66.9149 22.04 70.8599 23.1412 74.3137 25.3252L75.3826 23.6348C71.583 21.2321 67.2613 20.04 62.4481 20.04V22.04ZM74.3137 25.3252C77.7583 27.5034 80.4647 30.6794 82.4208 34.9005L84.2354 34.0595C82.1382 29.5339 79.1913 26.0433 75.3826 23.6348L74.3137 25.3252ZM82.4271 34.9138C84.4274 39.0683 85.4481 44.086 85.4481 50H87.4481C87.4481 43.8607 86.3888 38.5317 84.2291 34.0462L82.4271 34.9138ZM85.4481 50C85.4481 55.9135 84.4276 60.96 82.4251 65.1705L84.2312 66.0295C86.3887 61.4933 87.4481 56.1398 87.4481 50H85.4481ZM82.4228 65.1753C80.4678 69.3426 77.7614 72.4946 74.3137 74.6748L75.3826 76.3652C79.1881 73.9587 82.1352 70.4974 84.2335 66.0247L82.4228 65.1753ZM74.3137 74.6748C70.8599 76.8588 66.9149 77.96 62.4481 77.96V79.96C67.2613 79.96 71.583 78.7679 75.3826 76.3652L74.3137 74.6748ZM62.4481 69C66.2097 69 69.1861 67.354 71.2848 64.1477L69.6114 63.0523C67.8701 65.7126 65.5132 67 62.4481 67V69ZM71.2778 64.1582C73.4172 60.978 74.4081 56.203 74.4081 50H72.4081C72.4081 56.0636 71.4257 60.3553 69.6184 63.0418L71.2778 64.1582ZM74.4081 50C74.4081 43.797 73.4172 39.022 71.2778 35.8418L69.6184 36.9582C71.4257 39.6447 72.4081 43.9364 72.4081 50H74.4081ZM71.2848 35.8523C69.1861 32.646 66.2097 31 62.4481 31V33C65.5132 33 67.8701 34.2874 69.6114 36.9477L71.2848 35.8523ZM62.4481 31C58.7351 31 55.766 32.6495 53.6184 35.8418L55.2778 36.9582C57.0769 34.2838 59.4412 33 62.4481 33V31ZM53.6114 35.8523C51.5315 39.0299 50.5681 43.8002 50.5681 50H52.5681C52.5681 43.9332 53.5247 39.6367 55.2848 36.9477L53.6114 35.8523ZM50.5681 50C50.5681 56.1998 51.5315 60.9701 53.6114 64.1477L55.2848 63.0523C53.5247 60.3633 52.5681 56.0668 52.5681 50H50.5681ZM53.6184 64.1582C55.766 67.3505 58.7351 69 62.4481 69V67C59.4412 67 57.0769 65.7161 55.2778 63.0418L53.6184 64.1582ZM104.345 75.52L104.879 74.6748L104.345 75.52ZM95.785 65.6L94.8777 66.0205L94.8808 66.0272L94.884 66.0338L95.785 65.6ZM95.785 34.48L94.8819 34.0505L94.8797 34.0553L95.785 34.48ZM104.345 24.48L104.879 25.3252L104.345 24.48ZM129.145 24.48L128.611 25.3252L129.145 24.48ZM137.625 34.48L136.718 34.9005L136.721 34.9072L136.724 34.9138L137.625 34.48ZM137.625 65.6L136.722 65.1705L136.72 65.1753L137.625 65.6ZM129.145 75.52L128.611 74.6748L129.145 75.52ZM124.745 63.6L123.915 63.0418L123.908 63.0523L124.745 63.6ZM124.745 36.4L123.908 36.9477L123.915 36.9582L124.745 36.4ZM108.745 36.4L107.915 35.8418L107.908 35.8523L108.745 36.4ZM108.745 63.6L107.908 64.1477L107.915 64.1582L108.745 63.6ZM116.745 77.96C112.278 77.96 108.333 76.8588 104.879 74.6748L103.811 76.3652C107.61 78.7679 111.932 79.96 116.745 79.96V77.96ZM104.879 74.6748C101.429 72.493 98.6946 69.3378 96.686 65.1662L94.884 66.0338C97.0354 70.5022 100.007 73.9603 103.811 76.3652L104.879 74.6748ZM96.6923 65.1795C94.74 60.9666 93.745 55.9168 93.745 50H91.745C91.745 56.1366 92.7767 61.4867 94.8777 66.0205L96.6923 65.1795ZM93.745 50C93.745 44.0827 94.7402 39.0616 96.6903 34.9047L94.8797 34.0553C92.7765 38.5383 91.745 43.864 91.745 50H93.745ZM96.6881 34.9095C98.6977 30.6842 101.432 27.505 104.879 25.3252L103.811 23.6348C100.004 26.0417 97.0323 29.5291 94.8819 34.0505L96.6881 34.9095ZM104.879 25.3252C108.333 23.1412 112.278 22.04 116.745 22.04V20.04C111.932 20.04 107.61 21.2321 103.811 23.6348L104.879 25.3252ZM116.745 22.04C121.212 22.04 125.157 23.1412 128.611 25.3252L129.679 23.6348C125.88 21.2321 121.558 20.04 116.745 20.04V22.04ZM128.611 25.3252C132.055 27.5034 134.762 30.6794 136.718 34.9005L138.532 34.0595C136.435 29.5339 133.488 26.0433 129.679 23.6348L128.611 25.3252ZM136.724 34.9138C138.724 39.0683 139.745 44.086 139.745 50H141.745C141.745 43.8607 140.686 38.5317 138.526 34.0462L136.724 34.9138ZM139.745 50C139.745 55.9135 138.724 60.96 136.722 65.1705L138.528 66.0295C140.686 61.4933 141.745 56.1398 141.745 50H139.745ZM136.72 65.1753C134.765 69.3426 132.058 72.4946 128.611 74.6748L129.679 76.3652C133.485 73.9587 136.432 70.4974 138.53 66.0247L136.72 65.1753ZM128.611 74.6748C125.157 76.8588 121.212 77.96 116.745 77.96V79.96C121.558 79.96 125.88 78.7679 129.679 76.3652L128.611 74.6748ZM116.745 69C120.507 69 123.483 67.354 125.582 64.1477L123.908 63.0523C122.167 65.7126 119.81 67 116.745 67V69ZM125.575 64.1582C127.714 60.978 128.705 56.203 128.705 50H126.705C126.705 56.0636 125.723 60.3553 123.915 63.0418L125.575 64.1582ZM128.705 50C128.705 43.797 127.714 39.022 125.575 35.8418L123.915 36.9582C125.723 39.6447 126.705 43.9364 126.705 50H128.705ZM125.582 35.8523C123.483 32.646 120.507 31 116.745 31V33C119.81 33 122.167 34.2874 123.908 36.9477L125.582 35.8523ZM116.745 31C113.032 31 110.063 32.6495 107.915 35.8418L109.575 36.9582C111.374 34.2838 113.738 33 116.745 33V31ZM107.908 35.8523C105.828 39.0299 104.865 43.8002 104.865 50H106.865C106.865 43.9332 107.822 39.6367 109.582 36.9477L107.908 35.8523ZM104.865 50C104.865 56.1998 105.828 60.9701 107.908 64.1477L109.582 63.0523C107.822 60.3633 106.865 56.0668 106.865 50H104.865ZM107.915 64.1582C110.063 67.3505 113.032 69 116.745 69V67C113.738 67 111.374 65.7161 109.575 63.0418L107.915 64.1582Z" fill="white"/>
<defs>
<linearGradient id="paint0_linear" x1="22.8472" y1="77.9236" x2="85.0665" y2="1.05036" gradientUnits="userSpaceOnUse">
<stop stop-color="#FF80A4"/>
<stop offset="1" stop-color="#FFA984"/>
</linearGradient>
</defs>
</svg>
