<svg width="53" height="98" viewBox="0 0 53 98" fill="none" xmlns="http://www.w3.org/2000/svg">
<path d="M30.28 44.8C35.1867 45.6 38.9467 47.44 41.56 50.32C44.1733 53.1467 45.48 56.6667 45.48 60.88C45.48 64.1333 44.6267 67.1467 42.92 69.92C41.2133 72.64 38.6 74.8267 35.08 76.48C31.6133 78.1333 27.3467 78.96 22.28 78.96C18.3333 78.96 14.44 78.4533 10.6 77.44C6.81333 76.3733 3.58667 74.88 0.92 72.96L5.96 63.04C8.09333 64.64 10.5467 65.8933 13.32 66.8C16.1467 67.6533 19.0267 68.08 21.96 68.08C25.2133 68.08 27.7733 67.4667 29.64 66.24C31.5067 64.96 32.44 63.1733 32.44 60.88C32.44 56.2933 28.9467 54 21.96 54H16.04V45.44L27.56 32.4H3.72V22H42.92V30.4L30.28 44.8Z" fill="url(#paint0_linear)"/>
<path d="M34.28 44.8L33.5285 44.1403L32.338 45.4966L34.1191 45.787L34.28 44.8ZM45.56 50.32L44.8194 50.992L44.8257 50.9989L45.56 50.32ZM46.92 69.92L47.7671 70.4515L47.7717 70.4441L46.92 69.92ZM39.08 76.48L38.6549 75.5749L38.6495 75.5774L39.08 76.48ZM14.6 77.44L14.3289 78.4025L14.3368 78.4048L14.3448 78.4069L14.6 77.44ZM4.92 72.96L4.02847 72.507L3.64038 73.2709L4.3357 73.7715L4.92 72.96ZM9.96 63.04L10.56 62.24L9.60767 61.5258L9.06847 62.587L9.96 63.04ZM17.32 66.8L17.0093 67.7505L17.0201 67.754L17.031 67.7573L17.32 66.8ZM33.64 66.24L34.1892 67.0757L34.1974 67.0703L34.2055 67.0647L33.64 66.24ZM20.04 54H19.04V55H20.04V54ZM20.04 45.44L19.2906 44.7779L19.04 45.0615V45.44H20.04ZM31.56 32.4L32.3094 33.0621L33.7778 31.4H31.56V32.4ZM7.72 32.4H6.72V33.4H7.72V32.4ZM7.72 22V21H6.72V22H7.72ZM46.92 22H47.92V21H46.92V22ZM46.92 30.4L47.6715 31.0597L47.92 30.7766V30.4H46.92ZM34.1191 45.787C38.8656 46.5608 42.3961 48.3214 44.8194 50.992L46.3006 49.648C43.4972 46.5586 39.5078 44.6392 34.4409 43.813L34.1191 45.787ZM44.8257 50.9989C47.2515 53.6226 48.48 56.8925 48.48 60.88H50.48C50.48 56.4409 49.0952 52.6707 46.2943 49.6411L44.8257 50.9989ZM48.48 60.88C48.48 63.9481 47.6781 66.78 46.0683 69.3959L47.7717 70.4441C49.5752 67.5133 50.48 64.3186 50.48 60.88H48.48ZM46.0729 69.3885C44.4879 71.9147 42.0382 73.9857 38.6549 75.5749L39.5051 77.3851C43.1618 75.6676 45.9388 73.3653 47.7671 70.4515L46.0729 69.3885ZM38.6495 75.5774C35.3531 77.1496 31.2432 77.96 26.28 77.96V79.96C31.4501 79.96 35.8736 79.1171 39.5105 77.3826L38.6495 75.5774ZM26.28 77.96C22.42 77.96 18.6124 77.4646 14.8552 76.4731L14.3448 78.4069C18.2676 79.4421 22.2467 79.96 26.28 79.96V77.96ZM14.8711 76.4775C11.1753 75.4364 8.05957 73.9883 5.5043 72.1485L4.3357 73.7715C7.11376 75.7717 10.4514 77.3103 14.3289 78.4025L14.8711 76.4775ZM5.81153 73.413L10.8515 63.493L9.06847 62.587L4.02847 72.507L5.81153 73.413ZM9.36 63.84C11.5887 65.5115 14.1417 66.813 17.0093 67.7505L17.6307 65.8495C14.9517 64.9736 12.5979 63.7685 10.56 62.24L9.36 63.84ZM17.031 67.7573C19.9508 68.6388 22.9281 69.08 25.96 69.08V67.08C23.1252 67.08 20.3426 66.6679 17.609 65.8427L17.031 67.7573ZM25.96 69.08C29.3241 69.08 32.1008 68.448 34.1892 67.0757L33.0908 65.4043C31.4458 66.4853 29.1026 67.08 25.96 67.08V69.08ZM34.2055 67.0647C36.3484 65.5953 37.44 63.4978 37.44 60.88H35.44C35.44 62.8488 34.6649 64.3247 33.0745 65.4153L34.2055 67.0647ZM37.44 60.88C37.44 58.2887 36.4281 56.236 34.3688 54.884C32.3829 53.5803 29.5309 53 25.96 53V55C29.3757 55 31.7638 55.5664 33.2712 56.556C34.7052 57.4974 35.44 58.8846 35.44 60.88H37.44ZM25.96 53H20.04V55H25.96V53ZM21.04 54V45.44H19.04V54H21.04ZM20.7894 46.1021L32.3094 33.0621L30.8106 31.7379L19.2906 44.7779L20.7894 46.1021ZM31.56 31.4H7.72V33.4H31.56V31.4ZM8.72 32.4V22H6.72V32.4H8.72ZM7.72 23H46.92V21H7.72V23ZM45.92 22V30.4H47.92V22H45.92ZM46.1685 29.7403L33.5285 44.1403L35.0315 45.4597L47.6715 31.0597L46.1685 29.7403Z" fill="white"/>
<defs>
<linearGradient id="paint0_linear" x1="8.83333" y1="77.9236" x2="54.5298" y2="58.5662" gradientUnits="userSpaceOnUse">
<stop stop-color="#FF80A4"/>
<stop offset="1" stop-color="#FFA984"/>
</linearGradient>
</defs>
</svg>
