<svg width="106" height="98" viewBox="0 0 106 98" fill="none" xmlns="http://www.w3.org/2000/svg">
<path d="M22.32 43.04C30.2133 43.04 36.0267 44.6133 39.76 47.76C43.5467 50.9067 45.44 55.12 45.44 60.4C45.44 63.8133 44.5867 66.9333 42.88 69.76C41.1733 72.5333 38.56 74.7733 35.04 76.48C31.5733 78.1333 27.28 78.96 22.16 78.96C18.2133 78.96 14.32 78.4533 10.48 77.44C6.69333 76.3733 3.46667 74.88 0.8 72.96L5.92 63.04C8.05333 64.64 10.5067 65.8933 13.28 66.8C16.0533 67.6533 18.9067 68.08 21.84 68.08C25.0933 68.08 27.6533 67.44 29.52 66.16C31.3867 64.88 32.32 63.0933 32.32 60.8C32.32 58.4 31.3333 56.5867 29.36 55.36C27.44 54.1333 24.08 53.52 19.28 53.52H4.96L7.84 22H42V32.4H18.64L17.76 43.04H22.32ZM74.6981 78.96C70.0581 78.96 65.9248 77.8133 62.2981 75.52C58.6715 73.2267 55.8181 69.92 53.7381 65.6C51.7115 61.2267 50.6981 56.0267 50.6981 50C50.6981 43.9733 51.7115 38.8 53.7381 34.48C55.8181 30.1067 58.6715 26.7733 62.2981 24.48C65.9248 22.1867 70.0581 21.04 74.6981 21.04C79.3381 21.04 83.4715 22.1867 87.0981 24.48C90.7248 26.7733 93.5515 30.1067 95.5781 34.48C97.6581 38.8 98.6981 43.9733 98.6981 50C98.6981 56.0267 97.6581 61.2267 95.5781 65.6C93.5515 69.92 90.7248 73.2267 87.0981 75.52C83.4715 77.8133 79.3381 78.96 74.6981 78.96ZM74.6981 68C78.1115 68 80.7781 66.5333 82.6981 63.6C84.6715 60.6667 85.6581 56.1333 85.6581 50C85.6581 43.8667 84.6715 39.3333 82.6981 36.4C80.7781 33.4667 78.1115 32 74.6981 32C71.3381 32 68.6715 33.4667 66.6981 36.4C64.7781 39.3333 63.8181 43.8667 63.8181 50C63.8181 56.1333 64.7781 60.6667 66.6981 63.6C68.6715 66.5333 71.3381 68 74.6981 68Z" fill="url(#paint0_linear)"/>
<path d="M43.76 47.76L43.1155 48.5246L43.1209 48.5291L43.76 47.76ZM46.88 69.76L47.7317 70.2841L47.7361 70.2769L46.88 69.76ZM39.04 76.48L39.4705 77.3826L39.4763 77.3798L39.04 76.48ZM14.48 77.44L14.2089 78.4025L14.2168 78.4048L14.2248 78.4069L14.48 77.44ZM4.8 72.96L3.91138 72.5014L3.51587 73.2677L4.2157 73.7715L4.8 72.96ZM9.92 63.04L10.52 62.24L9.57382 61.5304L9.03138 62.5814L9.92 63.04ZM17.28 66.8L16.9693 67.7505L16.9776 67.7532L16.9859 67.7558L17.28 66.8ZM33.52 66.16L34.0855 66.9847L33.52 66.16ZM33.36 55.36L32.8216 56.2028L32.8321 56.2093L33.36 55.36ZM8.96 53.52L7.96415 53.429L7.86446 54.52H8.96V53.52ZM11.84 22V21H10.9272L10.8441 21.909L11.84 22ZM46 22H47V21H46V22ZM46 32.4V33.4H47V32.4H46ZM22.64 32.4V31.4H21.7193L21.6434 32.3176L22.64 32.4ZM21.76 43.04L20.7634 42.9576L20.6739 44.04H21.76V43.04ZM26.32 44.04C34.1135 44.04 39.6447 45.5992 43.1155 48.5246L44.4045 46.9954C40.4087 43.6275 34.3132 42.04 26.32 42.04V44.04ZM43.1209 48.5291C46.6607 51.4706 48.44 55.3927 48.44 60.4H50.44C50.44 54.8473 48.4327 50.3427 44.3991 46.9909L43.1209 48.5291ZM48.44 60.4C48.44 63.6376 47.6332 66.5779 46.0239 69.2431L47.7361 70.2769C49.5402 67.2888 50.44 63.9891 50.44 60.4H48.44ZM46.0283 69.2359C44.44 71.8169 41.9872 73.9397 38.6037 75.5802L39.4763 77.3798C43.1328 75.6069 45.9066 73.2498 47.7317 70.2841L46.0283 69.2359ZM38.6095 75.5774C35.3143 77.149 31.1783 77.96 26.16 77.96V79.96C31.3817 79.96 35.8324 79.1177 39.4705 77.3826L38.6095 75.5774ZM26.16 77.96C22.3 77.96 18.4924 77.4646 14.7352 76.4731L14.2248 78.4069C18.1476 79.4421 22.1267 79.96 26.16 79.96V77.96ZM14.7511 76.4775C11.0553 75.4364 7.93957 73.9883 5.3843 72.1485L4.2157 73.7715C6.99376 75.7717 10.3314 77.3103 14.2089 78.4025L14.7511 76.4775ZM5.68862 73.4186L10.8086 63.4986L9.03138 62.5814L3.91138 72.5014L5.68862 73.4186ZM9.32 63.84C11.5487 65.5115 14.1017 66.813 16.9693 67.7505L17.5907 65.8495C14.9117 64.9736 12.5579 63.7685 10.52 62.24L9.32 63.84ZM16.9859 67.7558C19.8556 68.6387 22.8081 69.08 25.84 69.08V67.08C23.0052 67.08 20.2511 66.6679 17.5741 65.8442L16.9859 67.7558ZM25.84 69.08C29.2108 69.08 31.9942 68.4188 34.0855 66.9847L32.9545 65.3353C31.3125 66.4612 28.9759 67.08 25.84 67.08V69.08ZM34.0855 66.9847C36.2284 65.5153 37.32 63.4178 37.32 60.8H35.32C35.32 62.7688 34.5449 64.2447 32.9545 65.3353L34.0855 66.9847ZM37.32 60.8C37.32 58.0682 36.1664 55.9271 33.8879 54.5107L32.8321 56.2093C34.5003 57.2463 35.32 58.7318 35.32 60.8H37.32ZM33.8984 54.5173C31.718 53.1242 28.1014 52.52 23.28 52.52V54.52C28.0586 54.52 31.1621 55.1424 32.8216 56.2027L33.8984 54.5173ZM23.28 52.52H8.96V54.52H23.28V52.52ZM9.95585 53.611L12.8359 22.091L10.8441 21.909L7.96415 53.429L9.95585 53.611ZM11.84 23H46V21H11.84V23ZM45 22V32.4H47V22H45ZM46 31.4H22.64V33.4H46V31.4ZM21.6434 32.3176L20.7634 42.9576L22.7566 43.1224L23.6366 32.4824L21.6434 32.3176ZM21.76 44.04H26.32V42.04H21.76V44.04ZM66.2981 75.52L66.8326 74.6748L66.2981 75.52ZM57.7381 65.6L56.8308 66.0205L56.8339 66.0272L56.8371 66.0338L57.7381 65.6ZM57.7381 34.48L56.835 34.0505L56.8328 34.0553L57.7381 34.48ZM66.2981 24.48L66.8326 25.3252L66.2981 24.48ZM91.0981 24.48L90.5637 25.3252L91.0981 24.48ZM99.5781 34.48L98.6708 34.9005L98.6739 34.9072L98.6771 34.9138L99.5781 34.48ZM99.5781 65.6L98.675 65.1705L98.6728 65.1753L99.5781 65.6ZM91.0981 75.52L90.5637 74.6748L91.0981 75.52ZM86.6981 63.6L85.8683 63.0418L85.8614 63.0523L86.6981 63.6ZM86.6981 36.4L85.8614 36.9477L85.8684 36.9582L86.6981 36.4ZM70.6981 36.4L69.8683 35.8418L69.8614 35.8523L70.6981 36.4ZM70.6981 63.6L69.8614 64.1477L69.8684 64.1582L70.6981 63.6ZM78.6981 77.96C74.2313 77.96 70.2863 76.8588 66.8326 74.6748L65.7637 76.3652C69.5633 78.7679 73.8849 79.96 78.6981 79.96V77.96ZM66.8326 74.6748C63.3823 72.493 60.6477 69.3378 58.6391 65.1662L56.8371 66.0338C58.9885 70.5022 61.9606 73.9603 65.7637 76.3652L66.8326 74.6748ZM58.6454 65.1795C56.6931 60.9666 55.6981 55.9168 55.6981 50H53.6981C53.6981 56.1366 54.7298 61.4867 56.8308 66.0205L58.6454 65.1795ZM55.6981 50C55.6981 44.0827 56.6933 39.0616 58.6435 34.9047L56.8328 34.0553C54.7296 38.5383 53.6981 43.864 53.6981 50H55.6981ZM58.6412 34.9095C60.6508 30.6842 63.3855 27.505 66.8326 25.3252L65.7637 23.6348C61.9575 26.0417 58.9855 29.5291 56.8351 34.0505L58.6412 34.9095ZM66.8326 25.3252C70.2863 23.1412 74.2313 22.04 78.6981 22.04V20.04C73.8849 20.04 69.5633 21.2321 65.7637 23.6348L66.8326 25.3252ZM78.6981 22.04C83.1649 22.04 87.1099 23.1412 90.5637 25.3252L91.6326 23.6348C87.833 21.2321 83.5113 20.04 78.6981 20.04V22.04ZM90.5637 25.3252C94.0083 27.5034 96.7147 30.6794 98.6708 34.9005L100.485 34.0595C98.3882 29.5339 95.4413 26.0433 91.6326 23.6348L90.5637 25.3252ZM98.6771 34.9138C100.677 39.0683 101.698 44.086 101.698 50H103.698C103.698 43.8607 102.639 38.5317 100.479 34.0462L98.6771 34.9138ZM101.698 50C101.698 55.9135 100.678 60.96 98.6751 65.1705L100.481 66.0295C102.639 61.4933 103.698 56.1398 103.698 50H101.698ZM98.6728 65.1753C96.7178 69.3426 94.0114 72.4946 90.5637 74.6748L91.6326 76.3652C95.4381 73.9587 98.3852 70.4974 100.483 66.0247L98.6728 65.1753ZM90.5637 74.6748C87.1099 76.8588 83.1649 77.96 78.6981 77.96V79.96C83.5113 79.96 87.833 78.7679 91.6326 76.3652L90.5637 74.6748ZM78.6981 69C82.4597 69 85.4361 67.354 87.5348 64.1477L85.8614 63.0523C84.1201 65.7126 81.7632 67 78.6981 67V69ZM87.5278 64.1582C89.6672 60.978 90.6581 56.203 90.6581 50H88.6581C88.6581 56.0636 87.6757 60.3553 85.8684 63.0418L87.5278 64.1582ZM90.6581 50C90.6581 43.797 89.6672 39.022 87.5278 35.8418L85.8684 36.9582C87.6757 39.6447 88.6581 43.9364 88.6581 50H90.6581ZM87.5348 35.8523C85.4361 32.646 82.4597 31 78.6981 31V33C81.7632 33 84.1201 34.2874 85.8614 36.9477L87.5348 35.8523ZM78.6981 31C74.9851 31 72.016 32.6495 69.8684 35.8418L71.5278 36.9582C73.3269 34.2838 75.6912 33 78.6981 33V31ZM69.8614 35.8523C67.7815 39.0299 66.8181 43.8002 66.8181 50H68.8181C68.8181 43.9332 69.7747 39.6367 71.5348 36.9477L69.8614 35.8523ZM66.8181 50C66.8181 56.1998 67.7815 60.9701 69.8614 64.1477L71.5348 63.0523C69.7747 60.3633 68.8181 56.0668 68.8181 50H66.8181ZM69.8684 64.1582C72.016 67.3505 74.9851 69 78.6981 69V67C75.6912 67 73.3269 65.7161 71.5278 63.0418L69.8684 64.1582Z" fill="white"/>
<defs>
<linearGradient id="paint0_linear" x1="16.6458" y1="77.9236" x2="79.9116" y2="20.974" gradientUnits="userSpaceOnUse">
<stop stop-color="#FF80A4"/>
<stop offset="1" stop-color="#FFA984"/>
</linearGradient>
</defs>
</svg>
