<svg width="155" height="62" viewBox="0 0 155 62" fill="none" xmlns="http://www.w3.org/2000/svg">
<path d="M8.98 14.12H9.98V13.12H8.98V14.12ZM1.14 14.12H0.14V15.12H1.14V14.12ZM1.14 9.5V8.5H0.14V9.5H1.14ZM22.49 9.5H23.49V8.5H22.49V9.5ZM22.49 14.12V15.12H23.49V14.12H22.49ZM14.65 14.12V13.12H13.65V14.12H14.65ZM14.65 34V35H15.65V34H14.65ZM8.98 34H7.98V35H8.98V34ZM8.98 13.12H1.14V15.12H8.98V13.12ZM2.14 14.12V9.5H0.14V14.12H2.14ZM1.14 10.5H22.49V8.5H1.14V10.5ZM21.49 9.5V14.12H23.49V9.5H21.49ZM22.49 13.12H14.65V15.12H22.49V13.12ZM13.65 14.12V34H15.65V14.12H13.65ZM14.65 33H8.98V35H14.65V33ZM9.98 34V14.12H7.98V34H9.98ZM40.4453 28.75L41.3694 28.368L41.114 27.75H40.4453V28.75ZM29.0703 28.75V27.75H28.4016L28.1461 28.368L29.0703 28.75ZM26.9003 34V35H27.569L27.8244 34.382L26.9003 34ZM21.0903 34L20.1769 33.5929L19.5497 35H21.0903V34ZM32.0103 9.5V8.5H31.3612L31.0969 9.09289L32.0103 9.5ZM37.6103 9.5L38.5232 9.0918L38.2585 8.5H37.6103V9.5ZM48.5653 34V35H50.1078L49.4782 33.5918L48.5653 34ZM42.6153 34L41.6911 34.382L41.9466 35H42.6153V34ZM38.6603 24.445V25.445H40.1568L39.5842 24.0623L38.6603 24.445ZM34.7753 15.065L35.6992 14.6823L34.7753 12.4517L33.8514 14.6823L34.7753 15.065ZM30.8903 24.445L29.9664 24.0623L29.3937 25.445H30.8903V24.445ZM40.4453 27.75H29.0703V29.75H40.4453V27.75ZM28.1461 28.368L25.9761 33.618L27.8244 34.382L29.9944 29.132L28.1461 28.368ZM26.9003 33H21.0903V35H26.9003V33ZM22.0037 34.4071L32.9237 9.90711L31.0969 9.09289L20.1769 33.5929L22.0037 34.4071ZM32.0103 10.5H37.6103V8.5H32.0103V10.5ZM36.6974 9.90819L47.6524 34.4082L49.4782 33.5918L38.5232 9.0918L36.6974 9.90819ZM48.5653 33H42.6153V35H48.5653V33ZM43.5394 33.618L41.3694 28.368L39.5211 29.132L41.6911 34.382L43.5394 33.618ZM39.5842 24.0623L35.6992 14.6823L33.8514 15.4477L37.7364 24.8277L39.5842 24.0623ZM33.8514 14.6823L29.9664 24.0623L31.8142 24.8277L35.6992 15.4477L33.8514 14.6823ZM30.8903 25.445H38.6603V23.445H30.8903V25.445ZM73.3291 9.5L74.2469 9.89724L74.8517 8.5H73.3291V9.5ZM62.7241 34V35H63.3809L63.6419 34.3972L62.7241 34ZM57.1241 34L56.2059 34.3961L56.4665 35H57.1241V34ZM46.5541 9.5V8.5H45.0336L45.6359 9.89613L46.5541 9.5ZM52.6791 9.5L53.5991 9.10808L53.3401 8.5H52.6791V9.5ZM60.1341 27L59.2141 27.3919L60.1277 29.5365L61.0521 27.3966L60.1341 27ZM67.6941 9.5V8.5H67.0368L66.7761 9.10342L67.6941 9.5ZM72.4114 9.10276L61.8064 33.6028L63.6419 34.3972L74.2469 9.89724L72.4114 9.10276ZM62.7241 33H57.1241V35H62.7241V33ZM58.0423 33.6039L47.4723 9.10386L45.6359 9.89613L56.2059 34.3961L58.0423 33.6039ZM46.5541 10.5H52.6791V8.5H46.5541V10.5ZM51.7591 9.89192L59.2141 27.3919L61.0541 26.6081L53.5991 9.10808L51.7591 9.89192ZM61.0521 27.3966L68.6121 9.89658L66.7761 9.10342L59.2161 26.6034L61.0521 27.3966ZM67.6941 10.5H73.3291V8.5H67.6941V10.5ZM75.3747 9.5V8.5H74.3747V9.5H75.3747ZM81.0447 9.5H82.0447V8.5H81.0447V9.5ZM81.0447 34V35H82.0447V34H81.0447ZM75.3747 34H74.3747V35H75.3747V34ZM75.3747 10.5H81.0447V8.5H75.3747V10.5ZM80.0447 9.5V34H82.0447V9.5H80.0447ZM81.0447 33H75.3747V35H81.0447V33ZM76.3747 34V9.5H74.3747V34H76.3747ZM86.1241 33.3L86.8312 32.5929L86.8312 32.5929L86.1241 33.3ZM86.1241 28.435L86.8046 29.1678L86.8115 29.1614L86.8182 29.1548L86.1241 28.435ZM90.9541 28.435L90.26 29.1548L90.2667 29.1614L90.2737 29.1678L90.9541 28.435ZM90.9541 33.3L90.247 32.5929L90.247 32.5929L90.9541 33.3ZM88.5391 33.28C87.8372 33.28 87.2897 33.0514 86.8312 32.5929L85.417 34.0071C86.2652 34.8553 87.3277 35.28 88.5391 35.28V33.28ZM86.8312 32.5929C86.3777 32.1394 86.1441 31.5826 86.1441 30.85H84.1441C84.1441 32.0774 84.5639 33.154 85.417 34.0071L86.8312 32.5929ZM86.1441 30.85C86.1441 30.0862 86.3816 29.5605 86.8046 29.1678L85.4437 27.7022C84.56 28.5228 84.1441 29.6071 84.1441 30.85H86.1441ZM86.8182 29.1548C87.2743 28.715 87.8259 28.49 88.5391 28.49V26.49C87.339 26.49 86.2805 26.895 85.43 27.7152L86.8182 29.1548ZM88.5391 28.49C89.2523 28.49 89.8039 28.715 90.26 29.1548L91.6482 27.7152C90.7977 26.895 89.7392 26.49 88.5391 26.49V28.49ZM90.2737 29.1678C90.6966 29.5605 90.9341 30.0862 90.9341 30.85H92.9341C92.9341 29.6071 92.5183 28.5228 91.6346 27.7022L90.2737 29.1678ZM90.9341 30.85C90.9341 31.5826 90.7005 32.1394 90.247 32.5929L91.6612 34.0071C92.5143 33.154 92.9341 32.0774 92.9341 30.85H90.9341ZM90.247 32.5929C89.7885 33.0514 89.241 33.28 88.5391 33.28V35.28C89.7505 35.28 90.8131 34.8553 91.6612 34.0071L90.247 32.5929ZM111.629 34L110.807 34.5692L111.105 35H111.629V34ZM106.904 27.175L107.726 26.6058L107.428 26.175H106.904V27.175ZM101.689 27.175V26.175H100.689V27.175H101.689ZM101.689 34V35H102.689V34H101.689ZM96.0193 34H95.0193V35H96.0193V34ZM96.0193 9.5V8.5H95.0193V9.5H96.0193ZM112.259 10.585L111.844 11.4949L111.849 11.4972L112.259 10.585ZM115.934 23.115L115.102 22.5603L115.1 22.5637L115.934 23.115ZM112.224 26.125L111.826 25.2079L110.705 25.6951L111.404 26.6972L112.224 26.125ZM117.719 34V35H119.636L118.539 33.4278L117.719 34ZM110.194 15.24L109.55 16.0049L109.556 16.0099L109.562 16.0149L110.194 15.24ZM101.689 14.12V13.12H100.689V14.12H101.689ZM101.689 22.66H100.689V23.66H101.689V22.66ZM110.194 21.54L110.838 22.3049L110.838 22.3049L110.194 21.54ZM112.451 33.4308L107.726 26.6058L106.082 27.7442L110.807 34.5692L112.451 33.4308ZM106.904 26.175H106.624V28.175H106.904V26.175ZM106.624 26.175H101.689V28.175H106.624V26.175ZM100.689 27.175V34H102.689V27.175H100.689ZM101.689 33H96.0193V35H101.689V33ZM97.0193 34V9.5H95.0193V34H97.0193ZM96.0193 10.5H106.624V8.5H96.0193V10.5ZM106.624 10.5C108.685 10.5 110.416 10.8436 111.844 11.4949L112.674 9.67509C110.929 8.87973 108.903 8.5 106.624 8.5V10.5ZM111.849 11.4972C113.305 12.1509 114.383 13.0586 115.13 14.2095L116.808 13.1205C115.828 11.6114 114.434 10.4657 112.669 9.67283L111.849 11.4972ZM115.13 14.2095C115.874 15.3544 116.264 16.734 116.264 18.39H118.264C118.264 16.406 117.791 14.6356 116.808 13.1205L115.13 14.2095ZM116.264 18.39C116.264 20.0408 115.865 21.4166 115.102 22.5603L116.766 23.6697C117.777 22.1534 118.264 20.3792 118.264 18.39H116.264ZM115.1 22.5637C114.356 23.6898 113.28 24.5755 111.826 25.2079L112.623 27.0421C114.388 26.2745 115.786 25.1535 116.769 23.6663L115.1 22.5637ZM111.404 26.6972L116.899 34.5722L118.539 33.4278L113.044 25.5528L111.404 26.6972ZM117.719 33H111.629V35H117.719V33ZM112.524 18.39C112.524 16.7804 111.994 15.4173 110.826 14.4651L109.562 16.0149C110.168 16.5094 110.524 17.2463 110.524 18.39H112.524ZM110.838 14.4751C109.703 13.5193 108.141 13.12 106.309 13.12V15.12C107.884 15.12 108.912 15.4673 109.55 16.0049L110.838 14.4751ZM106.309 13.12H101.689V15.12H106.309V13.12ZM100.689 14.12V22.66H102.689V14.12H100.689ZM101.689 23.66H106.309V21.66H101.689V23.66ZM106.309 23.66C108.141 23.66 109.703 23.2607 110.838 22.3049L109.55 20.7751C108.912 21.3127 107.884 21.66 106.309 21.66V23.66ZM110.838 22.3049C111.99 21.3355 112.524 19.9834 112.524 18.39H110.524C110.524 19.5032 110.172 20.2511 109.55 20.7751L110.838 22.3049ZM124.452 31.515L123.744 32.2221L123.749 32.2263L124.452 31.515ZM121.547 9.5V8.5H120.547V9.5H121.547ZM127.217 9.5H128.217V8.5H127.217V9.5ZM136.737 28.015L137.484 28.6794L137.491 28.6712L136.737 28.015ZM138.137 9.5V8.5H137.137V9.5H138.137ZM143.737 9.5H144.737V8.5H143.737V9.5ZM140.797 31.515L140.094 30.8037L140.089 30.8079L140.797 31.515ZM132.642 33.42C129.33 33.42 126.88 32.5089 125.154 30.8037L123.749 32.2263C125.943 34.3945 128.953 35.42 132.642 35.42V33.42ZM125.159 30.8079C123.463 29.1119 122.547 26.6341 122.547 23.22H120.547C120.547 26.9926 121.567 30.0448 123.744 32.2221L125.159 30.8079ZM122.547 23.22V9.5H120.547V23.22H122.547ZM121.547 10.5H127.217V8.5H121.547V10.5ZM126.217 9.5V23.01H128.217V9.5H126.217ZM126.217 23.01C126.217 25.3168 126.691 27.2329 127.812 28.5836C128.962 29.97 130.648 30.59 132.677 30.59V28.59C131.065 28.59 130.021 28.1134 129.351 27.3064C128.652 26.4637 128.217 25.0899 128.217 23.01H126.217ZM132.677 30.59C134.655 30.59 136.313 29.9964 137.484 28.6794L135.989 27.3506C135.293 28.1336 134.245 28.59 132.677 28.59V30.59ZM137.491 28.6712C138.653 27.3349 139.137 25.3797 139.137 23.01H137.137C137.137 25.167 136.687 26.5484 135.982 27.3588L137.491 28.6712ZM139.137 23.01V9.5H137.137V23.01H139.137ZM138.137 10.5H143.737V8.5H138.137V10.5ZM142.737 9.5V23.22H144.737V9.5H142.737ZM142.737 23.22C142.737 26.6308 141.811 29.1071 140.094 30.8037L141.499 32.2263C143.702 30.0496 144.737 26.9958 144.737 23.22H142.737ZM140.089 30.8079C138.389 32.5087 135.954 33.42 132.642 33.42V35.42C136.33 35.42 139.331 34.3947 141.504 32.2221L140.089 30.8079Z" fill="url(#paint0_linear)"/>
<path d="M6.088 53.096C5.24 53.096 4.476 52.912 3.796 52.544C3.116 52.168 2.58 51.652 2.188 50.996C1.804 50.34 1.612 49.608 1.612 48.8C1.612 47.992 1.804 47.26 2.188 46.604C2.58 45.948 3.116 45.436 3.796 45.068C4.476 44.692 5.24 44.504 6.088 44.504C6.928 44.504 7.688 44.692 8.368 45.068C9.048 45.436 9.58 45.948 9.964 46.604C10.348 47.252 10.54 47.984 10.54 48.8C10.54 49.616 10.348 50.352 9.964 51.008C9.58 51.656 9.048 52.168 8.368 52.544C7.688 52.912 6.928 53.096 6.088 53.096ZM6.088 52.028C6.704 52.028 7.256 51.888 7.744 51.608C8.24 51.328 8.628 50.944 8.908 50.456C9.196 49.96 9.34 49.408 9.34 48.8C9.34 48.192 9.196 47.644 8.908 47.156C8.628 46.66 8.24 46.272 7.744 45.992C7.256 45.712 6.704 45.572 6.088 45.572C5.472 45.572 4.912 45.712 4.408 45.992C3.912 46.272 3.52 46.66 3.232 47.156C2.952 47.644 2.812 48.192 2.812 48.8C2.812 49.408 2.952 49.96 3.232 50.456C3.52 50.944 3.912 51.328 4.408 51.608C4.912 51.888 5.472 52.028 6.088 52.028ZM19.7039 44.6V53H18.5039V49.256H13.6799V53H12.4799V44.6H13.6799V48.212H18.5039V44.6H19.7039ZM29.0822 44.6V53H27.9062V45.644H24.1862L24.1022 48.104C24.0622 49.264 23.9662 50.204 23.8142 50.924C23.6702 51.644 23.4382 52.188 23.1182 52.556C22.7982 52.916 22.3662 53.096 21.8222 53.096C21.5742 53.096 21.3222 53.064 21.0662 53L21.1502 51.932C21.2782 51.964 21.4062 51.98 21.5342 51.98C21.8782 51.98 22.1542 51.844 22.3622 51.572C22.5702 51.292 22.7262 50.876 22.8302 50.324C22.9342 49.772 23.0022 49.044 23.0342 48.14L23.1662 44.6H29.0822ZM37.1586 50.9H32.6946L31.7706 53H30.5346L34.3386 44.6H35.5266L39.3426 53H38.0826L37.1586 50.9ZM36.7386 49.94L34.9266 45.824L33.1146 49.94H36.7386ZM40.7924 44.6H41.9804V51.08L46.9484 44.6H48.0524V53H46.8764V46.532L41.8964 53H40.7924V44.6ZM44.4044 44.012C43.7484 44.012 43.2404 43.872 42.8804 43.592C42.5284 43.304 42.3484 42.896 42.3404 42.368H43.1924C43.2004 42.68 43.3084 42.924 43.5164 43.1C43.7324 43.268 44.0284 43.352 44.4044 43.352C44.7644 43.352 45.0524 43.268 45.2684 43.1C45.4924 42.924 45.6084 42.68 45.6164 42.368H46.4564C46.4484 42.888 46.2644 43.292 45.9044 43.58C45.5524 43.868 45.0524 44.012 44.4044 44.012ZM57.8953 44.6V53H56.6953V49.256H51.8713V53H50.6713V44.6H51.8713V48.212H56.6953V44.6H57.8953ZM59.891 49.208H63.119V50.204H59.891V49.208ZM75.6328 44.6V53H65.1088V44.6H66.2968V51.956H69.7888V44.6H70.9648V51.956H74.4568V44.6H75.6328ZM81.1735 49.304H79.4215V53H78.2455V44.6H79.4215V48.248H81.1975L83.8375 44.6H85.1215L82.1215 48.668L85.2655 53H83.8975L81.1735 49.304ZM90.2521 53.096C89.4041 53.096 88.6401 52.912 87.9601 52.544C87.2801 52.168 86.7441 51.652 86.3521 50.996C85.9681 50.34 85.7761 49.608 85.7761 48.8C85.7761 47.992 85.9681 47.26 86.3521 46.604C86.7441 45.948 87.2801 45.436 87.9601 45.068C88.6401 44.692 89.4041 44.504 90.2521 44.504C91.0921 44.504 91.8521 44.692 92.5321 45.068C93.2121 45.436 93.7441 45.948 94.1281 46.604C94.5121 47.252 94.7041 47.984 94.7041 48.8C94.7041 49.616 94.5121 50.352 94.1281 51.008C93.7441 51.656 93.2121 52.168 92.5321 52.544C91.8521 52.912 91.0921 53.096 90.2521 53.096ZM90.2521 52.028C90.8681 52.028 91.4201 51.888 91.9081 51.608C92.4041 51.328 92.7921 50.944 93.0721 50.456C93.3601 49.96 93.5041 49.408 93.5041 48.8C93.5041 48.192 93.3601 47.644 93.0721 47.156C92.7921 46.66 92.4041 46.272 91.9081 45.992C91.4201 45.712 90.8681 45.572 90.2521 45.572C89.6361 45.572 89.0761 45.712 88.5721 45.992C88.0761 46.272 87.6841 46.66 87.3961 47.156C87.1161 47.644 86.9761 48.192 86.9761 48.8C86.9761 49.408 87.1161 49.96 87.3961 50.456C87.6841 50.944 88.0761 51.328 88.5721 51.608C89.0761 51.888 89.6361 52.028 90.2521 52.028ZM103.274 44.6V53H102.098V45.644H98.3776L98.2936 48.104C98.2536 49.264 98.1576 50.204 98.0056 50.924C97.8616 51.644 97.6296 52.188 97.3096 52.556C96.9896 52.916 96.5576 53.096 96.0136 53.096C95.7656 53.096 95.5136 53.064 95.2576 53L95.3416 51.932C95.4696 51.964 95.5976 51.98 95.7256 51.98C96.0696 51.98 96.3456 51.844 96.5536 51.572C96.7616 51.292 96.9176 50.876 97.0216 50.324C97.1256 49.772 97.1936 49.044 97.2256 48.14L97.3576 44.6H103.274ZM111.35 50.9H106.886L105.962 53H104.726L108.53 44.6H109.718L113.534 53H112.274L111.35 50.9ZM110.93 49.94L109.118 45.824L107.306 49.94H110.93ZM125.994 53L125.982 46.88L122.946 51.98H122.394L119.358 46.916V53H118.206V44.6H119.19L122.694 50.504L126.15 44.6H127.134L127.146 53H125.994ZM135.221 50.9H130.757L129.833 53H128.597L132.401 44.6H133.589L137.405 53H136.145L135.221 50.9ZM134.801 49.94L132.989 45.824L131.177 49.94H134.801ZM146.643 53L146.631 46.88L143.595 51.98H143.043L140.007 46.916V53H138.855V44.6H139.839L143.343 50.504L146.799 44.6H147.783L147.795 53H146.643Z" fill="url(#paint1_linear)"/>
<defs>
<linearGradient id="paint0_linear" x1="26.1319" y1="49.2986" x2="56.9286" y2="-16.8592" gradientUnits="userSpaceOnUse">
<stop stop-color="#FF80A4"/>
<stop offset="1" stop-color="#FFA984"/>
</linearGradient>
<linearGradient id="paint1_linear" x1="25.316" y1="56.0833" x2="30.9245" y2="25.969" gradientUnits="userSpaceOnUse">
<stop stop-color="#FF80A4"/>
<stop offset="1" stop-color="#FFA984"/>
</linearGradient>
</defs>
</svg>
