<svg width="70" height="134" viewBox="0 0 70 134" fill="none" xmlns="http://www.w3.org/2000/svg">
<path d="M59.18 74.21H40.04V92.91H25.85V74.21H6.82V60.79H25.85V42.09H40.04V60.79H59.18V74.21Z" fill="url(#paint0_linear)"/>
<path d="M63.18 74.21V75.21H64.18V74.21H63.18ZM44.04 74.21V73.21H43.04V74.21H44.04ZM44.04 92.91V93.91H45.04V92.91H44.04ZM29.85 92.91H28.85V93.91H29.85V92.91ZM29.85 74.21H30.85V73.21H29.85V74.21ZM10.82 74.21H9.82V75.21H10.82V74.21ZM10.82 60.79V59.79H9.82V60.79H10.82ZM29.85 60.79V61.79H30.85V60.79H29.85ZM29.85 42.09V41.09H28.85V42.09H29.85ZM44.04 42.09H45.04V41.09H44.04V42.09ZM44.04 60.79H43.04V61.79H44.04V60.79ZM63.18 60.79H64.18V59.79H63.18V60.79ZM63.18 73.21H44.04V75.21H63.18V73.21ZM43.04 74.21V92.91H45.04V74.21H43.04ZM44.04 91.91H29.85V93.91H44.04V91.91ZM30.85 92.91V74.21H28.85V92.91H30.85ZM29.85 73.21H10.82V75.21H29.85V73.21ZM11.82 74.21V60.79H9.82V74.21H11.82ZM10.82 61.79H29.85V59.79H10.82V61.79ZM30.85 60.79V42.09H28.85V60.79H30.85ZM29.85 43.09H44.04V41.09H29.85V43.09ZM43.04 42.09V60.79H45.04V42.09H43.04ZM44.04 61.79H63.18V59.79H44.04V61.79ZM62.18 60.79V74.21H64.18V60.79H62.18Z" fill="white"/>
<defs>
<linearGradient id="paint0_linear" x1="10.7708" y1="106.549" x2="73.4964" y2="79.8289" gradientUnits="userSpaceOnUse">
<stop stop-color="#FF80A4"/>
<stop offset="1" stop-color="#FFA984"/>
</linearGradient>
</defs>
</svg>
