<svg  viewBox="0 0 314 54" fill="none" xmlns="http://www.w3.org/2000/svg">
<g filter="url(#filter0_d)">
<path d="M19.0433 9.92H20.0433V8.92H19.0433V9.92ZM5.60328 9.92H4.60328V10.92H5.60328V9.92ZM5.60328 2V0.999997H4.60328V2H5.60328ZM42.2033 2H43.2033V0.999997H42.2033V2ZM42.2033 9.92V10.92H43.2033V9.92H42.2033ZM28.7633 9.92V8.92H27.7633V9.92H28.7633ZM28.7633 44V45H29.7633V44H28.7633ZM19.0433 44H18.0433V45H19.0433V44ZM19.0433 8.92H5.60328V10.92H19.0433V8.92ZM6.60328 9.92V2H4.60328V9.92H6.60328ZM5.60328 3H42.2033V0.999997H5.60328V3ZM41.2033 2V9.92H43.2033V2H41.2033ZM42.2033 8.92H28.7633V10.92H42.2033V8.92ZM27.7633 9.92V44H29.7633V9.92H27.7633ZM28.7633 43H19.0433V45H28.7633V43ZM20.0433 44V9.92H18.0433V44H20.0433ZM72.9838 35L73.9079 34.618L73.6525 34H72.9838V35ZM53.4838 35V34H52.815L52.5596 34.618L53.4838 35ZM49.7638 44V45H50.4325L50.6879 44.382L49.7638 44ZM39.8037 44L38.8904 43.5929L38.2632 45H39.8037V44ZM58.5238 2V0.999997H57.8746L57.6104 1.59289L58.5238 2ZM68.1238 2L69.0366 1.5918L68.772 0.999997H68.1238V2ZM86.9038 44V45H88.4463L87.8166 43.5918L86.9038 44ZM76.7038 44L75.7796 44.382L76.035 45H76.7038V44ZM69.9238 27.62V28.62H71.4203L70.8476 27.2373L69.9238 27.62ZM63.2638 11.54L64.1876 11.1573L63.2638 8.92669L62.3399 11.1573L63.2638 11.54ZM56.6038 27.62L55.6799 27.2373L55.1072 28.62H56.6038V27.62ZM72.9838 34H53.4838V36H72.9838V34ZM52.5596 34.618L48.8396 43.618L50.6879 44.382L54.4079 35.382L52.5596 34.618ZM49.7638 43H39.8037V45H49.7638V43ZM40.7171 44.4071L59.4371 2.4071L57.6104 1.59289L38.8904 43.5929L40.7171 44.4071ZM58.5238 3H68.1238V0.999997H58.5238V3ZM67.2109 2.40819L85.9909 44.4082L87.8166 43.5918L69.0366 1.5918L67.2109 2.40819ZM86.9038 43H76.7038V45H86.9038V43ZM77.6279 43.618L73.9079 34.618L72.0596 35.382L75.7796 44.382L77.6279 43.618ZM70.8476 27.2373L64.1876 11.1573L62.3399 11.9227L68.9999 28.0027L70.8476 27.2373ZM62.3399 11.1573L55.6799 27.2373L57.5276 28.0027L64.1876 11.9227L62.3399 11.1573ZM56.6038 28.62H69.9238V26.62H56.6038V28.62ZM129.356 2L130.274 2.39724L130.879 0.999997H129.356V2ZM111.176 44V45H111.833L112.094 44.3972L111.176 44ZM101.576 44L100.658 44.3961L100.918 45H101.576V44ZM83.4561 2V0.999997H81.9356L82.5379 2.39613L83.4561 2ZM93.9561 2L94.8761 1.60808L94.6171 0.999997H93.9561V2ZM106.736 32L105.816 32.3919L106.73 34.5365L107.654 32.3966L106.736 32ZM119.696 2V0.999997H119.039L118.778 1.60342L119.696 2ZM128.438 1.60276L110.258 43.6028L112.094 44.3972L130.274 2.39724L128.438 1.60276ZM111.176 43H101.576V45H111.176V43ZM102.494 43.6039L84.3743 1.60386L82.5379 2.39613L100.658 44.3961L102.494 43.6039ZM83.4561 3H93.9561V0.999997H83.4561V3ZM93.0361 2.39192L105.816 32.3919L107.656 31.6081L94.8761 1.60808L93.0361 2.39192ZM107.654 32.3966L120.614 2.39657L118.778 1.60342L105.818 31.6034L107.654 32.3966ZM119.696 3H129.356V0.999997H119.696V3ZM132.863 2V0.999997H131.863V2H132.863ZM142.583 2H143.583V0.999997H142.583V2ZM142.583 44V45H143.583V44H142.583ZM132.863 44H131.863V45H132.863V44ZM132.863 3H142.583V0.999997H132.863V3ZM141.583 2V44H143.583V2H141.583ZM142.583 43H132.863V45H142.583V43ZM133.863 44V2H131.863V44H133.863ZM194.383 4.1L193.885 4.96759L193.891 4.97117L193.898 4.97465L194.383 4.1ZM202.183 11.84L201.312 12.3328L201.315 12.3373L202.183 11.84ZM202.183 34.22L203.05 34.7173L203.053 34.7127L202.183 34.22ZM194.383 41.96L194.872 42.8321L194.875 42.8302L194.383 41.96ZM173.143 42.8L172.746 43.7179L172.75 43.7198L173.143 42.8ZM165.703 37.22L165.021 36.4885L164.334 37.1282L164.929 37.8539L165.703 37.22ZM171.883 31.46L172.629 30.7945L171.949 30.0314L171.201 30.7285L171.883 31.46ZM190.543 33.74L189.902 32.9717L189.895 32.9777L190.543 33.74ZM194.743 26.48L195.721 26.686L195.975 25.48H194.743V26.48ZM177.703 26.48H176.703V27.48H177.703V26.48ZM177.703 19.04V18.04H176.703V19.04H177.703ZM194.623 19.04V20.04H195.886L195.596 18.8102L194.623 19.04ZM190.423 12.14L189.792 12.9166L190.423 12.14ZM171.883 14.54L171.201 15.2715L171.949 15.9686L172.629 15.2055L171.883 14.54ZM165.703 8.78L164.929 8.14607L164.334 8.87176L165.021 9.51153L165.703 8.78ZM173.143 3.2L172.75 2.28021L172.746 2.28214L173.143 3.2ZM183.223 2.28C187.226 2.28 190.771 3.18287 193.885 4.96759L194.88 3.23241C191.434 1.25713 187.539 0.279999 183.223 0.279999V2.28ZM193.898 4.97465C197.056 6.72482 199.523 9.17226 201.312 12.3327L203.053 11.3473C201.082 7.86774 198.349 5.15518 194.867 3.22534L193.898 4.97465ZM201.315 12.3373C203.1 15.451 204.003 18.9965 204.003 23H206.003C206.003 18.6835 205.025 14.789 203.05 11.3427L201.315 12.3373ZM204.003 23C204.003 27.0033 203.1 30.5709 201.312 33.7273L203.053 34.7127C205.025 31.2291 206.003 27.3167 206.003 23H204.003ZM201.315 33.7227C199.525 36.8455 197.055 39.2974 193.89 41.0898L194.875 42.8302C198.35 40.8626 201.08 38.1545 203.05 34.7173L201.315 33.7227ZM193.893 41.0879C190.778 42.8354 187.23 43.72 183.223 43.72V45.72C187.535 45.72 191.427 44.7646 194.872 42.8321L193.893 41.0879ZM183.223 43.72C179.619 43.72 176.395 43.1004 173.535 41.8802L172.75 43.7198C175.89 45.0596 179.386 45.72 183.223 45.72V43.72ZM173.539 41.8821C170.722 40.664 168.373 38.9 166.476 36.5861L164.929 37.8539C167.032 40.42 169.643 42.376 172.746 43.7179L173.539 41.8821ZM166.384 37.9515L172.564 32.1915L171.201 30.7285L165.021 36.4885L166.384 37.9515ZM171.136 32.1255C174.277 35.6488 178.165 37.44 182.743 37.44V35.44C178.76 35.44 175.408 33.9112 172.629 30.7945L171.136 32.1255ZM182.743 37.44C186.032 37.44 188.869 36.4725 191.19 34.5023L189.895 32.9777C187.976 34.6075 185.613 35.44 182.743 35.44V37.44ZM191.183 34.5082C193.534 32.549 195.04 29.9216 195.721 26.686L193.764 26.274C193.165 29.1184 191.871 31.331 189.902 32.9718L191.183 34.5082ZM194.743 25.48H177.703V27.48H194.743V25.48ZM178.703 26.48V19.04H176.703V26.48H178.703ZM177.703 20.04H194.623V18.04H177.703V20.04ZM195.596 18.8102C194.869 15.7342 193.359 13.2347 191.053 11.3634L189.792 12.9166C191.726 14.4853 193.016 16.5858 193.649 19.2698L195.596 18.8102ZM191.053 11.3634C188.736 9.48435 185.948 8.56 182.743 8.56V10.56C185.537 10.56 187.869 11.3557 189.792 12.9166L191.053 11.3634ZM182.743 8.56C178.165 8.56 174.277 10.3512 171.136 13.8745L172.629 15.2055C175.408 12.0888 178.76 10.56 182.743 10.56V8.56ZM172.564 13.8085L166.384 8.04847L165.021 9.51153L171.201 15.2715L172.564 13.8085ZM166.476 9.41393C168.373 7.10004 170.722 5.33603 173.539 4.11786L172.746 2.28214C169.643 3.62396 167.032 5.57996 164.929 8.14607L166.476 9.41393ZM173.535 4.11978C176.395 2.89964 179.619 2.28 183.223 2.28V0.279999C179.386 0.279999 175.89 0.940356 172.75 2.28022L173.535 4.11978ZM244.129 9.92V10.92H245.129V9.92H244.129ZM230.689 9.92V8.92H229.689V9.92H230.689ZM230.689 44V45H231.689V44H230.689ZM221.089 44H220.089V45H221.089V44ZM221.089 9.92H222.089V8.92H221.089V9.92ZM207.709 9.92H206.709V10.92H207.709V9.92ZM207.709 2V0.999997H206.709V2H207.709ZM244.129 2H245.129V0.999997H244.129V2ZM244.129 8.92H230.689V10.92H244.129V8.92ZM229.689 9.92V44H231.689V9.92H229.689ZM230.689 43H221.089V45H230.689V43ZM222.089 44V9.92H220.089V44H222.089ZM221.089 8.92H207.709V10.92H221.089V8.92ZM208.709 9.92V2H206.709V9.92H208.709ZM207.709 3H244.129V0.999997H207.709V3ZM243.129 2V9.92H245.129V2H243.129ZM257.866 41.9L257.39 42.7798L257.395 42.7821L257.866 41.9ZM249.646 34.16L248.785 34.6684L248.788 34.6745L248.792 34.6806L249.646 34.16ZM249.646 11.9L248.789 11.384L248.787 11.387L249.646 11.9ZM257.866 4.1L257.395 3.21791L257.39 3.22018L257.866 4.1ZM289.666 11.9L288.809 12.416L288.812 12.4206L289.666 11.9ZM289.666 34.16L290.52 34.6806L290.522 34.676L289.666 34.16ZM281.446 41.9L281.921 42.7798L281.446 41.9ZM276.406 34.76L276.894 35.6325L276.901 35.6288L276.908 35.625L276.406 34.76ZM281.086 29.96L280.216 29.4657L280.213 29.4722L280.209 29.4787L281.086 29.96ZM281.086 16.04L280.209 16.5213L280.213 16.5278L280.216 16.5343L281.086 16.04ZM276.406 11.3L275.904 12.165L275.911 12.1688L275.917 12.1725L276.406 11.3ZM262.966 11.3L263.454 12.1725L263.461 12.1688L263.467 12.165L262.966 11.3ZM258.226 16.04L257.356 15.5457L257.353 15.5522L257.349 15.5587L258.226 16.04ZM258.226 29.96L257.349 30.4413L257.353 30.4478L257.356 30.4543L258.226 29.96ZM262.966 34.76L262.464 35.625L262.471 35.6288L262.477 35.6325L262.966 34.76ZM269.686 43.72C265.475 43.72 261.699 42.8135 258.337 41.0179L257.395 42.7821C261.073 44.7465 265.177 45.72 269.686 45.72V43.72ZM258.341 41.0202C255.012 39.2217 252.405 36.7637 250.5 33.6394L248.792 34.6806C250.887 38.1163 253.76 40.8183 257.39 42.7798L258.341 41.0202ZM250.507 33.6516C248.644 30.4962 247.706 26.9539 247.706 23H245.706C245.706 27.2861 246.727 31.1838 248.785 34.6684L250.507 33.6516ZM247.706 23C247.706 19.046 248.644 15.5258 250.504 12.413L248.787 11.387C246.727 14.8342 245.706 18.714 245.706 23H247.706ZM250.502 12.416C252.408 9.25246 255.015 6.77665 258.341 4.97982L257.39 3.22018C253.757 5.18334 250.883 7.90754 248.789 11.384L250.502 12.416ZM258.337 4.98207C261.699 3.18651 265.475 2.28 269.686 2.28V0.279999C265.177 0.279999 261.073 1.25349 257.395 3.21792L258.337 4.98207ZM269.686 2.28C273.897 2.28 277.651 3.18654 280.97 4.97982L281.921 3.22018C278.281 1.25345 274.194 0.279999 269.686 0.279999V2.28ZM280.97 4.97982C284.297 6.77665 286.903 9.25246 288.809 12.416L290.522 11.384C288.428 7.90754 285.555 5.18334 281.921 3.22018L280.97 4.97982ZM288.812 12.4206C290.709 15.5324 291.666 19.0498 291.666 23H293.666C293.666 18.7102 292.622 14.8276 290.52 11.3794L288.812 12.4206ZM291.666 23C291.666 26.9501 290.709 30.4897 288.809 33.644L290.522 34.676C292.622 31.1903 293.666 27.2899 293.666 23H291.666ZM288.812 33.6394C286.907 36.7637 284.3 39.2217 280.97 41.0202L281.921 42.7798C285.552 40.8183 288.425 38.1163 290.52 34.6806L288.812 33.6394ZM280.97 41.0202C277.651 42.8135 273.897 43.72 269.686 43.72V45.72C274.194 45.72 278.281 44.7465 281.921 42.7798L280.97 41.0202ZM269.686 37.44C272.322 37.44 274.733 36.8429 276.894 35.6325L275.917 33.8875C274.079 34.9171 272.009 35.44 269.686 35.44V37.44ZM276.908 35.625C279.066 34.373 280.755 32.6398 281.962 30.4413L280.209 29.4787C279.176 31.3602 277.745 32.827 275.904 33.895L276.908 35.625ZM281.955 30.4543C283.21 28.2478 283.826 25.7542 283.826 23H281.826C281.826 25.4458 281.282 27.5922 280.216 29.4657L281.955 30.4543ZM283.826 23C283.826 20.2458 283.21 17.7522 281.955 15.5457L280.216 16.5343C281.282 18.4078 281.826 20.5542 281.826 23H283.826ZM281.962 15.5587C280.754 13.3572 279.06 11.6405 276.894 10.4275L275.917 12.1725C277.751 13.1995 279.178 14.6428 280.209 16.5213L281.962 15.5587ZM276.908 10.435C274.744 9.18014 272.329 8.56 269.686 8.56V10.56C272.003 10.56 274.068 11.0999 275.904 12.165L276.908 10.435ZM269.686 8.56C267.043 8.56 264.628 9.18014 262.464 10.435L263.467 12.165C265.304 11.0999 267.369 10.56 269.686 10.56V8.56ZM262.477 10.4275C260.314 11.6387 258.604 13.3513 257.356 15.5457L259.095 16.5343C260.167 14.6487 261.617 13.2013 263.454 12.1725L262.477 10.4275ZM257.349 15.5587C256.139 17.7629 255.546 20.2518 255.546 23H257.546C257.546 20.5482 258.072 18.3971 259.102 16.5213L257.349 15.5587ZM255.546 23C255.546 25.7482 256.139 28.2371 257.349 30.4413L259.102 29.4787C258.072 27.6029 257.546 25.4518 257.546 23H255.546ZM257.356 30.4543C258.603 32.6458 260.308 34.3748 262.464 35.625L263.468 33.895C261.623 32.8252 260.169 31.3542 259.095 29.4657L257.356 30.4543ZM262.477 35.6325C264.639 36.8429 267.049 37.44 269.686 37.44V35.44C267.362 35.44 265.293 34.9171 263.454 33.8875L262.477 35.6325ZM298.654 12.92L299.334 13.6528L299.341 13.6464L299.348 13.6398L298.654 12.92ZM306.934 12.92L306.239 13.6398L306.246 13.6464L306.253 13.6528L306.934 12.92ZM306.934 21.26L306.226 20.5529L306.226 20.5529L306.934 21.26ZM298.654 42.8L299.361 42.0929L299.361 42.0929L298.654 42.8ZM298.654 34.46L299.334 35.1928L299.341 35.1864L299.348 35.1798L298.654 34.46ZM306.934 34.46L306.239 35.1798L306.246 35.1864L306.253 35.1928L306.934 34.46ZM306.934 42.8L306.226 42.0929L306.226 42.0929L306.934 42.8ZM302.794 21.94C301.408 21.94 300.286 21.4781 299.361 20.5529L297.946 21.9671C299.261 23.2819 300.899 23.94 302.794 23.94V21.94ZM299.361 20.5529C298.44 19.6327 297.974 18.4926 297.974 17.06H295.974C295.974 18.9874 296.627 20.6473 297.946 21.9671L299.361 20.5529ZM297.974 17.06C297.974 15.5796 298.444 14.4789 299.334 13.6528L297.973 12.1872C296.623 13.4411 295.974 15.1004 295.974 17.06H297.974ZM299.348 13.6398C300.27 12.75 301.397 12.3 302.794 12.3V10.3C300.91 10.3 299.277 10.93 297.959 12.2002L299.348 13.6398ZM302.794 12.3C304.19 12.3 305.317 12.75 306.239 13.6398L307.628 12.2002C306.31 10.93 304.677 10.3 302.794 10.3V12.3ZM306.253 13.6528C307.143 14.4789 307.614 15.5796 307.614 17.06H309.614C309.614 15.1004 308.964 13.4411 307.614 12.1872L306.253 13.6528ZM307.614 17.06C307.614 18.4926 307.147 19.6327 306.226 20.5529L307.641 21.9671C308.96 20.6473 309.614 18.9874 309.614 17.06H307.614ZM306.226 20.5529C305.301 21.4781 304.179 21.94 302.794 21.94V23.94C304.688 23.94 306.326 23.2819 307.641 21.9671L306.226 20.5529ZM302.794 43.48C301.408 43.48 300.286 43.0181 299.361 42.0929L297.946 43.5071C299.261 44.8219 300.899 45.48 302.794 45.48V43.48ZM299.361 42.0929C298.44 41.1727 297.974 40.0326 297.974 38.6H295.974C295.974 40.5274 296.627 42.1873 297.946 43.5071L299.361 42.0929ZM297.974 38.6C297.974 37.1196 298.444 36.0189 299.334 35.1928L297.973 33.7272C296.623 34.9811 295.974 36.6404 295.974 38.6H297.974ZM299.348 35.1798C300.27 34.29 301.397 33.84 302.794 33.84V31.84C300.91 31.84 299.277 32.47 297.959 33.7402L299.348 35.1798ZM302.794 33.84C304.19 33.84 305.317 34.29 306.239 35.1798L307.628 33.7402C306.31 32.47 304.677 31.84 302.794 31.84V33.84ZM306.253 35.1928C307.143 36.0189 307.614 37.1196 307.614 38.6H309.614C309.614 36.6404 308.964 34.9811 307.614 33.7272L306.253 35.1928ZM307.614 38.6C307.614 40.0326 307.147 41.1727 306.226 42.0929L307.641 43.5071C308.96 42.1873 309.614 40.5274 309.614 38.6H307.614ZM306.226 42.0929C305.301 43.0181 304.179 43.48 302.794 43.48V45.48C304.688 45.48 306.326 44.8219 307.641 43.5071L306.226 42.0929Z" fill="url(#paint0_linear)"/>
</g>
<defs>
<filter id="filter0_d" x="0.603516" y="0.280029" width="313.01" height="53.44" filterUnits="userSpaceOnUse" color-interpolation-filters="sRGB">
<feFlood flood-opacity="0" result="BackgroundImageFix"/>
<feColorMatrix in="SourceAlpha" type="matrix" values="0 0 0 0 0 0 0 0 0 0 0 0 0 0 0 0 0 0 127 0"/>
<feOffset dy="4"/>
<feGaussianBlur stdDeviation="2"/>
<feColorMatrix type="matrix" values="0 0 0 0 0 0 0 0 0 0 0 0 0 0 0 0 0 0 0.125 0"/>
<feBlend mode="normal" in2="BackgroundImageFix" result="effect1_dropShadow"/>
<feBlend mode="normal" in="SourceGraphic" in2="effect1_dropShadow" result="shape"/>
</filter>
<linearGradient id="paint0_linear" x1="54.9375" y1="44.0451" x2="79.2315" y2="-44.0285" gradientUnits="userSpaceOnUse">
<stop stop-color="#FF80A4"/>
<stop offset="1" stop-color="#FFA984"/>
</linearGradient>
</defs>
</svg>
