<svg width="521" height="54" viewBox="0 0 521 54" fill="none" xmlns="http://www.w3.org/2000/svg">
<g filter="url(#filter0_d)">
<path d="M34.572 22.1L34.1324 21.2018L31.8292 22.3289L34.2874 23.0586L34.572 22.1ZM40.452 25.82L39.6675 26.4402L40.452 25.82ZM38.232 40.88L37.6411 40.0732L37.6356 40.0773L38.232 40.88ZM5.47195 44H4.47195V45H5.47195V44ZM5.47195 2V0.999997H4.47195V2H5.47195ZM36.432 4.82L37.0005 3.99737L36.432 4.82ZM38.952 18.38L39.7841 18.9347L39.7904 18.925L38.952 18.38ZM15.132 19.4H14.132V20.4H15.132V19.4ZM28.992 18.14L29.6059 18.9294L29.6148 18.9224L29.6236 18.9152L28.992 18.14ZM28.932 10.52L28.3003 11.2952L28.3072 11.3008L28.3141 11.3063L28.932 10.52ZM15.132 9.2V8.2H14.132V9.2H15.132ZM15.132 26.18V25.18H14.132V26.18H15.132ZM15.132 36.8H14.132V37.8H15.132V36.8ZM34.2874 23.0586C36.6936 23.773 38.4609 24.9143 39.6675 26.4402L41.2364 25.1998C39.723 23.2857 37.5703 21.947 34.8566 21.1414L34.2874 23.0586ZM39.6675 26.4402C40.8675 27.9579 41.492 29.8499 41.492 32.18H43.492C43.492 29.4701 42.7564 27.1221 41.2364 25.1998L39.6675 26.4402ZM41.492 32.18C41.492 35.6024 40.2073 38.1938 37.6411 40.0732L38.8228 41.6868C41.9366 39.4062 43.492 36.1976 43.492 32.18H41.492ZM37.6356 40.0773C35.0753 41.9792 31.2995 43 26.172 43V45C31.5244 45 35.7886 43.9408 38.8283 41.6827L37.6356 40.0773ZM26.172 43H5.47195V45H26.172V43ZM6.47195 44V2H4.47195V44H6.47195ZM5.47195 3H25.032V0.999997H5.47195V3ZM25.032 3C29.8004 3 33.3727 3.9211 35.8634 5.64262L37.0005 3.99737C34.0513 1.9589 30.0235 0.999997 25.032 0.999997V3ZM35.8634 5.64262C38.2968 7.32456 39.512 9.68797 39.512 12.86H41.512C41.512 9.07203 40.0071 6.07543 37.0005 3.99737L35.8634 5.64262ZM39.512 12.86C39.512 14.7647 39.0386 16.4118 38.1135 17.835L39.7904 18.925C40.9453 17.1482 41.512 15.1153 41.512 12.86H39.512ZM38.1199 17.8253C37.1891 19.2215 35.8724 20.3503 34.1324 21.2018L35.0115 22.9982C37.0315 22.0097 38.6348 20.6585 39.784 18.9347L38.1199 17.8253ZM15.132 20.4H24.192V18.4H15.132V20.4ZM24.192 20.4C26.4192 20.4 28.2771 19.9628 29.6059 18.9294L28.378 17.3506C27.5468 17.9972 26.2047 18.4 24.192 18.4V20.4ZM29.6236 18.9152C30.985 17.8059 31.612 16.2122 31.612 14.3H29.612C29.612 15.7478 29.1589 16.7141 28.3603 17.3648L29.6236 18.9152ZM31.612 14.3C31.612 12.4056 30.9495 10.8335 29.5498 9.73368L28.3141 11.3063C29.1544 11.9665 29.612 12.9144 29.612 14.3H31.612ZM29.5636 9.74476C28.2358 8.66283 26.3929 8.2 24.192 8.2V10.2C26.151 10.2 27.4681 10.6172 28.3003 11.2952L29.5636 9.74476ZM24.192 8.2H15.132V10.2H24.192V8.2ZM14.132 9.2V19.4H16.132V9.2H14.132ZM25.812 37.8C28.1965 37.8 30.1695 37.3339 31.5616 36.2349C32.9987 35.1003 33.652 33.4253 33.652 31.4H31.652C31.652 32.9747 31.1652 33.9997 30.3223 34.6651C29.4344 35.3661 27.9874 35.8 25.812 35.8V37.8ZM33.652 31.4C33.652 29.4225 32.9901 27.7901 31.5486 26.69C30.1582 25.629 28.1909 25.18 25.812 25.18V27.18C27.993 27.18 29.4457 27.601 30.3353 28.2799C31.1738 28.9199 31.652 29.8975 31.652 31.4H33.652ZM25.812 25.18H15.132V27.18H25.812V25.18ZM14.132 26.18V36.8H16.132V26.18H14.132ZM15.132 37.8H25.812V35.8H15.132V37.8ZM88.399 44L87.399 44.0024L87.4014 45H88.399V44ZM88.339 18.86L89.339 18.8576L89.3304 15.2491L87.4804 18.3473L88.339 18.86ZM75.979 39.56V40.56H76.5466L76.8376 40.0727L75.979 39.56ZM71.659 39.56L70.8058 40.0816L71.0982 40.56H71.659V39.56ZM59.299 19.34L60.1522 18.8184L58.299 15.7867V19.34H59.299ZM59.299 44V45H60.299V44H59.299ZM50.179 44H49.179V45H50.179V44ZM50.179 2V0.999997H49.179V2H50.179ZM58.219 2L59.0756 1.48405L58.7841 0.999997H58.219V2ZM73.939 28.1L73.0824 28.6159L73.9456 30.0492L74.7991 28.6101L73.939 28.1ZM89.419 2V0.999997H88.8494L88.5589 1.48987L89.419 2ZM97.459 2L98.459 1.99857L98.4576 0.999997H97.459V2ZM97.519 44V45H98.5204L98.519 43.9986L97.519 44ZM89.399 43.9976L89.339 18.8576L87.339 18.8624L87.399 44.0024L89.399 43.9976ZM87.4804 18.3473L75.1204 39.0473L76.8376 40.0727L89.1976 19.3727L87.4804 18.3473ZM75.979 38.56H71.659V40.56H75.979V38.56ZM72.5122 39.0384L60.1522 18.8184L58.4458 19.8616L70.8058 40.0816L72.5122 39.0384ZM58.299 19.34V44H60.299V19.34H58.299ZM59.299 43H50.179V45H59.299V43ZM51.179 44V2H49.179V44H51.179ZM50.179 3H58.219V0.999997H50.179V3ZM57.3624 2.51594L73.0824 28.6159L74.7956 27.5841L59.0756 1.48405L57.3624 2.51594ZM74.7991 28.6101L90.2791 2.51012L88.5589 1.48987L73.0789 27.5899L74.7991 28.6101ZM89.419 3H97.459V0.999997H89.419V3ZM96.459 2.00142L96.519 44.0014L98.519 43.9986L98.459 1.99857L96.459 2.00142ZM97.519 43H88.399V45H97.519V43ZM140.472 36.2H141.472V35.2H140.472V36.2ZM140.472 44V45H141.472V44H140.472ZM107.952 44H106.952V45H107.952V44ZM107.952 2V0.999997H106.952V2H107.952ZM139.692 2H140.692V0.999997H139.692V2ZM139.692 9.8V10.8H140.692V9.8H139.692ZM117.612 9.8V8.8H116.612V9.8H117.612ZM117.612 18.92H116.612V19.92H117.612V18.92ZM137.112 18.92H138.112V17.92H137.112V18.92ZM137.112 26.48V27.48H138.112V26.48H137.112ZM117.612 26.48V25.48H116.612V26.48H117.612ZM117.612 36.2H116.612V37.2H117.612V36.2ZM139.472 36.2V44H141.472V36.2H139.472ZM140.472 43H107.952V45H140.472V43ZM108.952 44V2H106.952V44H108.952ZM107.952 3H139.692V0.999997H107.952V3ZM138.692 2V9.8H140.692V2H138.692ZM139.692 8.8H117.612V10.8H139.692V8.8ZM116.612 9.8V18.92H118.612V9.8H116.612ZM117.612 19.92H137.112V17.92H117.612V19.92ZM136.112 18.92V26.48H138.112V18.92H136.112ZM137.112 25.48H117.612V27.48H137.112V25.48ZM116.612 26.48V36.2H118.612V26.48H116.612ZM117.612 37.2H140.472V35.2H117.612V37.2ZM156.426 41.96L155.947 42.8376L155.959 42.844L156.426 41.96ZM148.266 34.22L147.405 34.7284L147.409 34.7345L147.413 34.7406L148.266 34.22ZM148.266 11.84L147.41 11.324L147.408 11.327L148.266 11.84ZM156.426 4.1L156.898 4.98179L156.902 4.97982L156.426 4.1ZM177.966 3.2L177.565 4.11588L177.569 4.11786L177.966 3.2ZM185.406 8.72L186.085 9.4548L186.783 8.81006L186.175 8.07981L185.406 8.72ZM179.166 14.48L178.41 15.1346L179.086 15.915L179.845 15.2148L179.166 14.48ZM161.646 11.3L162.128 12.1766L162.134 12.173L162.141 12.1693L161.646 11.3ZM156.846 16.04L155.977 15.5457L155.973 15.5522L155.97 15.5587L156.846 16.04ZM156.846 29.96L155.97 30.4413L155.973 30.4478L155.977 30.4543L156.846 29.96ZM161.646 34.76L161.152 35.6293L161.159 35.633L161.165 35.6366L161.646 34.76ZM179.166 31.46L179.845 30.7252L179.081 30.0208L178.406 30.81L179.166 31.46ZM185.406 37.22L186.18 37.8539L186.777 37.1247L186.085 36.4852L185.406 37.22ZM177.966 42.8L177.569 41.8821L177.966 42.8ZM168.066 43.72C163.935 43.72 160.217 42.8333 156.894 41.076L155.959 42.844C159.595 44.7667 163.638 45.72 168.066 45.72V43.72ZM156.906 41.0825C153.616 39.2848 151.027 36.8265 149.12 33.6994L147.413 34.7406C149.506 38.1735 152.356 40.8752 155.947 42.8375L156.906 41.0825ZM149.127 33.7116C147.266 30.5577 146.326 26.9958 146.326 23H144.326C144.326 27.3242 145.347 31.2423 147.405 34.7284L149.127 33.7116ZM146.326 23C146.326 19.0041 147.266 15.4643 149.125 12.353L147.408 11.327C145.347 14.7757 144.326 18.6759 144.326 23H146.326ZM149.123 12.356C151.029 9.19146 153.616 6.73736 156.898 4.98178L155.955 3.21821C152.357 5.14264 149.503 7.84854 147.41 11.324L149.123 12.356ZM156.902 4.97982C160.222 3.18582 163.957 2.28 168.126 2.28V0.279999C163.656 0.279999 159.59 1.25418 155.951 3.22018L156.902 4.97982ZM168.126 2.28C171.648 2.28 174.788 2.89869 177.565 4.11587L178.368 2.28413C175.305 0.941314 171.885 0.279999 168.126 0.279999V2.28ZM177.569 4.11786C180.39 5.33774 182.742 7.08451 184.638 9.36018L186.175 8.07981C184.071 5.55549 181.462 3.62226 178.363 2.28214L177.569 4.11786ZM184.728 7.9852L178.488 13.7452L179.845 15.2148L186.085 9.4548L184.728 7.9852ZM179.922 13.8254C176.9 10.3343 173.107 8.56 168.606 8.56V10.56C172.505 10.56 175.753 12.0657 178.41 15.1346L179.922 13.8254ZM168.606 8.56C165.852 8.56 163.359 9.17605 161.152 10.4307L162.141 12.1693C164.014 11.104 166.16 10.56 168.606 10.56V8.56ZM161.165 10.4234C158.961 11.6333 157.228 13.3462 155.977 15.5457L157.716 16.5343C158.785 14.6538 160.251 13.2067 162.128 12.1766L161.165 10.4234ZM155.97 15.5587C154.76 17.7629 154.166 20.2518 154.166 23H156.166C156.166 20.5482 156.693 18.3971 157.723 16.5213L155.97 15.5587ZM154.166 23C154.166 25.7482 154.76 28.2371 155.97 30.4413L157.723 29.4787C156.693 27.6029 156.166 25.4518 156.166 23H154.166ZM155.977 30.4543C157.226 32.6508 158.956 34.3803 161.152 35.6293L162.141 33.8907C160.257 32.8197 158.787 31.3492 157.716 29.4657L155.977 30.4543ZM161.165 35.6366C163.369 36.8467 165.858 37.44 168.606 37.44V35.44C166.154 35.44 164.003 34.9133 162.128 33.8834L161.165 35.6366ZM168.606 37.44C173.112 37.44 176.905 35.6419 179.926 32.11L178.406 30.81C175.748 33.9181 172.501 35.44 168.606 35.44V37.44ZM178.488 32.1948L184.728 37.9548L186.085 36.4852L179.845 30.7252L178.488 32.1948ZM184.633 36.5861C182.736 38.9 180.386 40.664 177.569 41.8821L178.363 43.7179C181.466 42.376 184.076 40.42 186.18 37.8539L184.633 36.5861ZM177.569 41.8821C174.75 43.1014 171.587 43.72 168.066 43.72V45.72C171.825 45.72 175.263 45.0586 178.363 43.7179L177.569 41.8821ZM223.431 9.92V10.92H224.431V9.92H223.431ZM209.991 9.92V8.92H208.991V9.92H209.991ZM209.991 44V45H210.991V44H209.991ZM200.391 44H199.391V45H200.391V44ZM200.391 9.92H201.391V8.92H200.391V9.92ZM187.011 9.92H186.011V10.92H187.011V9.92ZM187.011 2V0.999997H186.011V2H187.011ZM223.431 2H224.431V0.999997H223.431V2ZM223.431 8.92H209.991V10.92H223.431V8.92ZM208.991 9.92V44H210.991V9.92H208.991ZM209.991 43H200.391V45H209.991V43ZM201.391 44V9.92H199.391V44H201.391ZM200.391 8.92H187.011V10.92H200.391V8.92ZM188.011 9.92V2H186.011V9.92H188.011ZM187.011 3H223.431V0.999997H187.011V3ZM222.431 2V9.92H224.431V2H222.431ZM262.054 36.2H263.054V35.2H262.054V36.2ZM262.054 44V45H263.054V44H262.054ZM229.534 44H228.534V45H229.534V44ZM229.534 2V0.999997H228.534V2H229.534ZM261.274 2H262.274V0.999997H261.274V2ZM261.274 9.8V10.8H262.274V9.8H261.274ZM239.194 9.8V8.8H238.194V9.8H239.194ZM239.194 18.92H238.194V19.92H239.194V18.92ZM258.694 18.92H259.694V17.92H258.694V18.92ZM258.694 26.48V27.48H259.694V26.48H258.694ZM239.194 26.48V25.48H238.194V26.48H239.194ZM239.194 36.2H238.194V37.2H239.194V36.2ZM261.054 36.2V44H263.054V36.2H261.054ZM262.054 43H229.534V45H262.054V43ZM230.534 44V2H228.534V44H230.534ZM229.534 3H261.274V0.999997H229.534V3ZM260.274 2V9.8H262.274V2H260.274ZM261.274 8.8H239.194V10.8H261.274V8.8ZM238.194 9.8V18.92H240.194V9.8H238.194ZM239.194 19.92H258.694V17.92H239.194V19.92ZM257.694 18.92V26.48H259.694V18.92H257.694ZM258.694 25.48H239.194V27.48H258.694V25.48ZM238.194 26.48V36.2H240.194V26.48H238.194ZM239.194 37.2H262.054V35.2H239.194V37.2ZM295.118 41.96L294.638 42.8376L294.65 42.844L295.118 41.96ZM286.958 34.22L286.097 34.7284L286.1 34.7345L286.104 34.7406L286.958 34.22ZM286.958 11.84L286.101 11.324L286.099 11.327L286.958 11.84ZM295.118 4.1L295.589 4.98179L295.593 4.97982L295.118 4.1ZM316.658 3.2L316.256 4.11588L316.261 4.11786L316.658 3.2ZM324.098 8.72L324.776 9.4548L325.474 8.81006L324.866 8.07981L324.098 8.72ZM317.858 14.48L317.102 15.1346L317.777 15.915L318.536 15.2148L317.858 14.48ZM300.338 11.3L300.819 12.1766L300.826 12.173L300.832 12.1693L300.338 11.3ZM295.538 16.04L294.668 15.5457L294.665 15.5522L294.661 15.5587L295.538 16.04ZM295.538 29.96L294.661 30.4413L294.665 30.4478L294.668 30.4543L295.538 29.96ZM300.338 34.76L299.843 35.6293L299.85 35.633L299.856 35.6366L300.338 34.76ZM317.858 31.46L318.536 30.7252L317.773 30.0208L317.098 30.81L317.858 31.46ZM324.098 37.22L324.871 37.8539L325.469 37.1247L324.776 36.4852L324.098 37.22ZM316.658 42.8L316.261 41.8821L316.658 42.8ZM306.758 43.72C302.626 43.72 298.909 42.8333 295.585 41.076L294.65 42.844C298.287 44.7667 302.329 45.72 306.758 45.72V43.72ZM295.597 41.0825C292.308 39.2848 289.718 36.8265 287.812 33.6994L286.104 34.7406C288.197 38.1735 291.048 40.8752 294.638 42.8375L295.597 41.0825ZM287.819 33.7116C285.957 30.5577 285.018 26.9958 285.018 23H283.018C283.018 27.3242 284.039 31.2423 286.097 34.7284L287.819 33.7116ZM285.018 23C285.018 19.0041 285.957 15.4643 287.816 12.353L286.099 11.327C284.039 14.7757 283.018 18.6759 283.018 23H285.018ZM287.814 12.356C289.721 9.19146 292.307 6.73736 295.589 4.98178L294.646 3.21821C291.048 5.14264 288.195 7.84854 286.101 11.324L287.814 12.356ZM295.593 4.97982C298.914 3.18582 302.648 2.28 306.818 2.28V0.279999C302.347 0.279999 298.282 1.25418 294.642 3.22018L295.593 4.97982ZM306.818 2.28C310.339 2.28 313.48 2.89869 316.256 4.11587L317.059 2.28413C313.996 0.941314 310.576 0.279999 306.818 0.279999V2.28ZM316.261 4.11786C319.082 5.33774 321.433 7.08451 323.33 9.36018L324.866 8.07981C322.762 5.55549 320.154 3.62226 317.055 2.28214L316.261 4.11786ZM323.419 7.9852L317.179 13.7452L318.536 15.2148L324.776 9.4548L323.419 7.9852ZM318.614 13.8254C315.591 10.3343 311.799 8.56 307.298 8.56V10.56C311.197 10.56 314.445 12.0657 317.102 15.1346L318.614 13.8254ZM307.298 8.56C304.544 8.56 302.05 9.17605 299.843 10.4307L300.832 12.1693C302.706 11.104 304.852 10.56 307.298 10.56V8.56ZM299.856 10.4234C297.653 11.6333 295.919 13.3462 294.668 15.5457L296.407 16.5343C297.476 14.6538 298.943 13.2067 300.819 12.1766L299.856 10.4234ZM294.661 15.5587C293.451 17.7629 292.858 20.2518 292.858 23H294.858C294.858 20.5482 295.384 18.3971 296.414 16.5213L294.661 15.5587ZM292.858 23C292.858 25.7482 293.451 28.2371 294.661 30.4413L296.414 29.4787C295.384 27.6029 294.858 25.4518 294.858 23H292.858ZM294.668 30.4543C295.917 32.6508 297.647 34.3803 299.843 35.6293L300.832 33.8907C298.949 32.8197 297.478 31.3492 296.407 29.4657L294.668 30.4543ZM299.856 35.6366C302.061 36.8467 304.55 37.44 307.298 37.44V35.44C304.846 35.44 302.695 34.9133 300.819 33.8834L299.856 35.6366ZM307.298 37.44C311.803 37.44 315.596 35.6419 318.618 32.11L317.098 30.81C314.439 33.9181 311.192 35.44 307.298 35.44V37.44ZM317.179 32.1948L323.419 37.9548L324.776 36.4852L318.536 30.7252L317.179 32.1948ZM323.324 36.5861C321.428 38.9 319.078 40.664 316.261 41.8821L317.055 43.7179C320.158 42.376 322.768 40.42 324.871 37.8539L323.324 36.5861ZM316.261 41.8821C313.441 43.1014 310.279 43.72 306.758 43.72V45.72C310.517 45.72 313.954 45.0586 317.055 43.7179L316.261 41.8821ZM355.885 9.92H356.885V8.92H355.885V9.92ZM342.445 9.92H341.445V10.92H342.445V9.92ZM342.445 2V0.999997H341.445V2H342.445ZM379.045 2H380.045V0.999997H379.045V2ZM379.045 9.92V10.92H380.045V9.92H379.045ZM365.605 9.92V8.92H364.605V9.92H365.605ZM365.605 44V45H366.605V44H365.605ZM355.885 44H354.885V45H355.885V44ZM355.885 8.92H342.445V10.92H355.885V8.92ZM343.445 9.92V2H341.445V9.92H343.445ZM342.445 3H379.045V0.999997H342.445V3ZM378.045 2V9.92H380.045V2H378.045ZM379.045 8.92H365.605V10.92H379.045V8.92ZM364.605 9.92V44H366.605V9.92H364.605ZM365.605 43H355.885V45H365.605V43ZM356.885 44V9.92H354.885V44H356.885ZM409.826 35L410.75 34.618L410.494 34H409.826V35ZM390.326 35V34H389.657L389.401 34.618L390.326 35ZM386.606 44V45H387.274L387.53 44.382L386.606 44ZM376.646 44L375.732 43.5929L375.105 45H376.646V44ZM395.366 2V0.999997H394.716L394.452 1.59289L395.366 2ZM404.966 2L405.878 1.5918L405.614 0.999997H404.966V2ZM423.746 44V45H425.288L424.658 43.5918L423.746 44ZM413.546 44L412.621 44.382L412.877 45H413.546V44ZM406.766 27.62V28.62H408.262L407.689 27.2373L406.766 27.62ZM400.106 11.54L401.029 11.1573L400.106 8.92669L399.182 11.1573L400.106 11.54ZM393.446 27.62L392.522 27.2373L391.949 28.62H393.446V27.62ZM409.826 34H390.326V36H409.826V34ZM389.401 34.618L385.681 43.618L387.53 44.382L391.25 35.382L389.401 34.618ZM386.606 43H376.646V45H386.606V43ZM377.559 44.4071L396.279 2.4071L394.452 1.59289L375.732 43.5929L377.559 44.4071ZM395.366 3H404.966V0.999997H395.366V3ZM404.053 2.40819L422.833 44.4082L424.658 43.5918L405.878 1.5918L404.053 2.40819ZM423.746 43H413.546V45H423.746V43ZM414.47 43.618L410.75 34.618L408.901 35.382L412.621 44.382L414.47 43.618ZM407.689 27.2373L401.029 11.1573L399.182 11.9227L405.842 28.0027L407.689 27.2373ZM399.182 11.1573L392.522 27.2373L394.369 28.0027L401.029 11.9227L399.182 11.1573ZM393.446 28.62H406.766V26.62H393.446V28.62ZM466.198 2L467.116 2.39724L467.72 0.999997H466.198V2ZM448.018 44V45H448.675L448.936 44.3972L448.018 44ZM438.418 44L437.5 44.3961L437.76 45H438.418V44ZM420.298 2V0.999997H418.777L419.38 2.39613L420.298 2ZM430.798 2L431.718 1.60808L431.459 0.999997H430.798V2ZM443.578 32L442.658 32.3919L443.571 34.5365L444.496 32.3966L443.578 32ZM456.538 2V0.999997H455.881L455.62 1.60342L456.538 2ZM465.28 1.60276L447.1 43.6028L448.936 44.3972L467.116 2.39724L465.28 1.60276ZM448.018 43H438.418V45H448.018V43ZM439.336 43.6039L421.216 1.60386L419.38 2.39613L437.5 44.3961L439.336 43.6039ZM420.298 3H430.798V0.999997H420.298V3ZM429.878 2.39192L442.658 32.3919L444.498 31.6081L431.718 1.60808L429.878 2.39192ZM444.496 32.3966L457.456 2.39657L455.62 1.60342L442.66 31.6034L444.496 32.3966ZM456.538 3H466.198V0.999997H456.538V3ZM469.705 2V0.999997H468.705V2H469.705ZM479.425 2H480.425V0.999997H479.425V2ZM479.425 44V45H480.425V44H479.425ZM469.705 44H468.705V45H469.705V44ZM469.705 3H479.425V0.999997H469.705V3ZM478.425 2V44H480.425V2H478.425ZM479.425 43H469.705V45H479.425V43ZM470.705 44V2H468.705V44H470.705ZM504.524 2V0.999997H503.454L503.527 2.06767L504.524 2ZM515.684 2L516.682 2.06767L516.754 0.999997H515.684V2ZM513.824 29.42V30.42H514.759L514.822 29.4877L513.824 29.42ZM506.384 29.42L505.387 29.4877L505.45 30.42H506.384V29.42ZM505.964 42.92L505.257 43.6271L505.27 43.6402L505.284 43.6528L505.964 42.92ZM505.964 35.24L506.644 35.9738L506.651 35.9671L506.658 35.9603L505.964 35.24ZM514.244 35.24L513.551 35.9603L513.558 35.9671L513.565 35.9738L514.244 35.24ZM514.184 42.92L514.878 43.6403L514.878 43.6398L514.184 42.92ZM504.524 3H515.684V0.999997H504.524V3ZM514.687 1.93232L512.827 29.3523L514.822 29.4877L516.682 2.06767L514.687 1.93232ZM513.824 28.42H506.384V30.42H513.824V28.42ZM507.382 29.3523L505.522 1.93232L503.527 2.06767L505.387 29.4877L507.382 29.3523ZM510.104 43.48C508.697 43.48 507.566 43.0422 506.645 42.1872L505.284 43.6528C506.603 44.8778 508.232 45.48 510.104 45.48V43.48ZM506.671 42.2129C505.778 41.3194 505.344 40.2733 505.344 39.02H503.344C503.344 40.8067 503.991 42.3606 505.257 43.6271L506.671 42.2129ZM505.344 39.02C505.344 37.7683 505.776 36.7776 506.644 35.9738L505.285 34.5062C503.993 35.7024 503.344 37.2317 503.344 39.02H505.344ZM506.658 35.9603C507.529 35.1219 508.649 34.68 510.104 34.68V32.68C508.199 32.68 506.56 33.278 505.271 34.5197L506.658 35.9603ZM510.104 34.68C511.559 34.68 512.68 35.1219 513.551 35.9603L514.938 34.5197C513.649 33.278 512.009 32.68 510.104 32.68V34.68ZM513.565 35.9738C514.433 36.7776 514.864 37.7683 514.864 39.02H516.864C516.864 37.2317 516.216 35.7024 514.924 34.5062L513.565 35.9738ZM514.864 39.02C514.864 40.2613 514.42 41.3036 513.49 42.2002L514.878 43.6398C516.189 42.3764 516.864 40.8187 516.864 39.02H514.864ZM513.491 42.1997C512.615 43.0426 511.512 43.48 510.104 43.48V45.48C511.976 45.48 513.593 44.8774 514.878 43.6403L513.491 42.1997Z" fill="url(#paint0_linear)"/>
</g>
<defs>
<filter id="filter0_d" x="0.47168" y="0.279785" width="520.392" height="53.44" filterUnits="userSpaceOnUse" color-interpolation-filters="sRGB">
<feFlood flood-opacity="0" result="BackgroundImageFix"/>
<feColorMatrix in="SourceAlpha" type="matrix" values="0 0 0 0 0 0 0 0 0 0 0 0 0 0 0 0 0 0 127 0"/>
<feOffset dy="4"/>
<feGaussianBlur stdDeviation="2"/>
<feColorMatrix type="matrix" values="0 0 0 0 0 0 0 0 0 0 0 0 0 0 0 0 0 0 0.25 0"/>
<feBlend mode="normal" in2="BackgroundImageFix" result="effect1_dropShadow"/>
<feBlend mode="normal" in="SourceGraphic" in2="effect1_dropShadow" result="shape"/>
</filter>
<linearGradient id="paint0_linear" x1="84.6979" y1="44.0451" x2="99.7142" y2="-48.2876" gradientUnits="userSpaceOnUse">
<stop stop-color="#FF80A4"/>
<stop offset="1" stop-color="#FFA984"/>
</linearGradient>
</defs>
</svg>
