<svg width="14" height="18" viewBox="0 0 14 18" fill="none" xmlns="http://www.w3.org/2000/svg">
<path d="M6.69984 0.199999V17H4.32384V2.288H0.531844V0.199999H6.69984ZM11.9587 17.144C11.5107 17.144 11.1267 16.992 10.8067 16.688C10.4867 16.368 10.3267 15.968 10.3267 15.488C10.3267 15.024 10.4867 14.64 10.8067 14.336C11.1267 14.016 11.5107 13.856 11.9587 13.856C12.4067 13.856 12.7827 14.008 13.0867 14.312C13.3907 14.616 13.5427 15.008 13.5427 15.488C13.5427 15.968 13.3827 16.368 13.0627 16.688C12.7587 16.992 12.3907 17.144 11.9587 17.144Z" fill="url(#paint0_linear)"/>
<defs>
<linearGradient id="paint0_linear" x1="2.44792" y1="15.6736" x2="15.9332" y2="8.94498" gradientUnits="userSpaceOnUse">
<stop stop-color="#FF80A4"/>
<stop offset="1" stop-color="#FFA984"/>
</linearGradient>
</defs>
</svg>
