<svg width="19" height="18" viewBox="0 0 19 18" fill="none" xmlns="http://www.w3.org/2000/svg">
<path d="M13.2334 14.912V17H1.16144V15.368L8.00144 8.768C8.83344 7.968 9.39344 7.28 9.68144 6.704C9.96944 6.112 10.1134 5.52 10.1134 4.928C10.1134 4.048 9.80144 3.368 9.17744 2.888C8.56944 2.392 7.68944 2.144 6.53744 2.144C4.68144 2.144 3.24944 2.752 2.24144 3.968L0.609438 2.552C1.26544 1.752 2.12144 1.128 3.17744 0.68C4.24944 0.232 5.44144 0.0079999 6.75344 0.0079999C8.51344 0.0079999 9.91344 0.432 10.9534 1.28C11.9934 2.112 12.5134 3.248 12.5134 4.688C12.5134 5.584 12.3214 6.432 11.9374 7.232C11.5534 8.032 10.8254 8.944 9.75344 9.968L4.61744 14.912H13.2334ZM17.0251 17.144C16.5771 17.144 16.1931 16.992 15.8731 16.688C15.5531 16.368 15.3931 15.968 15.3931 15.488C15.3931 15.024 15.5531 14.64 15.8731 14.336C16.1931 14.016 16.5771 13.856 17.0251 13.856C17.4731 13.856 17.8491 14.008 18.1531 14.312C18.4571 14.616 18.6091 15.008 18.6091 15.488C18.6091 15.968 18.4491 16.368 18.1291 16.688C17.8251 16.992 17.4571 17.144 17.0251 17.144Z" fill="url(#paint0_linear)"/>
<defs>
<linearGradient id="paint0_linear" x1="3.26389" y1="15.6736" x2="18.8308" y2="5.31723" gradientUnits="userSpaceOnUse">
<stop stop-color="#FF80A4"/>
<stop offset="1" stop-color="#FFA984"/>
</linearGradient>
</defs>
</svg>
