<svg width="19" height="18" viewBox="0 0 19 18" fill="none" xmlns="http://www.w3.org/2000/svg">
<path d="M7.99806 7.256C9.64606 7.416 10.9021 7.928 11.7661 8.792C12.6301 9.64 13.0621 10.728 13.0621 12.056C13.0621 13.016 12.8221 13.888 12.3421 14.672C11.8621 15.44 11.1421 16.056 10.1821 16.52C9.23806 16.968 8.07806 17.192 6.70206 17.192C5.50206 17.192 4.35006 17.016 3.24606 16.664C2.14206 16.296 1.23806 15.792 0.534063 15.152L1.63806 13.256C2.21406 13.8 2.95006 14.24 3.84606 14.576C4.74206 14.896 5.69406 15.056 6.70206 15.056C7.95006 15.056 8.91806 14.792 9.60606 14.264C10.3101 13.736 10.6621 13.008 10.6621 12.08C10.6621 11.152 10.3181 10.432 9.63006 9.92C8.94206 9.408 7.90206 9.152 6.51006 9.152H5.16606V7.472L9.39006 2.288H1.30206V0.199999H12.3901V1.832L7.99806 7.256ZM16.8844 17.144C16.4364 17.144 16.0524 16.992 15.7324 16.688C15.4124 16.368 15.2524 15.968 15.2524 15.488C15.2524 15.024 15.4124 14.64 15.7324 14.336C16.0524 14.016 16.4364 13.856 16.8844 13.856C17.3324 13.856 17.7084 14.008 18.0124 14.312C18.3164 14.616 18.4684 15.008 18.4684 15.488C18.4684 15.968 18.3084 16.368 17.9884 16.688C17.6844 16.992 17.3164 17.144 16.8844 17.144Z" fill="url(#paint0_linear)"/>
<defs>
<linearGradient id="paint0_linear" x1="3.26389" y1="15.6736" x2="18.8308" y2="5.31723" gradientUnits="userSpaceOnUse">
<stop stop-color="#FF80A4"/>
<stop offset="1" stop-color="#FFA984"/>
</linearGradient>
</defs>
</svg>
