<svg width="21" height="18" viewBox="0 0 21 18" fill="none" xmlns="http://www.w3.org/2000/svg">
<path d="M15.7875 12.872H12.5955V17H10.2675V12.872H0.931531V11.192L9.52353 0.199999H12.1155L3.88353 10.808H10.3395V7.16H12.5955V10.808H15.7875V12.872ZM19.279 17.144C18.831 17.144 18.447 16.992 18.127 16.688C17.807 16.368 17.647 15.968 17.647 15.488C17.647 15.024 17.807 14.64 18.127 14.336C18.447 14.016 18.831 13.856 19.279 13.856C19.727 13.856 20.103 14.008 20.407 14.312C20.711 14.616 20.863 15.008 20.863 15.488C20.863 15.968 20.703 16.368 20.383 16.688C20.079 16.992 19.711 17.144 19.279 17.144Z" fill="url(#paint0_linear)"/>
<defs>
<linearGradient id="paint0_linear" x1="3.59028" y1="15.6736" x2="19.6774" y2="3.9009" gradientUnits="userSpaceOnUse">
<stop stop-color="#FF80A4"/>
<stop offset="1" stop-color="#FFA984"/>
</linearGradient>
</defs>
</svg>
