<svg width="45" height="45" viewBox="0 0 45 45" fill="none" xmlns="http://www.w3.org/2000/svg">
<circle opacity="0.3" cx="22.5" cy="22.5" r="22.5" fill="#FFC2A8"/>
<path d="M28.5694 28.912V31H16.4974V29.368L23.3374 22.768C24.1694 21.968 24.7294 21.28 25.0174 20.704C25.3054 20.112 25.4494 19.52 25.4494 18.928C25.4494 18.048 25.1374 17.368 24.5134 16.888C23.9054 16.392 23.0254 16.144 21.8734 16.144C20.0174 16.144 18.5854 16.752 17.5774 17.968L15.9454 16.552C16.6014 15.752 17.4574 15.128 18.5134 14.68C19.5854 14.232 20.7774 14.008 22.0894 14.008C23.8494 14.008 25.2494 14.432 26.2894 15.28C27.3294 16.112 27.8494 17.248 27.8494 18.688C27.8494 19.584 27.6574 20.432 27.2734 21.232C26.8894 22.032 26.1614 22.944 25.0894 23.968L19.9534 28.912H28.5694Z" fill="url(#paint0_linear)"/>
<defs>
<linearGradient id="paint0_linear" x1="14.7535" y1="29.6736" x2="31.0436" y2="17.2105" gradientUnits="userSpaceOnUse">
<stop stop-color="#FF80A4"/>
<stop offset="1" stop-color="#FFA984"/>
</linearGradient>
</defs>
</svg>
