<svg width="45" height="45" viewBox="0 0 45 45" fill="none" xmlns="http://www.w3.org/2000/svg">
<circle opacity="0.3" cx="22.5" cy="22.5" r="22.5" fill="#FFC2A8"/>
<path d="M23.2168 21.256C24.8648 21.416 26.1208 21.928 26.9848 22.792C27.8488 23.64 28.2808 24.728 28.2808 26.056C28.2808 27.016 28.0408 27.888 27.5608 28.672C27.0808 29.44 26.3608 30.056 25.4008 30.52C24.4568 30.968 23.2968 31.192 21.9208 31.192C20.7208 31.192 19.5688 31.016 18.4648 30.664C17.3608 30.296 16.4568 29.792 15.7528 29.152L16.8568 27.256C17.4328 27.8 18.1688 28.24 19.0648 28.576C19.9608 28.896 20.9128 29.056 21.9208 29.056C23.1688 29.056 24.1368 28.792 24.8248 28.264C25.5288 27.736 25.8808 27.008 25.8808 26.08C25.8808 25.152 25.5368 24.432 24.8488 23.92C24.1608 23.408 23.1208 23.152 21.7288 23.152H20.3848V21.472L24.6088 16.288H16.5208V14.2H27.6088V15.832L23.2168 21.256Z" fill="url(#paint0_linear)"/>
<defs>
<linearGradient id="paint0_linear" x1="14.7535" y1="29.6736" x2="31.0436" y2="17.2105" gradientUnits="userSpaceOnUse">
<stop stop-color="#FF80A4"/>
<stop offset="1" stop-color="#FFA984"/>
</linearGradient>
</defs>
</svg>
