<svg width="45" height="45" viewBox="0 0 45 45" fill="none" xmlns="http://www.w3.org/2000/svg">
<circle opacity="0.3" cx="22.5" cy="22.5" r="22.5" fill="#FFC2A8"/>
<path d="M21.5614 20.896C23.9614 20.896 25.7214 21.352 26.8414 22.264C27.9774 23.16 28.5454 24.392 28.5454 25.96C28.5454 26.952 28.3054 27.848 27.8254 28.648C27.3614 29.432 26.6494 30.056 25.6894 30.52C24.7454 30.968 23.5774 31.192 22.1854 31.192C21.0014 31.192 19.8574 31.016 18.7534 30.664C17.6494 30.296 16.7374 29.792 16.0174 29.152L17.1214 27.256C17.6974 27.8 18.4334 28.24 19.3294 28.576C20.2254 28.896 21.1694 29.056 22.1614 29.056C23.4254 29.056 24.4014 28.792 25.0894 28.264C25.7934 27.72 26.1454 26.984 26.1454 26.056C26.1454 25.048 25.7614 24.288 24.9934 23.776C24.2254 23.248 22.9134 22.984 21.0574 22.984H17.2414L18.1294 14.2H27.6094V16.288H20.1454L19.6894 20.896H21.5614Z" fill="url(#paint0_linear)"/>
<defs>
<linearGradient id="paint0_linear" x1="14.7535" y1="29.6736" x2="31.0436" y2="17.2105" gradientUnits="userSpaceOnUse">
<stop stop-color="#FF80A4"/>
<stop offset="1" stop-color="#FFA984"/>
</linearGradient>
</defs>
</svg>
