<svg width="45" height="45" viewBox="0 0 45 45" fill="none" xmlns="http://www.w3.org/2000/svg">
<circle opacity="0.3" cx="22.5" cy="22.5" r="22.5" fill="#FFC2A8"/>
<path d="M23.4938 20.8C24.5978 20.8 25.5818 21.008 26.4458 21.424C27.3258 21.84 28.0138 22.44 28.5098 23.224C29.0058 23.992 29.2538 24.88 29.2538 25.888C29.2538 26.944 28.9898 27.872 28.4618 28.672C27.9498 29.472 27.2378 30.096 26.3258 30.544C25.4298 30.976 24.4218 31.192 23.3018 31.192C21.0458 31.192 19.3018 30.464 18.0698 29.008C16.8538 27.552 16.2458 25.488 16.2458 22.816C16.2458 20.944 16.5738 19.352 17.2298 18.04C17.9018 16.712 18.8298 15.712 20.0138 15.04C21.2138 14.352 22.6058 14.008 24.1898 14.008C25.0058 14.008 25.7738 14.096 26.4938 14.272C27.2138 14.432 27.8378 14.672 28.3658 14.992L27.4538 16.864C26.6538 16.336 25.5818 16.072 24.2378 16.072C22.4938 16.072 21.1258 16.616 20.1338 17.704C19.1418 18.776 18.6458 20.344 18.6458 22.408C18.6458 22.664 18.6538 22.864 18.6698 23.008C19.1498 22.288 19.8058 21.744 20.6378 21.376C21.4858 20.992 22.4378 20.8 23.4938 20.8ZM23.2058 29.248C24.3098 29.248 25.2058 28.952 25.8938 28.36C26.5818 27.768 26.9258 26.976 26.9258 25.984C26.9258 24.992 26.5738 24.208 25.8698 23.632C25.1818 23.04 24.2538 22.744 23.0858 22.744C22.3338 22.744 21.6618 22.888 21.0698 23.176C20.4938 23.464 20.0378 23.856 19.7018 24.352C19.3818 24.848 19.2218 25.4 19.2218 26.008C19.2218 26.6 19.3738 27.144 19.6778 27.64C19.9978 28.12 20.4538 28.512 21.0458 28.816C21.6538 29.104 22.3738 29.248 23.2058 29.248Z" fill="url(#paint0_linear)"/>
<defs>
<linearGradient id="paint0_linear" x1="14.7535" y1="29.6736" x2="31.0436" y2="17.2105" gradientUnits="userSpaceOnUse">
<stop stop-color="#FF80A4"/>
<stop offset="1" stop-color="#FFA984"/>
</linearGradient>
</defs>
</svg>
