<svg width="595" height="395" viewBox="0 0 595 395" fill="none" xmlns="http://www.w3.org/2000/svg">
<path d="M173.828 263.6C175.001 263.664 175.892 263.984 176.5 264.56C177.118 265.125 177.428 265.867 177.428 266.784C177.428 267.424 177.273 267.995 176.964 268.496C176.654 268.987 176.196 269.376 175.588 269.664C174.98 269.952 174.238 270.096 173.364 270.096C172.553 270.096 171.785 269.968 171.06 269.712C170.345 269.445 169.769 269.093 169.332 268.656L169.892 267.744C170.265 268.128 170.761 268.443 171.38 268.688C171.998 268.923 172.66 269.04 173.364 269.04C174.281 269.04 174.99 268.843 175.492 268.448C175.993 268.043 176.244 267.488 176.244 266.784C176.244 266.091 175.993 265.547 175.492 265.152C174.99 264.757 174.233 264.56 173.22 264.56H172.42V263.712L175.524 259.824H169.796V258.8H176.996V259.616L173.828 263.6ZM183.515 270.096C182.651 270.096 181.877 269.867 181.195 269.408C180.523 268.949 179.995 268.293 179.611 267.44C179.237 266.576 179.051 265.563 179.051 264.4C179.051 263.237 179.237 262.229 179.611 261.376C179.995 260.512 180.523 259.851 181.195 259.392C181.877 258.933 182.651 258.704 183.515 258.704C184.379 258.704 185.147 258.933 185.819 259.392C186.501 259.851 187.035 260.512 187.419 261.376C187.803 262.229 187.995 263.237 187.995 264.4C187.995 265.563 187.803 266.576 187.419 267.44C187.035 268.293 186.501 268.949 185.819 269.408C185.147 269.867 184.379 270.096 183.515 270.096ZM183.515 269.04C184.165 269.04 184.736 268.859 185.227 268.496C185.728 268.133 186.117 267.605 186.395 266.912C186.672 266.219 186.811 265.381 186.811 264.4C186.811 263.419 186.672 262.581 186.395 261.888C186.117 261.195 185.728 260.667 185.227 260.304C184.736 259.941 184.165 259.76 183.515 259.76C182.864 259.76 182.288 259.941 181.787 260.304C181.296 260.667 180.912 261.195 180.635 261.888C180.357 262.581 180.219 263.419 180.219 264.4C180.219 265.381 180.357 266.219 180.635 266.912C180.912 267.605 181.296 268.133 181.787 268.496C182.288 268.859 182.864 269.04 183.515 269.04Z" fill="#D7D7D7"/>
<g filter="url(#filter0_d)">
<rect x="60" y="55" width="455" height="255" fill="white"/>
</g>
<rect x="111" y="100" width="15" height="151" rx="7.5" fill="url(#paint0_linear)"/>
<rect x="351" y="100" width="15" height="151" rx="7.5" fill="url(#paint1_linear)"/>
<rect x="231" y="100" width="15" height="151" rx="7.5" fill="url(#paint2_linear)"/>
<rect x="171" y="100" width="15" height="151" rx="7.5" fill="url(#paint3_linear)"/>
<rect x="291" y="100" width="15" height="151" rx="7.5" fill="url(#paint4_linear)"/>
<rect x="411" y="100" width="15" height="151" rx="7.5" fill="url(#paint5_linear)"/>
<rect x="141" y="100" width="15" height="151" rx="7.5" fill="url(#paint6_linear)"/>
<rect x="381" y="100" width="15" height="151" rx="7.5" fill="url(#paint7_linear)"/>
<rect x="261" y="100" width="15" height="151" rx="7.5" fill="url(#paint8_linear)"/>
<rect x="201" y="100" width="15" height="151" rx="7.5" fill="url(#paint9_linear)"/>
<rect x="321" y="100" width="15" height="151" rx="7.5" fill="url(#paint10_linear)"/>
<rect x="441" y="100" width="15" height="151" rx="7.5" fill="url(#paint11_linear)"/>
<rect x="111" y="149" width="15" height="102" rx="7.5" fill="url(#paint12_linear)"/>
<rect x="351" y="218" width="15" height="33" rx="7.5" fill="url(#paint13_linear)"/>
<rect x="231" y="145" width="15" height="106" rx="7.5" fill="url(#paint14_linear)"/>
<rect x="171" y="172" width="15" height="79" rx="7.5" fill="url(#paint15_linear)"/>
<rect x="291" y="116" width="15" height="135" rx="7.5" fill="url(#paint16_linear)"/>
<rect x="411" y="136" width="15" height="115" rx="7.5" fill="url(#paint17_linear)"/>
<rect x="141" y="123" width="15" height="128" rx="7.5" fill="url(#paint18_linear)"/>
<rect x="381" y="165" width="15" height="86" rx="7.5" fill="url(#paint19_linear)"/>
<rect x="261" y="172" width="15" height="79" rx="7.5" fill="url(#paint20_linear)"/>
<rect x="201" y="123" width="15" height="128" rx="7.5" fill="url(#paint21_linear)"/>
<rect x="321" y="185" width="15" height="66" rx="7.5" fill="url(#paint22_linear)"/>
<rect x="441" y="199" width="15" height="52" rx="7.5" fill="url(#paint23_linear)"/>
<path d="M114.249 258.8V270H113.097V259.824H110.457V258.8H114.249ZM121.39 270.096C120.526 270.096 119.752 269.867 119.07 269.408C118.398 268.949 117.87 268.293 117.486 267.44C117.112 266.576 116.926 265.563 116.926 264.4C116.926 263.237 117.112 262.229 117.486 261.376C117.87 260.512 118.398 259.851 119.07 259.392C119.752 258.933 120.526 258.704 121.39 258.704C122.254 258.704 123.022 258.933 123.694 259.392C124.376 259.851 124.91 260.512 125.294 261.376C125.678 262.229 125.87 263.237 125.87 264.4C125.87 265.563 125.678 266.576 125.294 267.44C124.91 268.293 124.376 268.949 123.694 269.408C123.022 269.867 122.254 270.096 121.39 270.096ZM121.39 269.04C122.04 269.04 122.611 268.859 123.102 268.496C123.603 268.133 123.992 267.605 124.27 266.912C124.547 266.219 124.686 265.381 124.686 264.4C124.686 263.419 124.547 262.581 124.27 261.888C123.992 261.195 123.603 260.667 123.102 260.304C122.611 259.941 122.04 259.76 121.39 259.76C120.739 259.76 120.163 259.941 119.662 260.304C119.171 260.667 118.787 261.195 118.51 261.888C118.232 262.581 118.094 263.419 118.094 264.4C118.094 265.381 118.232 266.219 118.51 266.912C118.787 267.605 119.171 268.133 119.662 268.496C120.163 268.859 120.739 269.04 121.39 269.04Z" fill="#D7D7D7"/>
<path d="M232.948 263.392C234.569 263.392 235.748 263.685 236.484 264.272C237.231 264.848 237.604 265.659 237.604 266.704C237.604 267.355 237.449 267.936 237.14 268.448C236.841 268.96 236.388 269.365 235.78 269.664C235.172 269.952 234.425 270.096 233.54 270.096C232.74 270.096 231.977 269.968 231.252 269.712C230.537 269.445 229.961 269.093 229.524 268.656L230.084 267.744C230.457 268.128 230.948 268.443 231.556 268.688C232.164 268.923 232.82 269.04 233.524 269.04C234.452 269.04 235.167 268.832 235.668 268.416C236.18 268 236.436 267.445 236.436 266.752C236.436 265.984 236.148 265.403 235.572 265.008C235.007 264.613 234.047 264.416 232.692 264.416H230.308L230.884 258.8H237.012V259.824H231.892L231.508 263.392H232.948ZM243.53 270.096C242.666 270.096 241.893 269.867 241.21 269.408C240.538 268.949 240.01 268.293 239.626 267.44C239.253 266.576 239.066 265.563 239.066 264.4C239.066 263.237 239.253 262.229 239.626 261.376C240.01 260.512 240.538 259.851 241.21 259.392C241.893 258.933 242.666 258.704 243.53 258.704C244.394 258.704 245.162 258.933 245.834 259.392C246.517 259.851 247.05 260.512 247.434 261.376C247.818 262.229 248.01 263.237 248.01 264.4C248.01 265.563 247.818 266.576 247.434 267.44C247.05 268.293 246.517 268.949 245.834 269.408C245.162 269.867 244.394 270.096 243.53 270.096ZM243.53 269.04C244.181 269.04 244.752 268.859 245.242 268.496C245.744 268.133 246.133 267.605 246.41 266.912C246.688 266.219 246.826 265.381 246.826 264.4C246.826 263.419 246.688 262.581 246.41 261.888C246.133 261.195 245.744 260.667 245.242 260.304C244.752 259.941 244.181 259.76 243.53 259.76C242.88 259.76 242.304 259.941 241.802 260.304C241.312 260.667 240.928 261.195 240.65 261.888C240.373 262.581 240.234 263.419 240.234 264.4C240.234 265.381 240.373 266.219 240.65 266.912C240.928 267.605 241.312 268.133 241.802 268.496C242.304 268.859 242.88 269.04 243.53 269.04Z" fill="#D7D7D7"/>
<path d="M298.884 258.8V259.616L294.196 270H292.948L297.556 259.824H291.796V261.92H290.66V258.8H298.884ZM304.554 270.096C303.69 270.096 302.916 269.867 302.234 269.408C301.562 268.949 301.034 268.293 300.65 267.44C300.276 266.576 300.09 265.563 300.09 264.4C300.09 263.237 300.276 262.229 300.65 261.376C301.034 260.512 301.562 259.851 302.234 259.392C302.916 258.933 303.69 258.704 304.554 258.704C305.418 258.704 306.186 258.933 306.858 259.392C307.54 259.851 308.074 260.512 308.458 261.376C308.842 262.229 309.034 263.237 309.034 264.4C309.034 265.563 308.842 266.576 308.458 267.44C308.074 268.293 307.54 268.949 306.858 269.408C306.186 269.867 305.418 270.096 304.554 270.096ZM304.554 269.04C305.204 269.04 305.775 268.859 306.266 268.496C306.767 268.133 307.156 267.605 307.434 266.912C307.711 266.219 307.85 265.381 307.85 264.4C307.85 263.419 307.711 262.581 307.434 261.888C307.156 261.195 306.767 260.667 306.266 260.304C305.775 259.941 305.204 259.76 304.554 259.76C303.903 259.76 303.327 259.941 302.826 260.304C302.335 260.667 301.951 261.195 301.674 261.888C301.396 262.581 301.258 263.419 301.258 264.4C301.258 265.381 301.396 266.219 301.674 266.912C301.951 267.605 302.335 268.133 302.826 268.496C303.327 268.859 303.903 269.04 304.554 269.04Z" fill="#D7D7D7"/>
<path d="M413.358 258.8V270H412.206V259.824H409.566V258.8H413.358ZM419.139 258.8V270H417.987V259.824H415.347V258.8H419.139ZM426.28 270.096C425.416 270.096 424.643 269.867 423.96 269.408C423.288 268.949 422.76 268.293 422.376 267.44C422.003 266.576 421.816 265.563 421.816 264.4C421.816 263.237 422.003 262.229 422.376 261.376C422.76 260.512 423.288 259.851 423.96 259.392C424.643 258.933 425.416 258.704 426.28 258.704C427.144 258.704 427.912 258.933 428.584 259.392C429.267 259.851 429.8 260.512 430.184 261.376C430.568 262.229 430.76 263.237 430.76 264.4C430.76 265.563 430.568 266.576 430.184 267.44C429.8 268.293 429.267 268.949 428.584 269.408C427.912 269.867 427.144 270.096 426.28 270.096ZM426.28 269.04C426.931 269.04 427.502 268.859 427.992 268.496C428.494 268.133 428.883 267.605 429.16 266.912C429.438 266.219 429.576 265.381 429.576 264.4C429.576 263.419 429.438 262.581 429.16 261.888C428.883 261.195 428.494 260.667 427.992 260.304C427.502 259.941 426.931 259.76 426.28 259.76C425.63 259.76 425.054 259.941 424.552 260.304C424.062 260.667 423.678 261.195 423.4 261.888C423.123 262.581 422.984 263.419 422.984 264.4C422.984 265.381 423.123 266.219 423.4 266.912C423.678 267.605 424.062 268.133 424.552 268.496C425.054 268.859 425.63 269.04 426.28 269.04Z" fill="#D7D7D7"/>
<path d="M353.648 258.704C355.131 258.704 356.267 259.195 357.056 260.176C357.845 261.147 358.24 262.523 358.24 264.304C358.24 265.552 358.027 266.608 357.6 267.472C357.173 268.336 356.576 268.992 355.808 269.44C355.04 269.877 354.144 270.096 353.12 270.096C352.011 270.096 351.125 269.893 350.464 269.488L350.928 268.56C351.461 268.912 352.187 269.088 353.104 269.088C354.341 269.088 355.312 268.699 356.016 267.92C356.72 267.131 357.072 265.989 357.072 264.496C357.072 264.219 357.056 263.915 357.024 263.584C356.747 264.192 356.304 264.667 355.696 265.008C355.088 265.339 354.389 265.504 353.6 265.504C352.864 265.504 352.208 265.365 351.632 265.088C351.067 264.811 350.624 264.421 350.304 263.92C349.984 263.408 349.824 262.816 349.824 262.144C349.824 261.461 349.989 260.859 350.32 260.336C350.651 259.813 351.104 259.413 351.68 259.136C352.267 258.848 352.923 258.704 353.648 258.704ZM353.776 264.528C354.341 264.528 354.837 264.421 355.264 264.208C355.701 263.995 356.043 263.701 356.288 263.328C356.533 262.955 356.656 262.539 356.656 262.08C356.656 261.653 356.539 261.259 356.304 260.896C356.08 260.533 355.744 260.24 355.296 260.016C354.848 259.792 354.315 259.68 353.696 259.68C352.885 259.68 352.224 259.904 351.712 260.352C351.211 260.789 350.96 261.376 350.96 262.112C350.96 262.848 351.211 263.435 351.712 263.872C352.224 264.309 352.912 264.528 353.776 264.528ZM364.374 270.096C363.51 270.096 362.737 269.867 362.054 269.408C361.382 268.949 360.854 268.293 360.47 267.44C360.097 266.576 359.91 265.563 359.91 264.4C359.91 263.237 360.097 262.229 360.47 261.376C360.854 260.512 361.382 259.851 362.054 259.392C362.737 258.933 363.51 258.704 364.374 258.704C365.238 258.704 366.006 258.933 366.678 259.392C367.361 259.851 367.894 260.512 368.278 261.376C368.662 262.229 368.854 263.237 368.854 264.4C368.854 265.563 368.662 266.576 368.278 267.44C367.894 268.293 367.361 268.949 366.678 269.408C366.006 269.867 365.238 270.096 364.374 270.096ZM364.374 269.04C365.025 269.04 365.595 268.859 366.086 268.496C366.587 268.133 366.977 267.605 367.254 266.912C367.531 266.219 367.67 265.381 367.67 264.4C367.67 263.419 367.531 262.581 367.254 261.888C366.977 261.195 366.587 260.667 366.086 260.304C365.595 259.941 365.025 259.76 364.374 259.76C363.723 259.76 363.147 259.941 362.646 260.304C362.155 260.667 361.771 261.195 361.494 261.888C361.217 262.581 361.078 263.419 361.078 264.4C361.078 265.381 361.217 266.219 361.494 266.912C361.771 267.605 362.155 268.133 362.646 268.496C363.147 268.859 363.723 269.04 364.374 269.04Z" fill="#D7D7D7"/>
<path d="M145.668 268.976V270H137.812V269.184L142.468 264.624C143.054 264.048 143.449 263.552 143.652 263.136C143.865 262.709 143.972 262.283 143.972 261.856C143.972 261.195 143.742 260.683 143.284 260.32C142.836 259.947 142.19 259.76 141.348 259.76C140.036 259.76 139.017 260.176 138.292 261.008L137.476 260.304C137.913 259.792 138.468 259.397 139.14 259.12C139.822 258.843 140.59 258.704 141.444 258.704C142.585 258.704 143.486 258.976 144.148 259.52C144.82 260.053 145.156 260.789 145.156 261.728C145.156 262.304 145.028 262.859 144.772 263.392C144.516 263.925 144.03 264.539 143.316 265.232L139.508 268.976H145.668ZM151.515 270.096C150.651 270.096 149.877 269.867 149.195 269.408C148.523 268.949 147.995 268.293 147.611 267.44C147.237 266.576 147.051 265.563 147.051 264.4C147.051 263.237 147.237 262.229 147.611 261.376C147.995 260.512 148.523 259.851 149.195 259.392C149.877 258.933 150.651 258.704 151.515 258.704C152.379 258.704 153.147 258.933 153.819 259.392C154.501 259.851 155.035 260.512 155.419 261.376C155.803 262.229 155.995 263.237 155.995 264.4C155.995 265.563 155.803 266.576 155.419 267.44C155.035 268.293 154.501 268.949 153.819 269.408C153.147 269.867 152.379 270.096 151.515 270.096ZM151.515 269.04C152.165 269.04 152.736 268.859 153.227 268.496C153.728 268.133 154.117 267.605 154.395 266.912C154.672 266.219 154.811 265.381 154.811 264.4C154.811 263.419 154.672 262.581 154.395 261.888C154.117 261.195 153.728 260.667 153.227 260.304C152.736 259.941 152.165 259.76 151.515 259.76C150.864 259.76 150.288 259.941 149.787 260.304C149.296 260.667 148.912 261.195 148.635 261.888C148.357 262.581 148.219 263.419 148.219 264.4C148.219 265.381 148.357 266.219 148.635 266.912C148.912 267.605 149.296 268.133 149.787 268.496C150.288 268.859 150.864 269.04 151.515 269.04Z" fill="#D7D7D7"/>
<path d="M263.8 263.296C264.536 263.296 265.187 263.435 265.752 263.712C266.328 263.989 266.776 264.384 267.096 264.896C267.416 265.397 267.576 265.984 267.576 266.656C267.576 267.339 267.411 267.941 267.08 268.464C266.749 268.987 266.291 269.392 265.704 269.68C265.128 269.957 264.477 270.096 263.752 270.096C262.269 270.096 261.133 269.611 260.344 268.64C259.555 267.659 259.16 266.277 259.16 264.496C259.16 263.248 259.373 262.192 259.8 261.328C260.227 260.464 260.824 259.813 261.592 259.376C262.36 258.928 263.256 258.704 264.28 258.704C265.389 258.704 266.275 258.907 266.936 259.312L266.472 260.24C265.939 259.888 265.213 259.712 264.296 259.712C263.059 259.712 262.088 260.107 261.384 260.896C260.68 261.675 260.328 262.811 260.328 264.304C260.328 264.571 260.344 264.875 260.376 265.216C260.653 264.608 261.096 264.139 261.704 263.808C262.312 263.467 263.011 263.296 263.8 263.296ZM263.704 269.12C264.515 269.12 265.171 268.901 265.672 268.464C266.184 268.016 266.44 267.424 266.44 266.688C266.44 265.952 266.184 265.365 265.672 264.928C265.171 264.491 264.488 264.272 263.624 264.272C263.059 264.272 262.557 264.379 262.12 264.592C261.693 264.805 261.357 265.099 261.112 265.472C260.867 265.845 260.744 266.261 260.744 266.72C260.744 267.147 260.856 267.541 261.08 267.904C261.315 268.267 261.656 268.56 262.104 268.784C262.552 269.008 263.085 269.12 263.704 269.12ZM273.374 270.096C272.51 270.096 271.737 269.867 271.054 269.408C270.382 268.949 269.854 268.293 269.47 267.44C269.097 266.576 268.91 265.563 268.91 264.4C268.91 263.237 269.097 262.229 269.47 261.376C269.854 260.512 270.382 259.851 271.054 259.392C271.737 258.933 272.51 258.704 273.374 258.704C274.238 258.704 275.006 258.933 275.678 259.392C276.361 259.851 276.894 260.512 277.278 261.376C277.662 262.229 277.854 263.237 277.854 264.4C277.854 265.563 277.662 266.576 277.278 267.44C276.894 268.293 276.361 268.949 275.678 269.408C275.006 269.867 274.238 270.096 273.374 270.096ZM273.374 269.04C274.025 269.04 274.595 268.859 275.086 268.496C275.587 268.133 275.977 267.605 276.254 266.912C276.531 266.219 276.67 265.381 276.67 264.4C276.67 263.419 276.531 262.581 276.254 261.888C275.977 261.195 275.587 260.667 275.086 260.304C274.595 259.941 274.025 259.76 273.374 259.76C272.723 259.76 272.147 259.941 271.646 260.304C271.155 260.667 270.771 261.195 270.494 261.888C270.217 262.581 270.078 263.419 270.078 264.4C270.078 265.381 270.217 266.219 270.494 266.912C270.771 267.605 271.155 268.133 271.646 268.496C272.147 268.859 272.723 269.04 273.374 269.04Z" fill="#D7D7D7"/>
<path d="M207.766 267.056H205.526V270H204.374V267.056H198.054V266.224L203.99 258.8H205.27L199.542 266.032H204.406V263.44H205.526V266.032H207.766V267.056ZM213.288 270.096C212.424 270.096 211.651 269.867 210.968 269.408C210.296 268.949 209.768 268.293 209.384 267.44C209.011 266.576 208.824 265.563 208.824 264.4C208.824 263.237 209.011 262.229 209.384 261.376C209.768 260.512 210.296 259.851 210.968 259.392C211.651 258.933 212.424 258.704 213.288 258.704C214.152 258.704 214.92 258.933 215.592 259.392C216.275 259.851 216.808 260.512 217.192 261.376C217.576 262.229 217.768 263.237 217.768 264.4C217.768 265.563 217.576 266.576 217.192 267.44C216.808 268.293 216.275 268.949 215.592 269.408C214.92 269.867 214.152 270.096 213.288 270.096ZM213.288 269.04C213.939 269.04 214.51 268.859 215 268.496C215.502 268.133 215.891 267.605 216.168 266.912C216.446 266.219 216.584 265.381 216.584 264.4C216.584 263.419 216.446 262.581 216.168 261.888C215.891 261.195 215.502 260.667 215 260.304C214.51 259.941 213.939 259.76 213.288 259.76C212.638 259.76 212.062 259.941 211.56 260.304C211.07 260.667 210.686 261.195 210.408 261.888C210.131 262.581 209.992 263.419 209.992 264.4C209.992 265.381 210.131 266.219 210.408 266.912C210.686 267.605 211.07 268.133 211.56 268.496C212.062 268.859 212.638 269.04 213.288 269.04Z" fill="#D7D7D7"/>
<path d="M326.35 264.128C327.054 264.363 327.592 264.715 327.966 265.184C328.35 265.653 328.542 266.219 328.542 266.88C328.542 267.531 328.366 268.101 328.014 268.592C327.662 269.072 327.155 269.445 326.494 269.712C325.843 269.968 325.075 270.096 324.19 270.096C322.846 270.096 321.79 269.808 321.022 269.232C320.254 268.656 319.87 267.872 319.87 266.88C319.87 266.208 320.051 265.643 320.414 265.184C320.787 264.715 321.326 264.363 322.03 264.128C321.454 263.904 321.016 263.584 320.718 263.168C320.419 262.741 320.27 262.24 320.27 261.664C320.27 260.757 320.622 260.037 321.326 259.504C322.04 258.971 322.995 258.704 324.19 258.704C324.979 258.704 325.667 258.827 326.254 259.072C326.851 259.307 327.315 259.648 327.646 260.096C327.976 260.544 328.142 261.067 328.142 261.664C328.142 262.24 327.987 262.741 327.678 263.168C327.368 263.584 326.926 263.904 326.35 264.128ZM321.422 261.696C321.422 262.315 321.667 262.805 322.158 263.168C322.648 263.531 323.326 263.712 324.19 263.712C325.054 263.712 325.731 263.531 326.222 263.168C326.723 262.805 326.974 262.32 326.974 261.712C326.974 261.083 326.718 260.587 326.206 260.224C325.704 259.861 325.032 259.68 324.19 259.68C323.336 259.68 322.659 259.861 322.158 260.224C321.667 260.587 321.422 261.077 321.422 261.696ZM324.19 269.12C325.182 269.12 325.955 268.917 326.51 268.512C327.075 268.107 327.358 267.557 327.358 266.864C327.358 266.171 327.075 265.627 326.51 265.232C325.955 264.827 325.182 264.624 324.19 264.624C323.208 264.624 322.435 264.827 321.87 265.232C321.315 265.627 321.038 266.171 321.038 266.864C321.038 267.568 321.315 268.123 321.87 268.528C322.424 268.923 323.198 269.12 324.19 269.12ZM334.601 270.096C333.737 270.096 332.963 269.867 332.281 269.408C331.609 268.949 331.081 268.293 330.697 267.44C330.323 266.576 330.137 265.563 330.137 264.4C330.137 263.237 330.323 262.229 330.697 261.376C331.081 260.512 331.609 259.851 332.281 259.392C332.963 258.933 333.737 258.704 334.601 258.704C335.465 258.704 336.233 258.933 336.905 259.392C337.587 259.851 338.121 260.512 338.505 261.376C338.889 262.229 339.081 263.237 339.081 264.4C339.081 265.563 338.889 266.576 338.505 267.44C338.121 268.293 337.587 268.949 336.905 269.408C336.233 269.867 335.465 270.096 334.601 270.096ZM334.601 269.04C335.251 269.04 335.822 268.859 336.313 268.496C336.814 268.133 337.203 267.605 337.481 266.912C337.758 266.219 337.897 265.381 337.897 264.4C337.897 263.419 337.758 262.581 337.481 261.888C337.203 261.195 336.814 260.667 336.313 260.304C335.822 259.941 335.251 259.76 334.601 259.76C333.95 259.76 333.374 259.941 332.873 260.304C332.382 260.667 331.998 261.195 331.721 261.888C331.443 262.581 331.305 263.419 331.305 264.4C331.305 265.381 331.443 266.219 331.721 266.912C331.998 267.605 332.382 268.133 332.873 268.496C333.374 268.859 333.95 269.04 334.601 269.04Z" fill="#D7D7D7"/>
<path d="M440.233 258.8V270H439.081V259.824H436.441V258.8H440.233ZM450.558 268.976V270H442.702V269.184L447.358 264.624C447.945 264.048 448.339 263.552 448.542 263.136C448.755 262.709 448.862 262.283 448.862 261.856C448.862 261.195 448.633 260.683 448.174 260.32C447.726 259.947 447.081 259.76 446.238 259.76C444.926 259.76 443.907 260.176 443.182 261.008L442.366 260.304C442.803 259.792 443.358 259.397 444.03 259.12C444.713 258.843 445.481 258.704 446.334 258.704C447.475 258.704 448.377 258.976 449.038 259.52C449.71 260.053 450.046 260.789 450.046 261.728C450.046 262.304 449.918 262.859 449.662 263.392C449.406 263.925 448.921 264.539 448.206 265.232L444.398 268.976H450.558ZM456.405 270.096C455.541 270.096 454.768 269.867 454.085 269.408C453.413 268.949 452.885 268.293 452.501 267.44C452.128 266.576 451.941 265.563 451.941 264.4C451.941 263.237 452.128 262.229 452.501 261.376C452.885 260.512 453.413 259.851 454.085 259.392C454.768 258.933 455.541 258.704 456.405 258.704C457.269 258.704 458.037 258.933 458.709 259.392C459.392 259.851 459.925 260.512 460.309 261.376C460.693 262.229 460.885 263.237 460.885 264.4C460.885 265.563 460.693 266.576 460.309 267.44C459.925 268.293 459.392 268.949 458.709 269.408C458.037 269.867 457.269 270.096 456.405 270.096ZM456.405 269.04C457.056 269.04 457.627 268.859 458.117 268.496C458.619 268.133 459.008 267.605 459.285 266.912C459.563 266.219 459.701 265.381 459.701 264.4C459.701 263.419 459.563 262.581 459.285 261.888C459.008 261.195 458.619 260.667 458.117 260.304C457.627 259.941 457.056 259.76 456.405 259.76C455.755 259.76 455.179 259.941 454.677 260.304C454.187 260.667 453.803 261.195 453.525 261.888C453.248 262.581 453.109 263.419 453.109 264.4C453.109 265.381 453.248 266.219 453.525 266.912C453.803 267.605 454.187 268.133 454.677 268.496C455.179 268.859 455.755 269.04 456.405 269.04Z" fill="#D7D7D7"/>
<path d="M378.952 258.8V270H377.8V259.824H375.16V258.8H378.952ZM386.093 270.096C385.229 270.096 384.456 269.867 383.773 269.408C383.101 268.949 382.573 268.293 382.189 267.44C381.816 266.576 381.629 265.563 381.629 264.4C381.629 263.237 381.816 262.229 382.189 261.376C382.573 260.512 383.101 259.851 383.773 259.392C384.456 258.933 385.229 258.704 386.093 258.704C386.957 258.704 387.725 258.933 388.397 259.392C389.08 259.851 389.613 260.512 389.997 261.376C390.381 262.229 390.573 263.237 390.573 264.4C390.573 265.563 390.381 266.576 389.997 267.44C389.613 268.293 389.08 268.949 388.397 269.408C387.725 269.867 386.957 270.096 386.093 270.096ZM386.093 269.04C386.744 269.04 387.314 268.859 387.805 268.496C388.306 268.133 388.696 267.605 388.973 266.912C389.25 266.219 389.389 265.381 389.389 264.4C389.389 263.419 389.25 262.581 388.973 261.888C388.696 261.195 388.306 260.667 387.805 260.304C387.314 259.941 386.744 259.76 386.093 259.76C385.442 259.76 384.866 259.941 384.365 260.304C383.874 260.667 383.49 261.195 383.213 261.888C382.936 262.581 382.797 263.419 382.797 264.4C382.797 265.381 382.936 266.219 383.213 266.912C383.49 267.605 383.874 268.133 384.365 268.496C384.866 268.859 385.442 269.04 386.093 269.04ZM396.687 270.096C395.823 270.096 395.049 269.867 394.367 269.408C393.695 268.949 393.167 268.293 392.783 267.44C392.409 266.576 392.223 265.563 392.223 264.4C392.223 263.237 392.409 262.229 392.783 261.376C393.167 260.512 393.695 259.851 394.367 259.392C395.049 258.933 395.823 258.704 396.687 258.704C397.551 258.704 398.319 258.933 398.991 259.392C399.673 259.851 400.207 260.512 400.591 261.376C400.975 262.229 401.167 263.237 401.167 264.4C401.167 265.563 400.975 266.576 400.591 267.44C400.207 268.293 399.673 268.949 398.991 269.408C398.319 269.867 397.551 270.096 396.687 270.096ZM396.687 269.04C397.337 269.04 397.908 268.859 398.399 268.496C398.9 268.133 399.289 267.605 399.567 266.912C399.844 266.219 399.983 265.381 399.983 264.4C399.983 263.419 399.844 262.581 399.567 261.888C399.289 261.195 398.9 260.667 398.399 260.304C397.908 259.941 397.337 259.76 396.687 259.76C396.036 259.76 395.46 259.941 394.959 260.304C394.468 260.667 394.084 261.195 393.807 261.888C393.529 262.581 393.391 263.419 393.391 264.4C393.391 265.381 393.529 266.219 393.807 266.912C394.084 267.605 394.468 268.133 394.959 268.496C395.46 268.859 396.036 269.04 396.687 269.04Z" fill="#D7D7D7"/>
<path d="M173.828 263.6C175.001 263.664 175.892 263.984 176.5 264.56C177.118 265.125 177.428 265.867 177.428 266.784C177.428 267.424 177.273 267.995 176.964 268.496C176.654 268.987 176.196 269.376 175.588 269.664C174.98 269.952 174.238 270.096 173.364 270.096C172.553 270.096 171.785 269.968 171.06 269.712C170.345 269.445 169.769 269.093 169.332 268.656L169.892 267.744C170.265 268.128 170.761 268.443 171.38 268.688C171.998 268.923 172.66 269.04 173.364 269.04C174.281 269.04 174.99 268.843 175.492 268.448C175.993 268.043 176.244 267.488 176.244 266.784C176.244 266.091 175.993 265.547 175.492 265.152C174.99 264.757 174.233 264.56 173.22 264.56H172.42V263.712L175.524 259.824H169.796V258.8H176.996V259.616L173.828 263.6ZM183.515 270.096C182.651 270.096 181.877 269.867 181.195 269.408C180.523 268.949 179.995 268.293 179.611 267.44C179.237 266.576 179.051 265.563 179.051 264.4C179.051 263.237 179.237 262.229 179.611 261.376C179.995 260.512 180.523 259.851 181.195 259.392C181.877 258.933 182.651 258.704 183.515 258.704C184.379 258.704 185.147 258.933 185.819 259.392C186.501 259.851 187.035 260.512 187.419 261.376C187.803 262.229 187.995 263.237 187.995 264.4C187.995 265.563 187.803 266.576 187.419 267.44C187.035 268.293 186.501 268.949 185.819 269.408C185.147 269.867 184.379 270.096 183.515 270.096ZM183.515 269.04C184.165 269.04 184.736 268.859 185.227 268.496C185.728 268.133 186.117 267.605 186.395 266.912C186.672 266.219 186.811 265.381 186.811 264.4C186.811 263.419 186.672 262.581 186.395 261.888C186.117 261.195 185.728 260.667 185.227 260.304C184.736 259.941 184.165 259.76 183.515 259.76C182.864 259.76 182.288 259.941 181.787 260.304C181.296 260.667 180.912 261.195 180.635 261.888C180.357 262.581 180.219 263.419 180.219 264.4C180.219 265.381 180.357 266.219 180.635 266.912C180.912 267.605 181.296 268.133 181.787 268.496C182.288 268.859 182.864 269.04 183.515 269.04Z" fill="#D7D7D7"/>
<defs>
<filter id="filter0_d" x="0" y="0" width="595" height="395" filterUnits="userSpaceOnUse" color-interpolation-filters="sRGB">
<feFlood flood-opacity="0" result="BackgroundImageFix"/>
<feColorMatrix in="SourceAlpha" type="matrix" values="0 0 0 0 0 0 0 0 0 0 0 0 0 0 0 0 0 0 127 0"/>
<feOffset dx="10" dy="15"/>
<feGaussianBlur stdDeviation="35"/>
<feColorMatrix type="matrix" values="0 0 0 0 0 0 0 0 0 0 0 0 0 0 0 0 0 0 0.1 0"/>
<feBlend mode="normal" in2="BackgroundImageFix" result="effect1_dropShadow"/>
<feBlend mode="normal" in="SourceGraphic" in2="effect1_dropShadow" result="shape"/>
</filter>
<linearGradient id="paint0_linear" x1="118.5" y1="100" x2="119" y2="199" gradientUnits="userSpaceOnUse">
<stop stop-color="#ECF1FF"/>
<stop offset="1" stop-color="#ECF1FF" stop-opacity="0"/>
</linearGradient>
<linearGradient id="paint1_linear" x1="358.5" y1="100" x2="358.5" y2="246" gradientUnits="userSpaceOnUse">
<stop stop-color="#ECF1FF"/>
<stop offset="1" stop-color="#ECF1FF" stop-opacity="0"/>
</linearGradient>
<linearGradient id="paint2_linear" x1="238.5" y1="100" x2="239" y2="199" gradientUnits="userSpaceOnUse">
<stop stop-color="#ECF1FF"/>
<stop offset="1" stop-color="#ECF1FF" stop-opacity="0"/>
</linearGradient>
<linearGradient id="paint3_linear" x1="178.5" y1="100" x2="179" y2="199" gradientUnits="userSpaceOnUse">
<stop stop-color="#ECF1FF"/>
<stop offset="1" stop-color="#ECF1FF" stop-opacity="0"/>
</linearGradient>
<linearGradient id="paint4_linear" x1="298.5" y1="100" x2="299" y2="199" gradientUnits="userSpaceOnUse">
<stop stop-color="#ECF1FF"/>
<stop offset="1" stop-color="#ECF1FF" stop-opacity="0"/>
</linearGradient>
<linearGradient id="paint5_linear" x1="418.5" y1="100" x2="419" y2="199" gradientUnits="userSpaceOnUse">
<stop stop-color="#ECF1FF"/>
<stop offset="1" stop-color="#ECF1FF" stop-opacity="0"/>
</linearGradient>
<linearGradient id="paint6_linear" x1="148.5" y1="100" x2="149" y2="199" gradientUnits="userSpaceOnUse">
<stop stop-color="#ECF1FF"/>
<stop offset="1" stop-color="#ECF1FF" stop-opacity="0"/>
</linearGradient>
<linearGradient id="paint7_linear" x1="388.5" y1="100" x2="389" y2="199" gradientUnits="userSpaceOnUse">
<stop stop-color="#ECF1FF"/>
<stop offset="1" stop-color="#ECF1FF" stop-opacity="0"/>
</linearGradient>
<linearGradient id="paint8_linear" x1="268.5" y1="100" x2="269" y2="199" gradientUnits="userSpaceOnUse">
<stop stop-color="#ECF1FF"/>
<stop offset="1" stop-color="#ECF1FF" stop-opacity="0"/>
</linearGradient>
<linearGradient id="paint9_linear" x1="208.5" y1="100" x2="209" y2="199" gradientUnits="userSpaceOnUse">
<stop stop-color="#ECF1FF"/>
<stop offset="1" stop-color="#ECF1FF" stop-opacity="0"/>
</linearGradient>
<linearGradient id="paint10_linear" x1="328.5" y1="100" x2="329" y2="199" gradientUnits="userSpaceOnUse">
<stop stop-color="#ECF1FF"/>
<stop offset="1" stop-color="#ECF1FF" stop-opacity="0"/>
</linearGradient>
<linearGradient id="paint11_linear" x1="448.5" y1="100" x2="449" y2="199" gradientUnits="userSpaceOnUse">
<stop stop-color="#ECF1FF"/>
<stop offset="1" stop-color="#ECF1FF" stop-opacity="0"/>
</linearGradient>
<linearGradient id="paint12_linear" x1="119" y1="149" x2="91.7438" y2="157.28" gradientUnits="userSpaceOnUse">
<stop stop-color="#FF80A4"/>
<stop offset="1" stop-color="#FFA984"/>
</linearGradient>
<linearGradient id="paint13_linear" x1="359" y1="218" x2="343.178" y2="232.856" gradientUnits="userSpaceOnUse">
<stop stop-color="#FF80A4"/>
<stop offset="1" stop-color="#FFA984"/>
</linearGradient>
<linearGradient id="paint14_linear" x1="239" y1="145" x2="211.572" y2="153.018" gradientUnits="userSpaceOnUse">
<stop stop-color="#FF80A4"/>
<stop offset="1" stop-color="#FFA984"/>
</linearGradient>
<linearGradient id="paint15_linear" x1="179" y1="172" x2="153.198" y2="182.121" gradientUnits="userSpaceOnUse">
<stop stop-color="#FF80A4"/>
<stop offset="1" stop-color="#FFA984"/>
</linearGradient>
<linearGradient id="paint16_linear" x1="299" y1="116" x2="270.718" y2="122.492" gradientUnits="userSpaceOnUse">
<stop stop-color="#FF80A4"/>
<stop offset="1" stop-color="#FFA984"/>
</linearGradient>
<linearGradient id="paint17_linear" x1="419" y1="136" x2="391.244" y2="143.479" gradientUnits="userSpaceOnUse">
<stop stop-color="#FF80A4"/>
<stop offset="1" stop-color="#FFA984"/>
</linearGradient>
<linearGradient id="paint18_linear" x1="149" y1="123" x2="120.876" y2="129.808" gradientUnits="userSpaceOnUse">
<stop stop-color="#FF80A4"/>
<stop offset="1" stop-color="#FFA984"/>
</linearGradient>
<linearGradient id="paint19_linear" x1="389" y1="165" x2="362.649" y2="174.494" gradientUnits="userSpaceOnUse">
<stop stop-color="#FF80A4"/>
<stop offset="1" stop-color="#FFA984"/>
</linearGradient>
<linearGradient id="paint20_linear" x1="269" y1="172" x2="243.198" y2="182.121" gradientUnits="userSpaceOnUse">
<stop stop-color="#FF80A4"/>
<stop offset="1" stop-color="#FFA984"/>
</linearGradient>
<linearGradient id="paint21_linear" x1="209" y1="123" x2="180.876" y2="129.808" gradientUnits="userSpaceOnUse">
<stop stop-color="#FF80A4"/>
<stop offset="1" stop-color="#FFA984"/>
</linearGradient>
<linearGradient id="paint22_linear" x1="329" y1="185" x2="304.606" y2="196.453" gradientUnits="userSpaceOnUse">
<stop stop-color="#FF80A4"/>
<stop offset="1" stop-color="#FFA984"/>
</linearGradient>
<linearGradient id="paint23_linear" x1="449" y1="199" x2="427.03" y2="212.092" gradientUnits="userSpaceOnUse">
<stop stop-color="#FF80A4"/>
<stop offset="1" stop-color="#FFA984"/>
</linearGradient>
</defs>
</svg>
