<svg width="595" height="395" viewBox="0 0 595 395" fill="none" xmlns="http://www.w3.org/2000/svg">
<g filter="url(#filter0_d)">
<rect x="60" y="55" width="455" height="255" fill="white"/>
</g>
<path d="M125.499 278.096C124.635 278.096 123.862 277.867 123.179 277.408C122.507 276.949 121.979 276.293 121.595 275.44C121.222 274.576 121.035 273.563 121.035 272.4C121.035 271.237 121.222 270.229 121.595 269.376C121.979 268.512 122.507 267.851 123.179 267.392C123.862 266.933 124.635 266.704 125.499 266.704C126.363 266.704 127.131 266.933 127.803 267.392C128.486 267.851 129.019 268.512 129.403 269.376C129.787 270.229 129.979 271.237 129.979 272.4C129.979 273.563 129.787 274.576 129.403 275.44C129.019 276.293 128.486 276.949 127.803 277.408C127.131 277.867 126.363 278.096 125.499 278.096ZM125.499 277.04C126.15 277.04 126.72 276.859 127.211 276.496C127.712 276.133 128.102 275.605 128.379 274.912C128.656 274.219 128.795 273.381 128.795 272.4C128.795 271.419 128.656 270.581 128.379 269.888C128.102 269.195 127.712 268.667 127.211 268.304C126.72 267.941 126.15 267.76 125.499 267.76C124.848 267.76 124.272 267.941 123.771 268.304C123.28 268.667 122.896 269.195 122.619 269.888C122.342 270.581 122.203 271.419 122.203 272.4C122.203 273.381 122.342 274.219 122.619 274.912C122.896 275.605 123.28 276.133 123.771 276.496C124.272 276.859 124.848 277.04 125.499 277.04Z" fill="#D7D7D7"/>
<path d="M309.948 271.392C311.569 271.392 312.748 271.685 313.484 272.272C314.231 272.848 314.604 273.659 314.604 274.704C314.604 275.355 314.449 275.936 314.14 276.448C313.841 276.96 313.388 277.365 312.78 277.664C312.172 277.952 311.425 278.096 310.54 278.096C309.74 278.096 308.977 277.968 308.252 277.712C307.537 277.445 306.961 277.093 306.524 276.656L307.084 275.744C307.457 276.128 307.948 276.443 308.556 276.688C309.164 276.923 309.82 277.04 310.524 277.04C311.452 277.04 312.167 276.832 312.668 276.416C313.18 276 313.436 275.445 313.436 274.752C313.436 273.984 313.148 273.403 312.572 273.008C312.007 272.613 311.047 272.416 309.692 272.416H307.308L307.884 266.8H314.012V267.824H308.892L308.508 271.392H309.948ZM320.53 278.096C319.666 278.096 318.893 277.867 318.21 277.408C317.538 276.949 317.01 276.293 316.626 275.44C316.253 274.576 316.066 273.563 316.066 272.4C316.066 271.237 316.253 270.229 316.626 269.376C317.01 268.512 317.538 267.851 318.21 267.392C318.893 266.933 319.666 266.704 320.53 266.704C321.394 266.704 322.162 266.933 322.834 267.392C323.517 267.851 324.05 268.512 324.434 269.376C324.818 270.229 325.01 271.237 325.01 272.4C325.01 273.563 324.818 274.576 324.434 275.44C324.05 276.293 323.517 276.949 322.834 277.408C322.162 277.867 321.394 278.096 320.53 278.096ZM320.53 277.04C321.181 277.04 321.752 276.859 322.242 276.496C322.744 276.133 323.133 275.605 323.41 274.912C323.688 274.219 323.826 273.381 323.826 272.4C323.826 271.419 323.688 270.581 323.41 269.888C323.133 269.195 322.744 268.667 322.242 268.304C321.752 267.941 321.181 267.76 320.53 267.76C319.88 267.76 319.304 267.941 318.802 268.304C318.312 268.667 317.928 269.195 317.65 269.888C317.373 270.581 317.234 271.419 317.234 272.4C317.234 273.381 317.373 274.219 317.65 274.912C317.928 275.605 318.312 276.133 318.802 276.496C319.304 276.859 319.88 277.04 320.53 277.04Z" fill="#D7D7D7"/>
<path d="M309.948 271.392C311.569 271.392 312.748 271.685 313.484 272.272C314.231 272.848 314.604 273.659 314.604 274.704C314.604 275.355 314.449 275.936 314.14 276.448C313.841 276.96 313.388 277.365 312.78 277.664C312.172 277.952 311.425 278.096 310.54 278.096C309.74 278.096 308.977 277.968 308.252 277.712C307.537 277.445 306.961 277.093 306.524 276.656L307.084 275.744C307.457 276.128 307.948 276.443 308.556 276.688C309.164 276.923 309.82 277.04 310.524 277.04C311.452 277.04 312.167 276.832 312.668 276.416C313.18 276 313.436 275.445 313.436 274.752C313.436 273.984 313.148 273.403 312.572 273.008C312.007 272.613 311.047 272.416 309.692 272.416H307.308L307.884 266.8H314.012V267.824H308.892L308.508 271.392H309.948ZM320.53 278.096C319.666 278.096 318.893 277.867 318.21 277.408C317.538 276.949 317.01 276.293 316.626 275.44C316.253 274.576 316.066 273.563 316.066 272.4C316.066 271.237 316.253 270.229 316.626 269.376C317.01 268.512 317.538 267.851 318.21 267.392C318.893 266.933 319.666 266.704 320.53 266.704C321.394 266.704 322.162 266.933 322.834 267.392C323.517 267.851 324.05 268.512 324.434 269.376C324.818 270.229 325.01 271.237 325.01 272.4C325.01 273.563 324.818 274.576 324.434 275.44C324.05 276.293 323.517 276.949 322.834 277.408C322.162 277.867 321.394 278.096 320.53 278.096ZM320.53 277.04C321.181 277.04 321.752 276.859 322.242 276.496C322.744 276.133 323.133 275.605 323.41 274.912C323.688 274.219 323.826 273.381 323.826 272.4C323.826 271.419 323.688 270.581 323.41 269.888C323.133 269.195 322.744 268.667 322.242 268.304C321.752 267.941 321.181 267.76 320.53 267.76C319.88 267.76 319.304 267.941 318.802 268.304C318.312 268.667 317.928 269.195 317.65 269.888C317.373 270.581 317.234 271.419 317.234 272.4C317.234 273.381 317.373 274.219 317.65 274.912C317.928 275.605 318.312 276.133 318.802 276.496C319.304 276.859 319.88 277.04 320.53 277.04Z" fill="#D7D7D7"/>
<path d="M92.778 107.58C93.702 107.58 94.4253 107.846 94.948 108.378C95.48 108.91 95.746 109.694 95.746 110.73V115H94.752V110.828C94.752 110.063 94.5653 109.479 94.192 109.078C93.828 108.677 93.31 108.476 92.638 108.476C91.8727 108.476 91.2707 108.714 90.832 109.19C90.3933 109.657 90.174 110.305 90.174 111.136V115H89.18V110.828C89.18 110.063 88.9933 109.479 88.62 109.078C88.256 108.677 87.7333 108.476 87.052 108.476C86.296 108.476 85.694 108.714 85.246 109.19C84.8073 109.657 84.588 110.305 84.588 111.136V115H83.594V107.636H84.546V108.98C84.8073 108.532 85.1713 108.187 85.638 107.944C86.1047 107.701 86.6413 107.58 87.248 107.58C87.864 107.58 88.396 107.711 88.844 107.972C89.3013 108.233 89.642 108.621 89.866 109.134C90.1367 108.649 90.524 108.271 91.028 108C91.5413 107.72 92.1247 107.58 92.778 107.58ZM101.018 107.58C101.979 107.58 102.716 107.823 103.23 108.308C103.743 108.784 104 109.493 104 110.436V115H103.048V113.852C102.824 114.235 102.492 114.533 102.054 114.748C101.624 114.963 101.111 115.07 100.514 115.07C99.6923 115.07 99.039 114.874 98.5537 114.482C98.0683 114.09 97.8257 113.572 97.8257 112.928C97.8257 112.303 98.0497 111.799 98.4977 111.416C98.955 111.033 99.6783 110.842 100.668 110.842H103.006V110.394C103.006 109.759 102.828 109.279 102.474 108.952C102.119 108.616 101.601 108.448 100.92 108.448C100.453 108.448 100.005 108.527 99.5757 108.686C99.1463 108.835 98.7777 109.045 98.4697 109.316L98.0217 108.574C98.395 108.257 98.843 108.014 99.3657 107.846C99.8883 107.669 100.439 107.58 101.018 107.58ZM100.668 114.286C101.228 114.286 101.708 114.16 102.11 113.908C102.511 113.647 102.81 113.273 103.006 112.788V111.584H100.696C99.4357 111.584 98.8057 112.023 98.8057 112.9C98.8057 113.329 98.969 113.67 99.2957 113.922C99.6223 114.165 100.08 114.286 100.668 114.286ZM111.389 115L109.051 111.92L106.699 115H105.579L108.491 111.22L105.719 107.636H106.839L109.051 110.52L111.263 107.636H112.355L109.583 111.22L112.523 115H111.389Z" fill="#D7D7D7"/>
<path d="M445.952 266.8V278H444.8V267.824H442.16V266.8H445.952ZM453.093 278.096C452.229 278.096 451.456 277.867 450.773 277.408C450.101 276.949 449.573 276.293 449.189 275.44C448.816 274.576 448.629 273.563 448.629 272.4C448.629 271.237 448.816 270.229 449.189 269.376C449.573 268.512 450.101 267.851 450.773 267.392C451.456 266.933 452.229 266.704 453.093 266.704C453.957 266.704 454.725 266.933 455.397 267.392C456.08 267.851 456.613 268.512 456.997 269.376C457.381 270.229 457.573 271.237 457.573 272.4C457.573 273.563 457.381 274.576 456.997 275.44C456.613 276.293 456.08 276.949 455.397 277.408C454.725 277.867 453.957 278.096 453.093 278.096ZM453.093 277.04C453.744 277.04 454.314 276.859 454.805 276.496C455.306 276.133 455.696 275.605 455.973 274.912C456.25 274.219 456.389 273.381 456.389 272.4C456.389 271.419 456.25 270.581 455.973 269.888C455.696 269.195 455.306 268.667 454.805 268.304C454.314 267.941 453.744 267.76 453.093 267.76C452.442 267.76 451.866 267.941 451.365 268.304C450.874 268.667 450.49 269.195 450.213 269.888C449.936 270.581 449.797 271.419 449.797 272.4C449.797 273.381 449.936 274.219 450.213 274.912C450.49 275.605 450.874 276.133 451.365 276.496C451.866 276.859 452.442 277.04 453.093 277.04ZM463.687 278.096C462.823 278.096 462.049 277.867 461.367 277.408C460.695 276.949 460.167 276.293 459.783 275.44C459.409 274.576 459.223 273.563 459.223 272.4C459.223 271.237 459.409 270.229 459.783 269.376C460.167 268.512 460.695 267.851 461.367 267.392C462.049 266.933 462.823 266.704 463.687 266.704C464.551 266.704 465.319 266.933 465.991 267.392C466.673 267.851 467.207 268.512 467.591 269.376C467.975 270.229 468.167 271.237 468.167 272.4C468.167 273.563 467.975 274.576 467.591 275.44C467.207 276.293 466.673 276.949 465.991 277.408C465.319 277.867 464.551 278.096 463.687 278.096ZM463.687 277.04C464.337 277.04 464.908 276.859 465.399 276.496C465.9 276.133 466.289 275.605 466.567 274.912C466.844 274.219 466.983 273.381 466.983 272.4C466.983 271.419 466.844 270.581 466.567 269.888C466.289 269.195 465.9 268.667 465.399 268.304C464.908 267.941 464.337 267.76 463.687 267.76C463.036 267.76 462.46 267.941 461.959 268.304C461.468 268.667 461.084 269.195 460.807 269.888C460.529 270.581 460.391 271.419 460.391 272.4C460.391 273.381 460.529 274.219 460.807 274.912C461.084 275.605 461.468 276.133 461.959 276.496C462.46 276.859 463.036 277.04 463.687 277.04Z" fill="#D7D7D7"/>
<path opacity="0.5" d="M118 130.5H469" stroke="#D7D7D7" stroke-width="0.75" stroke-linecap="round" stroke-dasharray="4 6"/>
<path opacity="0.4" d="M118 153.5H469" stroke="#D7D7D7" stroke-width="0.75" stroke-linecap="round" stroke-dasharray="4 6"/>
<path opacity="0.3" d="M118 175.5H469" stroke="#D7D7D7" stroke-width="0.75" stroke-linecap="round" stroke-dasharray="4 6"/>
<path opacity="0.2" d="M459.35 243.5H128.855C138.197 223.824 168.8 184.473 216.483 184.473C276.088 184.473 280.091 203.771 328.576 202.257C377.06 200.744 360.602 119.393 393.963 109.933C420.652 102.366 448.675 195.825 459.35 243.5Z" fill="url(#paint0_linear)"/>
<path opacity="0.4" d="M461.056 243.491H128.855C132.207 231.717 146.315 208.169 175.933 208.169C212.955 208.169 201.529 145.5 233.98 145.5C266.432 145.5 259.576 190.318 343.218 217.284C406.949 237.831 446.992 243.241 461.056 243.491H462.969C462.396 243.503 461.759 243.503 461.056 243.491Z" fill="url(#paint1_linear)"/>
<path opacity="0.7" d="M168.059 176.383C146.634 176.383 137.821 219.232 128.855 243.5H459.35C444.155 237.938 418.415 198.755 387.781 198.755C349.489 198.755 359.062 130.5 328.52 130.5C297.978 130.5 302.08 215.06 289.316 215.06C276.552 215.06 279.288 198.755 263.789 198.755C238.717 198.755 255.127 226.815 220.938 226.815C188.088 226.815 193.168 176.383 168.059 176.383Z" fill="url(#paint2_linear)"/>
<path d="M118 252.5H469" stroke="#D7D7D7"/>
<path d="M118 252.5L118 107" stroke="#D7D7D7"/>
<defs>
<filter id="filter0_d" x="0" y="0" width="595" height="395" filterUnits="userSpaceOnUse" color-interpolation-filters="sRGB">
<feFlood flood-opacity="0" result="BackgroundImageFix"/>
<feColorMatrix in="SourceAlpha" type="matrix" values="0 0 0 0 0 0 0 0 0 0 0 0 0 0 0 0 0 0 127 0"/>
<feOffset dx="10" dy="15"/>
<feGaussianBlur stdDeviation="35"/>
<feColorMatrix type="matrix" values="0 0 0 0 0 0 0 0 0 0 0 0 0 0 0 0 0 0 0.1 0"/>
<feBlend mode="normal" in2="BackgroundImageFix" result="effect1_dropShadow"/>
<feBlend mode="normal" in="SourceGraphic" in2="effect1_dropShadow" result="shape"/>
</filter>
<linearGradient id="paint0_linear" x1="182.79" y1="216.049" x2="249.653" y2="73.424" gradientUnits="userSpaceOnUse">
<stop stop-color="#FF80A4"/>
<stop offset="1" stop-color="#FFA984"/>
</linearGradient>
<linearGradient id="paint1_linear" x1="183.381" y1="223.424" x2="222.08" y2="109.316" gradientUnits="userSpaceOnUse">
<stop stop-color="#FF80A4"/>
<stop offset="1" stop-color="#FFA984"/>
</linearGradient>
<linearGradient id="paint2_linear" x1="182.79" y1="220.351" x2="232.949" y2="93.474" gradientUnits="userSpaceOnUse">
<stop stop-color="#FF80A4"/>
<stop offset="1" stop-color="#FFA984"/>
</linearGradient>
</defs>
</svg>
