<svg width="264" height="264" viewBox="0 0 264 264" fill="none" xmlns="http://www.w3.org/2000/svg">
<g filter="url(#filter0_d)">
<circle cx="117" cy="117" r="72" fill="white"/>
</g>
<path d="M139.011 91.5312L135.923 94.619C132.335 92.5819 128.299 92.4281 125.506 94.3372L125.417 94.2475C124.696 93.5277 123.719 93.1234 122.7 93.1234C121.682 93.1234 120.705 93.5277 119.984 94.2475C119.519 94.7181 119.184 95.3006 119.01 95.9387C118.378 95.7955 117.72 95.8143 117.098 95.9935C116.475 96.1728 115.908 96.5065 115.449 96.9637L85.5313 126.894C84.8115 127.614 84.4072 128.591 84.4072 129.61C84.4072 130.629 84.8115 131.606 85.5313 132.326L103.674 150.469C104.395 151.189 105.371 151.593 106.39 151.593C107.409 151.593 108.386 151.189 109.106 150.469L139.011 120.552C139.616 119.95 140.004 119.163 140.113 118.316C140.222 117.47 140.046 116.611 139.613 115.875C140.065 115.685 140.475 115.406 140.817 115.055C141.385 114.481 141.758 113.742 141.882 112.944C142.006 112.146 141.876 111.329 141.509 110.609C143.559 107.816 143.431 103.69 141.355 100.026L144.469 96.9894C145.193 96.2656 145.599 95.2839 145.599 94.2603C145.599 93.2367 145.193 92.255 144.469 91.5312C143.745 90.8074 142.763 90.4008 141.74 90.4008C140.716 90.4008 139.735 90.8074 139.011 91.5312ZM137.191 98.7831C140.254 101.845 141.266 105.958 139.754 108.61L127.326 96.1822C130.016 94.7344 134.129 95.7465 137.191 98.8087V98.7831ZM121.816 96.054C121.935 95.934 122.077 95.8386 122.233 95.7736C122.389 95.7085 122.557 95.6751 122.726 95.6751C122.895 95.6751 123.063 95.7085 123.219 95.7736C123.375 95.8386 123.517 95.934 123.636 96.054L139.011 111.429C139.249 111.669 139.383 111.994 139.383 112.332C139.383 112.671 139.249 112.996 139.011 113.236C138.892 113.356 138.75 113.451 138.594 113.516C138.438 113.581 138.27 113.615 138.101 113.615C137.932 113.615 137.764 113.581 137.608 113.516C137.452 113.451 137.31 113.356 137.191 113.236L121.816 97.8606C121.696 97.7415 121.601 97.5998 121.536 97.4437C121.471 97.2875 121.437 97.1201 121.437 96.9509C121.437 96.7818 121.471 96.6143 121.536 96.4582C121.601 96.302 121.696 96.1603 121.816 96.0412V96.054ZM107.313 148.637C107.073 148.875 106.748 149.009 106.409 149.009C106.071 149.009 105.746 148.875 105.506 148.637L87.3635 130.507C87.1249 130.267 86.991 129.942 86.991 129.604C86.991 129.265 87.1249 128.94 87.3635 128.7L109.145 106.919L129.094 126.894L127.236 128.687L119.984 121.436C119.743 121.196 119.416 121.062 119.076 121.063C118.736 121.065 118.411 121.201 118.171 121.442C117.932 121.683 117.798 122.01 117.799 122.35C117.8 122.69 117.936 123.015 118.178 123.255L125.417 130.494L121.791 134.133L117.268 129.61C117.149 129.49 117.007 129.395 116.851 129.33C116.695 129.264 116.527 129.231 116.358 129.231C116.189 129.231 116.022 129.264 115.865 129.33C115.709 129.395 115.568 129.49 115.449 129.61C115.21 129.85 115.076 130.175 115.076 130.513C115.076 130.852 115.21 131.176 115.449 131.417L119.984 135.952L116.358 139.578L109.106 132.326C108.859 132.131 108.549 132.034 108.235 132.053C107.921 132.072 107.625 132.206 107.404 132.43C107.182 132.653 107.05 132.95 107.034 133.264C107.017 133.578 107.116 133.887 107.313 134.133L114.564 141.385L110.939 145.011L106.39 140.475C106.15 140.236 105.825 140.102 105.487 140.102C105.148 140.102 104.824 140.236 104.584 140.475C104.463 140.594 104.368 140.736 104.303 140.892C104.238 141.048 104.205 141.216 104.205 141.385C104.205 141.554 104.238 141.721 104.303 141.877C104.368 142.034 104.463 142.175 104.584 142.294L109.106 146.817L107.313 148.637ZM137.191 118.732L130.785 125.074L110.926 105.151L117.332 98.8087C117.572 98.5701 117.897 98.4362 118.235 98.4362C118.574 98.4362 118.898 98.5701 119.139 98.8087L120.048 99.7056L135.423 115.081L137.23 116.9C137.349 117.022 137.443 117.166 137.506 117.325C137.569 117.484 137.6 117.653 137.596 117.824C137.593 117.995 137.555 118.163 137.485 118.319C137.416 118.475 137.316 118.615 137.191 118.732ZM142.637 95.1828L139.92 97.9375L138.063 96.0797L140.779 93.3634C141.02 93.1222 141.347 92.9866 141.689 92.9866C142.03 92.9866 142.357 93.1222 142.598 93.3634C142.839 93.6047 142.975 93.9319 142.975 94.2731C142.975 94.6143 142.839 94.9415 142.598 95.1828H142.637Z" fill="url(#paint0_linear)"/>
<defs>
<filter id="filter0_d" x="0" y="0" width="264" height="264" filterUnits="userSpaceOnUse" color-interpolation-filters="sRGB">
<feFlood flood-opacity="0" result="BackgroundImageFix"/>
<feColorMatrix in="SourceAlpha" type="matrix" values="0 0 0 0 0 0 0 0 0 0 0 0 0 0 0 0 0 0 127 0"/>
<feOffset dx="15" dy="15"/>
<feGaussianBlur stdDeviation="30"/>
<feColorMatrix type="matrix" values="0 0 0 0 0 0 0 0 0 0 0 0 0 0 0 0 0 0 0.05 0"/>
<feBlend mode="normal" in2="BackgroundImageFix" result="effect1_dropShadow"/>
<feBlend mode="normal" in="SourceGraphic" in2="effect1_dropShadow" result="shape"/>
</filter>
<linearGradient id="paint0_linear" x1="94.3934" y1="139.057" x2="133.701" y2="105.061" gradientUnits="userSpaceOnUse">
<stop stop-color="#FF80A4"/>
<stop offset="1" stop-color="#FFA984"/>
</linearGradient>
</defs>
</svg>
