<svg width="264" height="264" viewBox="0 0 264 264" fill="none" xmlns="http://www.w3.org/2000/svg">
<g filter="url(#filter0_d)">
<circle cx="117" cy="117" r="72" fill="white"/>
</g>
<path d="M147.654 124.533L141.123 123.057V120.35C142.578 119.715 143.917 118.811 145.074 117.658C146.89 115.847 148.098 113.592 148.598 111.139C150.749 110.863 152.416 109.028 152.416 106.811C152.416 105.651 151.956 104.552 151.144 103.737V93.7299C151.144 87.5102 146.067 82.4504 139.828 82.4504V82.4838C139.082 81.5804 137.954 81.0023 136.691 81H136.672C136.658 81 136.643 81 136.629 81C132.452 81 128.492 82.6513 125.473 85.6525C122.379 88.7284 120.675 92.7949 120.675 97.1031V103.791C119.895 104.599 119.453 105.679 119.453 106.811C119.453 107.593 119.661 108.326 120.023 108.96C118.886 108.662 117.702 108.508 116.494 108.515C114.242 108.531 112.12 109.118 110.26 110.134V108.512C110.26 103.503 107.043 99.127 102.255 97.6229L101.761 99.1859C105.861 100.474 108.616 104.222 108.616 108.512V111.195C105.81 113.311 103.851 116.509 103.352 120.162C101.558 121.345 99.4757 121.97 97.3066 121.97C94.3739 121.97 91.6157 120.831 89.5403 118.764C87.466 116.695 86.3236 113.945 86.3236 111.022V108.931C86.3236 105.348 88.414 102.061 91.6575 100.528L91.7493 100.486C95.6245 98.7067 98.1286 94.8075 98.1286 90.5522V89.1504H96.4846V90.5522C96.4846 94.1349 94.3975 97.4204 91.1575 98.9527L91.0601 98.9974C87.1842 100.778 84.6797 104.678 84.6797 108.931V121.696C84.6797 123.439 84.9408 125.159 85.4535 126.822C82.9023 127.774 80.7978 129.63 79.5389 132.044C78.325 130.563 77.6439 128.694 77.6439 126.763C77.6439 124.173 78.8198 121.774 80.8708 120.18C82.0682 119.247 82.7548 117.85 82.7548 116.347V99.5642C82.7548 95.6767 84.2737 92.0218 87.0315 89.2728C89.76 86.5546 93.3857 85.0411 97.241 85.0113C101.103 84.9808 104.759 86.483 107.547 89.2408C110.393 92.0554 111.961 95.787 111.961 99.7478V106.861H113.605V99.7478C113.605 95.3468 111.865 91.2021 108.705 88.0775C105.603 85.0098 101.53 83.3418 97.228 83.3728C92.9389 83.4062 88.9049 85.0899 85.8691 88.1141C82.8007 91.1726 81.1109 95.2391 81.1109 99.5644V116.348C81.1109 117.343 80.6546 118.269 79.8593 118.888C77.4067 120.795 76 123.665 76 126.763C76 129.359 77.0268 131.863 78.8333 133.718C78.4731 134.816 78.29 135.961 78.29 137.129V152.788H98.4559V151.15H79.9334V137.129C79.9334 135.978 80.1407 134.855 80.55 133.79C81.6741 130.853 84.1811 128.685 87.2562 127.989L94.3158 126.395V123.253C95.2836 123.487 96.2854 123.608 97.3061 123.608C98.3605 123.608 99.3968 123.478 100.398 123.227V126.395L103.224 127.033V130.962C103.224 134.414 106.041 137.222 109.504 137.222H109.733V135.584H109.504C106.948 135.584 104.867 133.51 104.867 130.962V122C104.867 115.515 110.088 110.201 116.506 110.153C119.663 110.129 122.621 111.335 124.856 113.546C127.091 115.757 128.322 118.704 128.322 121.842V130.962C128.322 133.51 126.242 135.584 123.685 135.584V137.222C127.148 137.222 129.966 134.414 129.966 130.962V124.937L130.847 124.738V132.201C130.847 132.672 131.147 133.09 131.594 133.242C131.711 133.281 131.831 133.301 131.95 133.301C132.285 133.301 132.61 133.148 132.824 132.873L135.985 128.485L139.13 132.85L139.147 132.873C139.435 133.246 139.929 133.394 140.376 133.242C140.823 133.09 141.123 132.672 141.123 132.201V124.737L147.29 126.131C152.152 127.229 155.547 131.467 155.547 136.436V151.15H148.561V137.457H146.917V151.15H133.707V152.788H157.191V136.436C157.191 133.678 156.24 130.973 154.514 128.819C152.787 126.664 150.351 125.142 147.654 124.533ZM88.3775 119.923C88.4232 119.968 88.4712 120.011 88.5177 120.056V121.651C88.5177 123.089 88.6979 124.516 89.0486 125.905L87.0302 126.36C86.5615 124.848 86.3233 123.282 86.3233 121.696V117.235C86.8779 118.206 87.5636 119.111 88.3775 119.923ZM92.6721 125.086L90.6519 125.542C90.3275 124.272 90.1617 122.967 90.1617 121.651V121.4C90.9489 121.941 91.7903 122.387 92.6721 122.734V125.086ZM102.042 125.086V122.694C102.445 122.532 102.839 122.346 103.224 122.142V125.353L102.042 125.086ZM148.827 109.421C148.846 109.131 148.859 108.84 148.859 108.548V108.206C149.682 107.901 150.359 107.298 150.756 106.526C150.766 106.621 150.772 106.716 150.772 106.811C150.772 108.041 149.951 109.082 148.827 109.421ZM149.5 93.7303V104.939C149.5 105.496 149.251 105.994 148.859 106.334V105.419C148.859 104.045 148.45 102.718 147.674 101.582C147.384 101.159 147.159 100.692 147.005 100.196C146.852 99.7006 146.775 99.1873 146.775 98.6699V96.9722C146.775 94.4043 144.679 92.3151 142.109 92.3151L140.217 92.3012C140.571 91.2944 140.753 90.2399 140.753 89.1509V85.0542C140.753 84.7348 140.715 84.4245 140.644 84.1262C145.596 84.541 149.5 88.6884 149.5 93.7303ZM122.318 97.1033C122.318 93.2336 123.851 89.579 126.634 86.813C129.342 84.1202 132.89 82.6388 136.631 82.6388C136.643 82.6388 136.657 82.6388 136.669 82.6388H136.689C138.024 82.6413 139.109 83.7248 139.109 85.0542V89.1509C139.109 90.4138 138.819 91.6213 138.249 92.7394C136.883 95.4099 134.169 97.0689 131.166 97.0689C128.985 97.0689 126.937 97.9149 125.398 99.4505C123.857 100.986 123.009 103.028 123.009 105.198V106.189C122.578 105.784 122.318 105.212 122.318 104.587V97.1033ZM121.131 106.404C121.538 107.161 122.193 107.771 123.009 108.117V108.548C123.009 108.839 123.02 109.13 123.039 109.42C121.917 109.08 121.097 108.04 121.097 106.811C121.097 106.674 121.111 106.538 121.131 106.404ZM125.052 111.519C124.788 110.559 124.653 109.56 124.653 108.548V105.198C124.653 103.465 125.33 101.836 126.561 100.609C127.789 99.3828 129.425 98.7075 131.166 98.7075C134.617 98.7075 137.751 96.8911 139.466 93.9344L142.103 93.9538C143.772 93.9538 145.131 95.3078 145.131 96.9722V98.6699C145.131 99.3505 145.233 100.026 145.434 100.678C145.637 101.333 145.934 101.948 146.315 102.505C146.904 103.367 147.215 104.375 147.215 105.419V108.548C147.215 111.552 146.042 114.376 143.912 116.499C141.78 118.623 138.947 119.792 135.935 119.792C134.563 119.792 133.226 119.55 131.958 119.073C131.004 118.715 130.105 118.229 129.283 117.629C128.631 115.672 127.526 113.879 126.014 112.383C125.706 112.078 125.384 111.79 125.052 111.519ZM129.966 123.257V121.843C129.966 121.187 129.918 120.539 129.825 119.901C130.158 120.079 130.499 120.244 130.847 120.392V123.058L129.966 123.257ZM132.491 130.526V125.395L134.858 127.242L132.491 130.526ZM135.985 126.04L132.491 123.313V120.968C133.606 121.275 134.76 121.431 135.935 121.431C137.151 121.431 138.34 121.261 139.479 120.939V123.313L135.985 126.04ZM139.479 130.526L137.113 127.242L139.479 125.395V130.526Z" fill="url(#paint0_linear)"/>
<path d="M119.971 128.097C120.407 128.097 120.76 127.745 120.76 127.311V126.771C120.76 126.337 120.407 125.984 119.971 125.984C119.536 125.984 119.183 126.336 119.183 126.771V127.311C119.183 127.745 119.536 128.097 119.971 128.097Z" fill="url(#paint1_linear)"/>
<path d="M113.446 128.097C113.882 128.097 114.235 127.745 114.235 127.311V126.771C114.235 126.337 113.882 125.984 113.446 125.984C113.011 125.984 112.657 126.336 112.657 126.771V127.311C112.657 127.745 113.01 128.097 113.446 128.097Z" fill="url(#paint2_linear)"/>
<path d="M120.376 131.08L118.893 130.374C118.485 131.224 117.61 131.774 116.666 131.774C115.721 131.774 114.847 131.224 114.44 130.374L112.956 131.08C113.634 132.497 115.091 133.412 116.666 133.412C118.24 133.412 119.696 132.497 120.376 131.08Z" fill="url(#paint3_linear)"/>
<path d="M106.642 118.974L109.574 121.898L110.737 120.739L107.804 117.816L106.642 118.974Z" fill="url(#paint4_linear)"/>
<path d="M112.504 118.976L109.571 116.053L108.409 117.211L111.341 120.135L112.504 118.976Z" fill="url(#paint5_linear)"/>
<path d="M132.202 147.169C132.202 142.9 129.285 139.259 125.109 138.316L120.547 137.285V136.013C124.289 134.519 127.091 130.963 127.596 126.598C127.713 125.588 127.283 124.578 126.474 123.961C125.634 123.32 124.187 121.943 123.943 119.918C123.852 119.163 123.359 118.533 122.657 118.275L122.579 118.247C121.765 117.948 120.862 118.204 120.332 118.884C117.311 122.762 111.515 123.907 108.329 124.244C107.507 124.331 106.758 124.764 106.272 125.432C105.788 126.099 105.609 126.942 105.782 127.746C106.324 130.264 107.684 132.552 109.612 134.188C110.526 134.963 111.551 135.574 112.642 136.009V137.285L108.08 138.316C103.903 139.259 100.986 142.9 100.986 147.169V152.788H132.203V147.169H132.202ZM107.39 127.402C107.313 127.047 107.389 126.688 107.604 126.393C107.819 126.097 108.139 125.912 108.503 125.874C111.949 125.509 118.236 124.246 121.631 119.89C121.695 119.808 121.791 119.763 121.892 119.763C121.932 119.763 121.972 119.77 122.011 119.784L122.088 119.813C122.209 119.857 122.294 119.972 122.311 120.113V120.113C122.627 122.735 124.429 124.465 125.475 125.263C125.827 125.531 126.014 125.971 125.963 126.41C125.388 131.385 121.36 135.136 116.595 135.136C112.155 135.136 108.369 131.956 107.39 127.402ZM116.594 136.774C117.385 136.774 118.157 136.684 118.903 136.518V137.585C118.262 138.139 117.454 138.442 116.594 138.442C115.735 138.442 114.927 138.139 114.285 137.585V136.518C115.041 136.687 115.815 136.774 116.594 136.774ZM113.22 138.834C114.158 139.641 115.339 140.081 116.594 140.081C117.85 140.081 119.031 139.641 119.969 138.834L122.863 139.488V144.209H110.554V139.437L113.22 138.834ZM108.443 139.914L108.911 139.808V145.847H124.507V139.86L124.745 139.914C125.307 140.04 125.839 140.228 126.339 140.466V151.15H106.993V140.399C107.451 140.193 107.935 140.028 108.443 139.914ZM102.63 147.169C102.63 144.867 103.666 142.788 105.349 141.415V151.15H102.63V147.169ZM130.559 151.15H127.983V141.536C129.581 142.909 130.559 144.933 130.559 147.169V151.15Z" fill="url(#paint6_linear)"/>
<path d="M97.3582 116.508C96.7289 116.508 96.1471 116.142 95.8762 115.576L94.3926 116.282C94.9347 117.414 96.099 118.146 97.3582 118.146C98.6164 118.146 99.7803 117.415 100.323 116.282L98.8405 115.576C98.5688 116.142 97.987 116.508 97.3582 116.508Z" fill="url(#paint7_linear)"/>
<path d="M101.809 132.678H83.2822V134.317H101.809V132.678Z" fill="url(#paint8_linear)"/>
<path d="M103.25 108.427C103.751 108.427 104.159 108.834 104.159 109.333H105.803C105.803 107.93 104.658 106.789 103.25 106.789C101.843 106.789 100.697 107.93 100.697 109.333H102.341C102.341 108.834 102.749 108.427 103.25 108.427Z" fill="url(#paint9_linear)"/>
<path d="M88.9121 109.333H90.556C90.556 108.834 90.9639 108.427 91.4651 108.427C91.9665 108.427 92.3742 108.834 92.3742 109.333H94.0181C94.0181 107.93 92.8728 106.789 91.4651 106.789C90.0574 106.789 88.9121 107.93 88.9121 109.333Z" fill="url(#paint10_linear)"/>
<path d="M135.986 115.77C137.268 115.77 138.455 115.024 139.008 113.87L137.525 113.164C137.243 113.751 136.639 114.131 135.987 114.131C135.333 114.131 134.73 113.752 134.448 113.164L132.965 113.87C133.517 115.024 134.703 115.77 135.986 115.77Z" fill="url(#paint11_linear)"/>
<path d="M141.879 106.319C142.381 106.319 142.788 106.726 142.788 107.226H144.432C144.432 105.822 143.287 104.681 141.879 104.681C140.471 104.681 139.326 105.822 139.326 107.226H140.97C140.97 106.726 141.378 106.319 141.879 106.319Z" fill="url(#paint12_linear)"/>
<path d="M130.094 106.32C130.595 106.32 131.003 106.726 131.003 107.226H132.647C132.647 105.823 131.502 104.681 130.094 104.681C128.686 104.681 127.541 105.823 127.541 107.226H129.185C129.185 106.726 129.593 106.32 130.094 106.32Z" fill="url(#paint13_linear)"/>
<path d="M136.807 132.482H135.163V149.298H136.807V132.482Z" fill="url(#paint14_linear)"/>
<defs>
<filter id="filter0_d" x="0" y="0" width="264" height="264" filterUnits="userSpaceOnUse" color-interpolation-filters="sRGB">
<feFlood flood-opacity="0" result="BackgroundImageFix"/>
<feColorMatrix in="SourceAlpha" type="matrix" values="0 0 0 0 0 0 0 0 0 0 0 0 0 0 0 0 0 0 127 0"/>
<feOffset dx="15" dy="15"/>
<feGaussianBlur stdDeviation="30"/>
<feColorMatrix type="matrix" values="0 0 0 0 0 0 0 0 0 0 0 0 0 0 0 0 0 0 0.05 0"/>
<feBlend mode="normal" in2="BackgroundImageFix" result="effect1_dropShadow"/>
<feBlend mode="normal" in="SourceGraphic" in2="effect1_dropShadow" result="shape"/>
</filter>
<linearGradient id="paint0_linear" x1="89.2499" y1="138.082" x2="135.839" y2="92.5105" gradientUnits="userSpaceOnUse">
<stop stop-color="#FF80A4"/>
<stop offset="1" stop-color="#FFA984"/>
</linearGradient>
<linearGradient id="paint1_linear" x1="119.44" y1="127.664" x2="120.69" y2="126.857" gradientUnits="userSpaceOnUse">
<stop stop-color="#FF80A4"/>
<stop offset="1" stop-color="#FFA984"/>
</linearGradient>
<linearGradient id="paint2_linear" x1="112.915" y1="127.664" x2="114.165" y2="126.857" gradientUnits="userSpaceOnUse">
<stop stop-color="#FF80A4"/>
<stop offset="1" stop-color="#FFA984"/>
</linearGradient>
<linearGradient id="paint3_linear" x1="114.167" y1="132.79" x2="115.693" y2="129.567" gradientUnits="userSpaceOnUse">
<stop stop-color="#FF80A4"/>
<stop offset="1" stop-color="#FFA984"/>
</linearGradient>
<linearGradient id="paint4_linear" x1="110.02" y1="120.499" x2="108.203" y2="121.176" gradientUnits="userSpaceOnUse">
<stop stop-color="#FF80A4"/>
<stop offset="1" stop-color="#FFA984"/>
</linearGradient>
<linearGradient id="paint5_linear" x1="109.126" y1="117.451" x2="110.943" y2="116.774" gradientUnits="userSpaceOnUse">
<stop stop-color="#FF80A4"/>
<stop offset="1" stop-color="#FFA984"/>
</linearGradient>
<linearGradient id="paint6_linear" x1="106.081" y1="145.687" x2="127.898" y2="128.695" gradientUnits="userSpaceOnUse">
<stop stop-color="#FF80A4"/>
<stop offset="1" stop-color="#FFA984"/>
</linearGradient>
<linearGradient id="paint7_linear" x1="95.3605" y1="117.62" x2="96.6974" y2="114.952" gradientUnits="userSpaceOnUse">
<stop stop-color="#FF80A4"/>
<stop offset="1" stop-color="#FFA984"/>
</linearGradient>
<linearGradient id="paint8_linear" x1="86.3057" y1="133.981" x2="86.521" y2="131.876" gradientUnits="userSpaceOnUse">
<stop stop-color="#FF80A4"/>
<stop offset="1" stop-color="#FFA984"/>
</linearGradient>
<linearGradient id="paint9_linear" x1="101.531" y1="108.812" x2="102.96" y2="106.332" gradientUnits="userSpaceOnUse">
<stop stop-color="#FF80A4"/>
<stop offset="1" stop-color="#FFA984"/>
</linearGradient>
<linearGradient id="paint10_linear" x1="89.7454" y1="108.812" x2="91.1747" y2="106.332" gradientUnits="userSpaceOnUse">
<stop stop-color="#FF80A4"/>
<stop offset="1" stop-color="#FFA984"/>
</linearGradient>
<linearGradient id="paint11_linear" x1="133.951" y1="115.236" x2="135.302" y2="112.526" gradientUnits="userSpaceOnUse">
<stop stop-color="#FF80A4"/>
<stop offset="1" stop-color="#FFA984"/>
</linearGradient>
<linearGradient id="paint12_linear" x1="140.159" y1="106.704" x2="141.589" y2="104.224" gradientUnits="userSpaceOnUse">
<stop stop-color="#FF80A4"/>
<stop offset="1" stop-color="#FFA984"/>
</linearGradient>
<linearGradient id="paint13_linear" x1="128.374" y1="106.704" x2="129.804" y2="104.224" gradientUnits="userSpaceOnUse">
<stop stop-color="#FF80A4"/>
<stop offset="1" stop-color="#FFA984"/>
</linearGradient>
<linearGradient id="paint14_linear" x1="135.431" y1="145.853" x2="137.264" y2="145.698" gradientUnits="userSpaceOnUse">
<stop stop-color="#FF80A4"/>
<stop offset="1" stop-color="#FFA984"/>
</linearGradient>
</defs>
</svg>
