<svg width="264" height="264" viewBox="0 0 264 264" fill="none" xmlns="http://www.w3.org/2000/svg">
<g filter="url(#filter0_d)">
<circle cx="117" cy="117" r="72" fill="white"/>
</g>
<path d="M122 127C121.11 127 120.222 126.922 119.346 126.766C119.088 126.719 118.841 126.623 118.62 126.481C118.398 126.339 118.207 126.155 118.057 125.94C117.907 125.724 117.801 125.481 117.745 125.225C117.689 124.968 117.684 124.703 117.73 124.444C117.776 124.186 117.873 123.939 118.015 123.718C118.156 123.497 118.34 123.306 118.556 123.156C118.771 123.006 119.014 122.899 119.271 122.843C119.527 122.787 119.793 122.782 120.051 122.828C122.275 123.229 124.568 122.935 126.618 121.987C128.669 121.039 130.378 119.482 131.513 117.529C132.649 115.575 133.155 113.319 132.963 111.068C132.772 108.817 131.891 106.679 130.442 104.946C128.994 103.212 127.046 101.967 124.864 101.379C122.683 100.791 120.373 100.889 118.249 101.66C116.126 102.43 114.29 103.836 112.993 105.686C111.696 107.536 111.001 109.741 111 112C110.993 114.889 112.129 117.664 114.162 119.718C114.346 119.905 114.491 120.126 114.59 120.37C114.689 120.613 114.739 120.874 114.737 121.136C114.735 121.399 114.681 121.659 114.578 121.9C114.476 122.142 114.327 122.362 114.14 122.546C113.953 122.73 113.731 122.876 113.488 122.974C113.245 123.073 112.984 123.123 112.722 123.121C112.459 123.119 112.199 123.065 111.957 122.963C111.716 122.861 111.496 122.712 111.312 122.524C108.881 120.055 107.379 116.82 107.063 113.369C106.746 109.918 107.635 106.464 109.576 103.594C111.518 100.724 114.394 98.6147 117.715 97.6248C121.036 96.6348 124.597 96.8253 127.794 98.1637C130.99 99.5022 133.625 101.906 135.25 104.967C136.874 108.028 137.389 111.557 136.706 114.955C136.024 118.352 134.186 121.408 131.505 123.604C128.824 125.8 125.466 127 122 127Z" fill="url(#paint0_linear)"/>
<path d="M98.9996 137C98.6041 137 98.2175 136.883 97.8887 136.663C97.5598 136.443 97.3036 136.131 97.1522 135.765C97.0009 135.4 96.9613 134.998 97.0384 134.61C97.1155 134.222 97.306 133.866 97.5856 133.586L110.836 120.336C111.211 119.962 111.719 119.752 112.249 119.752C112.779 119.753 113.287 119.963 113.662 120.338C114.036 120.713 114.247 121.221 114.247 121.751C114.248 122.28 114.038 122.789 113.664 123.164L100.414 136.414C100.228 136.6 100.008 136.748 99.7651 136.848C99.5224 136.949 99.2622 137 98.9996 137Z" fill="url(#paint1_linear)"/>
<path d="M111 137C110.737 137 110.477 136.949 110.234 136.848C109.991 136.748 109.771 136.6 109.586 136.414L97.5856 124.414C97.2115 124.039 97.0016 123.53 97.002 123.001C97.0023 122.471 97.213 121.963 97.5877 121.588C97.9623 121.213 98.4704 121.003 99.0002 121.002C99.5301 121.002 100.038 121.212 100.414 121.586L112.414 133.586C112.693 133.866 112.884 134.222 112.961 134.61C113.038 134.998 112.998 135.4 112.847 135.765C112.696 136.131 112.439 136.443 112.111 136.663C111.782 136.883 111.395 137 111 137Z" fill="url(#paint2_linear)"/>
<defs>
<filter id="filter0_d" x="0" y="0" width="264" height="264" filterUnits="userSpaceOnUse" color-interpolation-filters="sRGB">
<feFlood flood-opacity="0" result="BackgroundImageFix"/>
<feColorMatrix in="SourceAlpha" type="matrix" values="0 0 0 0 0 0 0 0 0 0 0 0 0 0 0 0 0 0 127 0"/>
<feOffset dx="15" dy="15"/>
<feGaussianBlur stdDeviation="30"/>
<feColorMatrix type="matrix" values="0 0 0 0 0 0 0 0 0 0 0 0 0 0 0 0 0 0 0.05 0"/>
<feBlend mode="normal" in2="BackgroundImageFix" result="effect1_dropShadow"/>
<feBlend mode="normal" in="SourceGraphic" in2="effect1_dropShadow" result="shape"/>
</filter>
<linearGradient id="paint0_linear" x1="111.896" y1="120.854" x2="131.167" y2="104.187" gradientUnits="userSpaceOnUse">
<stop stop-color="#FF80A4"/>
<stop offset="1" stop-color="#FFA984"/>
</linearGradient>
<linearGradient id="paint1_linear" x1="99.8147" y1="133.467" x2="110.894" y2="123.885" gradientUnits="userSpaceOnUse">
<stop stop-color="#FF80A4"/>
<stop offset="1" stop-color="#FFA984"/>
</linearGradient>
<linearGradient id="paint2_linear" x1="99.6126" y1="133.723" x2="109.889" y2="124.835" gradientUnits="userSpaceOnUse">
<stop stop-color="#FF80A4"/>
<stop offset="1" stop-color="#FFA984"/>
</linearGradient>
</defs>
</svg>
