<svg width="264" height="264" viewBox="0 0 264 264" fill="none" xmlns="http://www.w3.org/2000/svg">
<g filter="url(#filter0_d)">
<circle cx="117" cy="117" r="72" fill="white"/>
</g>
<path d="M75.599 145.798V153.174H115.515H117.313H161.906V145.039C161.906 142.024 160.866 139.065 158.978 136.708C157.089 134.352 154.425 132.687 151.474 132.02L144.33 130.406L144.33 127.445C145.922 126.749 147.386 125.76 148.652 124.498C150.22 122.935 151.41 121.006 152.091 118.921C152.259 118.412 152.396 117.894 152.504 117.369C154.858 117.069 156.683 115.061 156.683 112.635C156.683 111.366 156.18 110.164 155.292 109.274V98.3254C155.292 91.7923 149.671 86.2514 142.913 85.9997V85.9877H142.886C142.045 84.9889 140.807 84.4033 139.482 84.4014H139.461C139.445 84.4014 139.43 84.4014 139.413 84.4014C134.846 84.4014 130.513 86.2077 127.211 89.4906C123.826 92.8552 121.962 97.3035 121.962 102.016V109.331C121.109 110.215 120.626 111.397 120.626 112.635C120.626 115.061 122.451 117.068 124.804 117.369C124.912 117.893 125.049 118.411 125.216 118.92C126.511 122.871 129.427 125.938 133.09 127.496V130.407L125.946 132.021C123.585 132.554 121.408 133.728 119.665 135.383C119.691 135.076 119.708 134.768 119.708 134.459C119.708 131.112 118.2 127.996 115.57 125.907C114.716 125.23 114.227 124.225 114.227 123.151V104.908C114.227 100.094 112.323 95.5599 108.867 92.1418C105.474 88.7863 101.015 86.9634 96.3141 86.996C91.6201 87.0329 87.2075 88.8752 83.889 92.1832C80.5321 95.5278 78.6834 99.9762 78.6834 104.709V123.066C78.6834 124.155 78.1842 125.168 77.314 125.846C74.632 127.931 73.0938 131.07 73.0938 134.459C73.0938 137.297 74.2146 140.034 76.1869 142.061C75.8057 143.241 75.599 144.497 75.599 145.798ZM115.515 151.382H77.3973V145.799C77.3973 140.978 80.6913 136.867 85.4076 135.802L93.129 134.057L93.1292 130.615C94.1788 130.87 95.2738 131.008 96.4011 131.008C97.5674 131.008 98.6999 130.862 99.7828 130.589L99.7826 134.057L107.504 135.802C109.447 136.24 111.147 137.197 112.476 138.506C109.378 140.093 105.932 140.93 102.44 140.93H81.0595V142.723H102.44C106.356 142.723 110.22 141.753 113.665 139.911C114.839 141.585 115.515 143.619 115.515 145.799V151.382H115.515ZM84.3866 124.019C85.0377 125.161 85.8475 126.202 86.7869 127.111V128.868C86.7869 130.441 86.984 132.001 87.3677 133.521L85.1598 134.019C84.6472 132.365 84.3866 130.652 84.3866 128.917V124.019ZM89.1215 133.124C88.7667 131.735 88.5853 130.307 88.5853 128.868V128.583C89.4366 129.168 90.3573 129.658 91.3314 130.043V132.625L89.1215 133.124ZM108.112 133.204C108.064 133.491 108.009 133.778 107.949 134.065C107.933 134.061 107.918 134.057 107.902 134.053L105.524 133.516C105.907 131.998 106.104 130.439 106.104 128.868V127.028C107.006 126.139 107.784 125.127 108.415 124.02V129.554C108.415 130.774 108.313 132.002 108.112 133.204ZM104.305 128.868C104.305 130.306 104.124 131.732 103.77 133.12L101.581 132.625V130C102.549 129.608 103.461 129.11 104.305 128.521V128.868H104.305ZM152.758 115.489C152.78 115.171 152.793 114.853 152.793 114.533V114.16C153.697 113.824 154.434 113.158 154.868 112.317C154.879 112.422 154.885 112.528 154.885 112.635C154.885 113.98 153.987 115.118 152.758 115.489ZM153.494 98.3254V110.588C153.494 111.187 153.224 111.735 152.793 112.11V111.111C152.793 109.609 152.345 108.158 151.496 106.915C151.179 106.452 150.933 105.941 150.764 105.396C150.597 104.857 150.513 104.296 150.513 103.73V101.871C150.513 99.0631 148.22 96.7786 145.409 96.7786L143.341 96.7636C143.726 95.6599 143.926 94.4898 143.926 93.3173V88.8361C143.926 88.5085 143.89 88.1849 143.82 87.8702C149.189 88.5433 153.494 93.0564 153.494 98.3254ZM123.76 102.016C123.76 97.7829 125.437 93.7854 128.481 90.7595C131.444 87.8139 135.325 86.1935 139.416 86.1935C139.43 86.1935 139.445 86.1935 139.459 86.1935H139.481C140.37 86.1947 141.196 86.638 141.689 87.379C141.976 87.8098 142.127 88.3135 142.127 88.8356V93.3168C142.127 94.6981 141.811 96.019 141.186 97.2422C139.692 100.163 136.723 101.978 133.438 101.978C131.053 101.978 128.812 102.904 127.129 104.583C125.444 106.264 124.516 108.496 124.516 110.871V111.954C124.045 111.511 123.761 110.886 123.761 110.202V102.016H123.76ZM122.424 112.635C122.424 112.485 122.44 112.336 122.462 112.189C122.907 113.018 123.623 113.685 124.516 114.064V114.533C124.516 114.853 124.529 115.171 124.55 115.489C123.322 115.117 122.424 113.979 122.424 112.635ZM126.925 118.361C126.52 117.131 126.314 115.843 126.314 114.533V110.871C126.314 108.975 127.055 107.193 128.401 105.851C129.745 104.51 131.534 103.771 133.438 103.771C137.214 103.771 140.644 101.784 142.519 98.5498L145.402 98.5709C147.228 98.5709 148.715 100.051 148.715 101.871V103.73C148.715 104.476 148.826 105.214 149.046 105.924C149.267 106.641 149.592 107.315 150.01 107.925C150.654 108.868 150.995 109.97 150.995 111.111V114.533C150.995 115.843 150.789 117.131 150.383 118.364C149.788 120.183 148.75 121.867 147.381 123.231C145.05 125.555 141.951 126.835 138.655 126.835C133.301 126.835 128.587 123.43 126.925 118.361ZM138.655 128.627C139.985 128.627 141.287 128.441 142.532 128.089V130.579L138.711 132.567L134.889 130.579L134.889 128.121C136.094 128.451 137.358 128.627 138.655 128.627ZM126.344 133.769L133.866 132.069L138.71 134.589L143.555 132.069L151.076 133.769C156.394 134.97 160.108 139.605 160.108 145.04V151.382H152.466V146.158H150.668V151.382H126.528V146.158H124.73V151.382H117.313V145.799V145.04C117.313 139.605 121.027 134.97 126.344 133.769ZM74.8927 134.459C74.8927 131.626 76.1784 129.003 78.4212 127.259C79.731 126.239 80.4823 124.711 80.4823 123.066V104.709C80.4823 100.455 82.1439 96.4569 85.1613 93.4507C88.1442 90.4773 92.1103 88.8214 96.329 88.7883C100.547 88.7487 104.551 90.3978 107.601 93.4141C110.715 96.4931 112.429 100.575 112.429 104.908V123.151C112.429 124.775 113.166 126.291 114.45 127.309C116.649 129.055 117.91 131.661 117.91 134.459C117.91 136.561 117.208 138.539 115.915 140.147C114.592 137.649 112.402 135.664 109.674 134.598C109.753 134.233 109.824 133.865 109.886 133.499C110.103 132.2 110.213 130.873 110.213 129.554V114.708C110.213 109.229 106.694 104.442 101.456 102.797L100.916 104.506C105.401 105.915 108.415 110.015 108.415 114.708V117.24C108.415 123.843 103.026 129.216 96.4013 129.216C89.7768 129.216 84.3873 123.843 84.3873 117.24H84.3866V114.953C84.3866 111.034 86.6732 107.439 90.2211 105.762L90.3216 105.716C94.5604 103.769 97.2995 99.5043 97.2995 94.8496V93.3161H95.5013V94.8496C95.5013 98.7685 93.2175 102.363 89.6736 104.039L89.5676 104.087C85.328 106.036 82.5884 110.301 82.5884 114.953V128.917C82.5884 130.823 82.8738 132.704 83.4341 134.522C80.5859 135.578 78.3063 137.63 76.9558 140.225C75.6341 138.607 74.8927 136.566 74.8927 134.459Z" fill="url(#paint0_linear)"/>
<path d="M94.8358 122.223L93.2129 122.994C93.8059 124.233 95.0793 125.034 96.4569 125.034C97.8333 125.034 99.1064 124.234 99.7005 122.995L98.0783 122.222C97.7813 122.841 97.1449 123.241 96.4569 123.241C95.7683 123.241 95.132 122.842 94.8358 122.223Z" fill="url(#paint1_linear)"/>
<path d="M91.3679 113.738C90.8913 113.738 90.5049 114.123 90.5049 114.598V115.631C90.5049 116.106 90.8911 116.491 91.3679 116.491C91.8442 116.491 92.2306 116.106 92.2306 115.631V114.598C92.2306 114.123 91.8442 113.738 91.3679 113.738Z" fill="url(#paint2_linear)"/>
<path d="M101.434 116.491C101.911 116.491 102.297 116.106 102.297 115.631V114.598C102.297 114.123 101.911 113.738 101.434 113.738C100.958 113.738 100.571 114.123 100.571 114.598V115.631C100.571 116.106 100.958 116.491 101.434 116.491Z" fill="url(#paint3_linear)"/>
<path d="M142.017 120.357L140.395 119.583C140.086 120.227 139.425 120.642 138.712 120.642C137.997 120.642 137.337 120.227 137.029 119.584L135.406 120.356C136.011 121.619 137.308 122.435 138.712 122.435C140.114 122.434 141.411 121.619 142.017 120.357Z" fill="url(#paint4_linear)"/>
<path d="M133.494 110.875C133.006 110.875 132.609 111.27 132.609 111.757V112.816C132.609 113.303 133.006 113.698 133.494 113.698C133.983 113.698 134.379 113.303 134.379 112.816V111.757C134.379 111.27 133.983 110.875 133.494 110.875Z" fill="url(#paint5_linear)"/>
<path d="M143.816 113.698C144.304 113.698 144.7 113.303 144.7 112.816V111.757C144.7 111.27 144.304 110.875 143.816 110.875C143.327 110.875 142.931 111.27 142.931 111.757V112.816C142.931 113.303 143.327 113.698 143.816 113.698Z" fill="url(#paint6_linear)"/>
<path d="M122.833 72.0294C121.108 71.8604 119.387 72.425 118.112 73.5778C117.676 73.9716 117.304 74.4226 117.003 74.9144C116.701 74.4226 116.329 73.9716 115.893 73.5776C114.618 72.425 112.897 71.8606 111.173 72.0294C108.442 72.2965 106.217 74.3598 105.762 77.0469C105.711 77.3463 105.682 77.6523 105.675 77.9564C105.645 79.303 106.119 80.6572 107.009 81.7696L108.189 83.2437L115.25 90.8935C115.683 91.4178 116.32 91.7179 117.003 91.7179C117.686 91.7179 118.322 91.4178 118.755 90.8935L125.775 83.2919L126.996 81.7698C127.886 80.6572 128.36 79.303 128.33 77.9564C128.323 77.6533 128.294 77.3474 128.243 77.0469C127.788 74.3598 125.563 72.2967 122.833 72.0294ZM125.59 80.6522L124.431 82.1014L117.413 89.7001L117.372 89.7483C117.249 89.9024 117.088 89.9256 117.003 89.9256C116.918 89.9256 116.757 89.9026 116.634 89.7485L109.575 82.1016L108.415 80.6523C107.787 79.8674 107.452 78.9242 107.473 77.997C107.478 77.7794 107.499 77.5603 107.535 77.3461C107.856 75.4545 109.424 74.0021 111.348 73.8137C112.587 73.6921 113.772 74.0804 114.686 74.906C115.587 75.7205 116.104 76.8826 116.104 78.0943V79.3272H117.902V78.0943C117.902 76.8826 118.419 75.7205 119.32 74.906C120.234 74.0806 121.419 73.6923 122.657 73.8137C124.582 74.0019 126.15 75.4545 126.471 77.3459C126.507 77.561 126.528 77.7799 126.533 77.9968C126.553 78.924 126.218 79.8671 125.59 80.6522Z" fill="url(#paint7_linear)"/>
<defs>
<filter id="filter0_d" x="0" y="0" width="264" height="264" filterUnits="userSpaceOnUse" color-interpolation-filters="sRGB">
<feFlood flood-opacity="0" result="BackgroundImageFix"/>
<feColorMatrix in="SourceAlpha" type="matrix" values="0 0 0 0 0 0 0 0 0 0 0 0 0 0 0 0 0 0 127 0"/>
<feOffset dx="15" dy="15"/>
<feGaussianBlur stdDeviation="30"/>
<feColorMatrix type="matrix" values="0 0 0 0 0 0 0 0 0 0 0 0 0 0 0 0 0 0 0.05 0"/>
<feBlend mode="normal" in2="BackgroundImageFix" result="effect1_dropShadow"/>
<feBlend mode="normal" in="SourceGraphic" in2="effect1_dropShadow" result="shape"/>
</filter>
<linearGradient id="paint0_linear" x1="87.5873" y1="139.085" x2="131.959" y2="89.5275" gradientUnits="userSpaceOnUse">
<stop stop-color="#FF80A4"/>
<stop offset="1" stop-color="#FFA984"/>
</linearGradient>
<linearGradient id="paint1_linear" x1="94.2716" y1="124.458" x2="95.7342" y2="121.54" gradientUnits="userSpaceOnUse">
<stop stop-color="#FF80A4"/>
<stop offset="1" stop-color="#FFA984"/>
</linearGradient>
<linearGradient id="paint2_linear" x1="90.7865" y1="115.927" x2="92.2841" y2="115.115" gradientUnits="userSpaceOnUse">
<stop stop-color="#FF80A4"/>
<stop offset="1" stop-color="#FFA984"/>
</linearGradient>
<linearGradient id="paint3_linear" x1="100.853" y1="115.927" x2="102.35" y2="115.115" gradientUnits="userSpaceOnUse">
<stop stop-color="#FF80A4"/>
<stop offset="1" stop-color="#FFA984"/>
</linearGradient>
<linearGradient id="paint4_linear" x1="136.485" y1="121.851" x2="137.963" y2="118.886" gradientUnits="userSpaceOnUse">
<stop stop-color="#FF80A4"/>
<stop offset="1" stop-color="#FFA984"/>
</linearGradient>
<linearGradient id="paint5_linear" x1="132.898" y1="113.12" x2="134.434" y2="112.287" gradientUnits="userSpaceOnUse">
<stop stop-color="#FF80A4"/>
<stop offset="1" stop-color="#FFA984"/>
</linearGradient>
<linearGradient id="paint6_linear" x1="143.219" y1="113.12" x2="144.755" y2="112.287" gradientUnits="userSpaceOnUse">
<stop stop-color="#FF80A4"/>
<stop offset="1" stop-color="#FFA984"/>
</linearGradient>
<linearGradient id="paint7_linear" x1="109.371" y1="87.6784" x2="122.171" y2="74.9582" gradientUnits="userSpaceOnUse">
<stop stop-color="#FF80A4"/>
<stop offset="1" stop-color="#FFA984"/>
</linearGradient>
</defs>
</svg>
